<mxfile host="app.diagrams.net" modified="2023-02-12T17:13:32.047Z" agent="5.0 (Windows NT 10.0; Win64; x64) AppleWebKit/537.36 (KHTML, like Gecko) Chrome/109.0.0.0 Safari/537.36" etag="_ygbNG7M_5N7uysOsU0v" version="20.8.20" type="github">
  <diagram id="0d7cefc2-ccd6-e077-73ed-a8e48b0cddf6" name="Page-1">
    <mxGraphModel dx="723" dy="744" grid="1" gridSize="10" guides="1" tooltips="1" connect="1" arrows="1" fold="1" page="1" pageScale="1" pageWidth="1169" pageHeight="827" background="none" math="0" shadow="0">
      <root>
        <mxCell id="0" />
        <mxCell id="1" parent="0" />
        <mxCell id="0G1YjZtWjZHLyLZfflZ1-125" value="" style="endArrow=block;startArrow=none;html=1;rounded=0;strokeWidth=5;fillColor=#ffcc99;strokeColor=#6666FF;startWidth=19.2;startFill=0;endFill=1;" edge="1" parent="1">
          <mxGeometry width="100" height="100" relative="1" as="geometry">
            <mxPoint x="235" y="154.35000000000002" as="sourcePoint" />
            <mxPoint x="265" y="154.83" as="targetPoint" />
          </mxGeometry>
        </mxCell>
        <mxCell id="0G1YjZtWjZHLyLZfflZ1-126" value="" style="rounded=0;whiteSpace=wrap;html=1;strokeColor=none;strokeWidth=4;fillColor=#008787;gradientColor=#00C4C4;gradientDirection=north;" vertex="1" parent="1">
          <mxGeometry x="270" y="70" width="610" height="520" as="geometry" />
        </mxCell>
        <mxCell id="0G1YjZtWjZHLyLZfflZ1-127" value="" style="rounded=0;whiteSpace=wrap;html=1;strokeColor=#0e8088;strokeWidth=3;fillColor=#87E087;gradientDirection=north;gradientColor=#00ABAB;" vertex="1" parent="1">
          <mxGeometry x="290" y="80" width="580" height="170" as="geometry" />
        </mxCell>
        <mxCell id="0G1YjZtWjZHLyLZfflZ1-128" value="&lt;h2&gt;&lt;font color=&quot;#333333&quot; style=&quot;font-size: 22px;&quot;&gt;User Interface&lt;/font&gt;&lt;/h2&gt;" style="rounded=0;whiteSpace=wrap;html=1;strokeColor=#2D7600;strokeWidth=3;fillColor=#99FFCC;gradientDirection=west;fontColor=#ffffff;" vertex="1" parent="1">
          <mxGeometry x="340" y="95" width="270" height="45" as="geometry" />
        </mxCell>
        <mxCell id="0G1YjZtWjZHLyLZfflZ1-123" value="" style="shape=image;verticalLabelPosition=bottom;verticalAlign=top;imageAspect=0;aspect=fixed;image=data:image/png,iVBORw0KGgoAAAANSUhEUgAABLAAAAK9CAYAAAA0b5UrAAAABGdBTUEAALGPC/xhBQAAACBjSFJNAAB6JgAAgIQAAPoAAACA6AAAdTAAAOpgAAA6mAAAF3CculE8AAAABmJLR0QA/wD/AP+gvaeTAACAAElEQVR42uzdeXxcVf3/8dfnTpJuKRQQlLVQdsvappRNaFlEBXfCkibtzLQERRF33B13vupPURQ1tplploINriiKCgVkb1L2vUDLvkP3JZn7+f0xEWmbpkmbSWbmvp+PRx7oTDpzzvucuXPvJ/eeCyIiIiIiIiIiIiIiIiIiIiIiIiIiIiIiIiIiIiIiIiIiIiIiIiIiIiIiIiIiIiIiIiIiIiIiIiIiIiIiIiIiIiIiIiIiIiIiIiIiIiIiIiIiIiIiIiIiIiIiIiIiIiIiIiIiIiIiIiIiIiIiIiIiIiIiIiIiIiIiIiIiIiIiIiIiIiIiIiIiIiIiIiIiIiIiIiIiIiIiIiIiIiIiIiIiIiIiIiIiIiIiIiIiIiIiIiIiIiIiIiIiIiIiIn1nikBERArRHbBPABMMDgAOdNjHYBSwA7n/rgNWOawyeAl4DHgEeLgc7jwcVilFEREREZHSoAKWiIgUhFthxDB4P3Caw1Rgn214uU7gDuB64M9VsEgJi4iIiIgULxWwRERkSC2E4wwSwJnA9nl6m/sNmjqh6Wh4UamLiIiIiBQXFbBERGRItMPxwLeAkwbxbdc5zHX47lHwtEZBRERERKQ4qIAlIiKDqh0mG1zmMGkIm7He4fIsfPNoWK5REREREREpbCpgiYjIoLgVdhwG33c4DwgKpFnPOXxuElypERIRERERKVwqYImISN4thKMMfgfsXaBN/GMMkkfCGxotEREREZHCEygCERHJFwfrgK8Y3ELhFq8APpyFOxfCkRo1EREREZHCozOwREQkLxZAWSU0dN9hsFisdqieBNdoBEVERERECocKWCIiMuDaYaTBVQ7vLcLmdzmcPwkaNZIiIiIiIoVBBSwRERlQC2B4JVxrcEIRd8MNkhMhoxEVERERERl6WgNLREQGzHyIbQctRV68AjCH2R3wYY2qiIiIiMjQUwFLREQGzL7wS4ePlkh3Yg4td8IkjayIiIiIyNDSJYQiIjIgFsK5BvNKsGtPZ+HIyfCqRllEREREZGjoDCwREdlmd8H+Br8p0e7tGYOM648+IiIiIiJDRjvjIpJ3t8PbAzgoBgc6HOCwh0ElMAoYDQQGaxxWAsscXjd4FHjY4JHlsGQqdCnJwrQAykbDncCRJd7V86pgtkZcRERERGTwqYAlIgOuHXYFjnc4xeA0YOw2vuRqg1tDuAW42eDGKuhU0gUz3hcBl0agq68FcNAEeFmjLiIiIiIyuFTAEpEBcS/s0AnVDtOB4/L8dq85XGXQXAU3K/2hcye8I4CHgDER6fLsKjhPIy8iIiIiMrhUwBKRbdIOxwOfB94HlA9BE+4z+MVwyIyH9RqRwdUBv3Y4P0JdDkM47Ch4QKMvIiIiIjJ4VMASka3SXbi6GDijQJr0IvBT4LIqWK0Ryr/us6+eBIZHqd8OLZOgTjNARERERGTwqIAlIv1yJ4w3uNzghAJt4vMOn5sEV2i08qsd/h/w2Qh2PRuDg4+ExzQLREREREQGhwpYItIn7TDS4YsGXwYqimDjdqPBBRPgQY1efuYD8DywXUS/PH86MZrFOxERERGRIREoAhHZknaYDDxg8E2KoHgF4HBiCHcthM+4ivUDzuDDRLR41T2/ahZAmWaCiIiIiMjgUAFLRHo7SLd2uAi4Cdi7CLtQYfCTRfCnW2FHjeiAzo2orwH19u3gZM0EEREREZHBoQKWiPToHhjVAX8ELqVIzrraHIcPVEDHIjhcI7vtuouBp0Q9hxDO1mwQERERERkcKmCJyCbuhR264J/AB0uoW3uHcMOiwl18vmgMgylALOo5mM7AEhEREREZNCpgicgG2mHX9XCDw7El2L0xIfxzIZypkd4mUxUBAHsthHGKQUREREQk/1TAEpE3LYLdgFuAw0q4m8MMruzILUIuW8F1Fttbv0RPVAoiIiIiIoOy7y0iAu2wfQh/A/aJQHdjDlcu0iVg/TY/d+nggUoix2G8UhARERERyT8VsESEW2EEcDVwRIS6XRHCH+6MVp+32f65S+aGKYk3qZgnIiIiIjIIVMASESrgV8C7Itj17QL4072wg2ZB34Qq2GxMeYiIiIiIDAIVsEQibiGcC8yIcARj10OTg2k29MluikB5iIiIiIgMNhWwRCLsLtjf4DdKgjM64ELFsGUOlUphAyO71wUTEREREZE8UgFLJKLmQywLVwKjlQYAP+yAgxVD70zzZZNI9oJRikFEREREJL9UwBKJqHFwATBBSbxpWAi/1qWEvXMYrhQ2VKYCloiIiIhI3qmAJRJBt8PbgW8riQ0ZnNAOZyuJXjNaqxQ21AWrlIKIiIiISH6pgCUSQWXwf8AYJbEpg/93j86o2SyHFUphw0ieUgFLRERERCTvVMASiZiFMA6YpiQ2a7cuOE8x9MxgpVLYwOqzIKsYRERERETySwUskYgx+BJQpiQ2z+Hzj8EwJdGj5xWB8hARERERGWwqYIlEyN2wOzBdSWzR7suVU4+64BGlsAHlISIiIiIyCFTAEomQLHwcnVnUJw6fVgqbWg1PAJ1K4k0qYImIiIiIDAIVsEQiwsEcapREn72zAyYqhg1NhS5UtHnr5+pBpSAiIiIikn8qYIlERAdMAfZREn3nUKcUenSTInjzS/RGpSAiIiIiMij73iISBSrGbJVzF2jB+57m0gKlAMDTE2GxYhARERERyT8VsEQiwMEM3qck+m2XUXCUYtiQwQ1AqCS4XhGIiIiIiAwOFbBEIqAdxgNvVxJbtZE8SSlsqApe0VlYALQpAhERERGRQTs2E5FSZzBVKWw1ZdfznGqOeAQvA//UTBARERERGRwqYIlEgOcWcJetc+wCGK4YNjQCfg+sinAEV1ZBp2aCiIiIiMjgUAFLJAIMjlQKW2349nCgYtjQeFgJNEa0+1mHX2oWiIiIiIgMHhWwRErcYzAM2EtJbL0QDlAKPebyI2B91PrtcNUkeEQzQERERERk8KiAJVLi3oD9gZiS2CY6A6sHR8HTRG8tLI/BDzT6IiIiIiKDSwUskdKn4ss2cmW4WV2QInc5YVQ0TYB7NPIiIiIiIoNLBSyREmfwdqWwzRnuohR6djQ8Y/DtiHR3OfBljbqIiIiIyOBTAUuk9I1WBNvGleGW8rkUeKDU+2nwlSp4XiMuIiIiIjL4VMASKX2VimDbmApYvaqCTodzgDUlPAf+PgF+pdEWERERERkaKmCJlD4VX7bddoqgd5PgfuCzJdq9Zx2mG4QaaRERERGRoaEClkjpM0WgDAdDFfzaSu+uhOuAc6rgFY2wiIiIiMjQUQFLpMR5tO4Qly8rFEGf59tMg7+XSHdCoK4KbtbIioiIiIgMLRWwREqcqfgyEJRhH1VB53A4C7izBD47n6qCNo2qiIiIiMjQUwFLpMTpDKxtpyJg/4yHlSPgZOBfRdqFLPDxifBLjaaIiIiISGFQAUuk9D/kLyuFbab1j/ppPKzcHt5P8Z3BtM6gpgp+rVEUERERESmoY1sRKWUhPKoUtjnDR5RC/+0P656Acw2+R3Hcwe8pgykTYb5GT0RERESksKiAJVLiKnIFLFcSW89UBNxqZ0F2InzN4FTghQJu6l+zMGEi3K5RExEREREpPCpgiZS4w2EV8IyS2HqmM7C22US4PoQjgVYKq6D6isOsifCByfCqRkpEREREpDCpgCUSDfcqgq3WWQYPK4ZtdxS8UAW1DicBDwxxc7LAb7Nw0CSYYzpLUURERESkoKmAJRIBBjcqha3ObmH3WWwyQCbBDRPhMIMPOLQP8tt3GjQ7jK+Cep11JSIiIiJSHMoUgUjpM1ig00u2jsP1SiEvczIErnb46yI4LYS4wQeB4Xl6yyeBlgDmTIClGgERERERkaI7hhCRUjcfYuPgZWAHpdHvjeTJE1XEGhTtsL3DRw1OA6YCO2/Dy4XAfQbXG/zpSPiPLhMUERERESnqYzMRiYKFcKXB2UqiX5atgHdMhbWKYnA5WAccAkwADnQ40GAsuSLsaKASWAes7P55xeDRMLfg/sMGt1bBK0pSRERERKQ06BJCkYgIoMVVwOqvNhWvhkb32VL3df+IiIiIiIiOaUUkCpbDP4AXlUS/NpDNSkFERERERKQgjs9EJAqmQhdwpZLos6VHws2KQUREREREZOipgCUSIQa/ALJKok9Z/bL7TnkiIiIiIiIyxFTAEomQibAY+IOS2KLX1sCvFYOIiIiIiEhhUAFLJHof+u+RWyBbNsPg58fDCiUhIiIiIiJSMMeyIhIlE+Aeg6uVxGa9sQ4uUwwiIiIiIiKFQwUskQhy+CywVklsyuBrx8JrSkJERERERKSgjtVE8uMBqFgD40IYbbB9ANuFMAoot9zlWcscVsVg5Xp48mhYrtQGz0JIGXxTSWzgridg0lla6F5ERERERKSgqIAlA2IR7Oww1eEo4MDun32Asn68zPPAwwaPOtwDLKiCh5VufiyA4aPhfmBfpQFAaHDcRLhdUYiIiIiIiBQWFbBkq8yH2L5wisN7gZOAQ/I0n55zuN7g38CfqmCZ0h847TAZ+A9QrjS4pAq+rBhEREREREQKjwpY0i+L4J1ZOMsgDowd5LdfS66Q1USumNWpEdl27XAxcEnEY7gDeJfmlIiIiIiISGFSAUu2yMHa4QOWOztlcoE06zngpyPg1+NhpUZpm8f3zwbvj2gEr8dgwpGwRLNBRERERESkMKmAJZvlECyC0z230PfEAm3mqw6/GAY/Owxe16htnVthx4rcpYTvjFjX1xu8dyJcr1kgIiIiIiJSuFTAkh61w/HA5cChRdLk14GvToTfGIQawf67G3bvglsY/EtDh4o7zJgEzRp9ERERERGRwqYClmyg+0ycbwKfBIIi7MIi4IKq3JpG0v/w3hnmzsTasdT76vDZSfBTjbqIiIiIiEjhUwFL3tQBZzn8iuIvXmSBS0fAV8bDeo1s/yyEQwz+Aexeol10g4snwo802iIiIiIiIsVBBSzhMRi2DH4IfKqU+uXQDpw9CZ7QKPfPHbBPDK4F9i+xrnU5nD8JGjXKIiIiIiIixUMFrIjrgP0c5gNHlmgXX3dITII/a7T75054h8HVBlUl0qVlBmdPzBXmREREREREpIgEiiC67oRJDrdSusUrgB0M/rgQvqgR75+j4IUxucX8fw54kXdnkUGVilciIiIiIiLFSWdgRdQiODmEPwKjI9Ttn0+ET1vxF2MGXTt8iNxldzsU4UaueR2cfyys0UiKiIiIiIgUJxWwImghnGswFyiPWt8d0k/CeWflFnqXflgEuzlc4lBXJE1ebHDhxNyC9CIiIiIiIlLEVMCKmIXwAYPfA2URjqFpIsR1JtbWaYepwOXAQQXaxDUOP1wJl0yFtRoxERERERGR4qcCVoTcCScGubNRhisNvlsFX1cMW6f7zpUJ4GJg7wJp1hrgt13wo6PhGY2SiIiIiIhI6VABKyLa4VDgRopwDaM8Tv7PTIRLlcQ2zatyg2kOXwDeOUTNeAOY3QU/Phpe1KiIiIiIiIiU5DG8lLo7YKcY3AXsqTQ2EAbw7glwnaLYdnfC+CC3PlYC2CXPb5c1WBBCs8FVVbBaIyAiIiIiIlK6VMAqcQ7Wkbvb4AeVRo9eCuDICfCcohgYD0DFOniXw9QQTjKYxMCsufY4sMDh+hj8ewK8rLRFRERERESiQQWsEtcOnwN+rCR6dcMTcIruTJgfN8Po4XA4cJDDAQEc6LA7sB1Q2f1TAawElgHLgdcNHg3hEeBhh/uPgqeVpoiIiIiISDSpgFXCOmCiw21AudLoncPXJsH3lISIiIiIiIhI4VEBq0Q5BB1wKzBZafTJuiwcNhkeVRQiIiIiIiIihSVQBKWpA85Hxav+GBaDyxSDiIiIiIiISOHRGVglqPuug48AOymNfn8gPjIxt+i9iIiIiIiIiBQInYFVgmLwbVS82ioO/69da4aJiIiIiIiIFBQVsErMnfAOIKEktto+BtMUg4iIiIiIiEjhUAGr9Ab088AIJbH1HL46H2JKQkRERERERKQwqIBVQm6FHYF6JbHN9tsXPqoYRERERERERAqDClglpCJXvBqtJLadw2eVgoiIiIiIiEhhUAGrtGjtpoEzuR0OUgwiIiIiIiIiQ08FrBJxJ0wCDlESA0oFQREREREREZECoAJW6QxknVIYcHWuz4iIiIiIiIjIkNPBeQlwMOAsJTHgxt4FkxWDiIiIiIiIyNBSAasELIJDgbcriYEXwslKQURERERERGRoqYBVAhymKoW8UbYiIiIiIiIiQ0wFrNKgIkv+HHsrjFAMIiIiIiIiIkNHBawi173+1QlKIm+GV8DRikFERERERERk6KiAVeQ6YE9gByWRV4cqAhEREREREZGhowJWkXM4UCnknTIWERERERERGUIqYBX/AB6gFPJLRUIRERERERGRoaUCVpFTcSX/TBmLiIiIiIiIDCkVsIrfnoog73afDzHFICIiIiIiIjI0VMAqftspgryzcVCpGERERERERESGhgpYRc5gtFLIvy7lLCIiIiIiIjJkVMAqcq4zgwZFuQpYIiIiIiIiIkNGBazipwLWIAhVwBIREREREREZMipgFb8uRTAoOhWBiIiIiIiIyNBQAav4rVAEg/JBUc4iIiIiIiIiQ3dcLkVOhZVBUAbLlYKIiIiIiIjI0FABq/itVAT5t0qFQhEREREREZEhowJW8XtNEeTd2mNhjWIQERERERERGRoqYBW/xYpAGYuIiIiIiIiUMhWwipzBI0pBGYuIiIiIiIiUMhWwipyKK/kXKmMRERERERGRIaUCVpFbD48CriTySgUsERERERERkSGkAlaROxqWAw8riby6QxGIiIiIiIiIDB0VsErDAkWQN89N0hlYIiIiIiIiIkNKBawS4Cpg5Y3BdUpBREREREREZGipgFUCwlwBK1QSeaHioIiIiIiIiMgQUwGrBEyGV4E7lcSAyxpcqxhEREREREREhpYKWCXCoEUpDLjrJ8BzikFERERERERkaKmAVSLWwRW5/8hAcWhWCiIiIiIiIiJDTwWsEnEsvAb8Q0kMmFUj4Y+KQURERERERGToqYBVQgzmKIUBy/J342GlkhAREREREREpiON0KRUO1gH3AIcqjW2SdRg/CR5RFCIiIiIiIiJDT2dglRADd/iBktjmHNtUvBIREREREREpHCpglZgnYT7wqJLYao6KgCIiIiIiIiIFRQWsEnMWZA2+oyS22lUT4V7FICIiIiIiIlI4tAZWCepeC+t6YIrS6JfVAbxzAixVFCIiIiIiIiKFQ2dglSADD+GTQKfS6FduKRWvRERERERERAqPClgl6ih4ALhMSfTZgw6XKgYRERERERGRwqNLCEvYPTCqExYCByuNXq0P4fijclmJiIiIiIiISIHRGVgl7HBYFUI1sFpp9OqLKl6JiIiIiIiIFC4VsEpc96WEFymJzfrrRPi5YhAREREREREpXCpgRUAVzAbmKolNLK6A6QauKEREREREREQKlwpY0XGewd8Vw5tejsH7DoPXFYWIiIiIiIhIYdMi7hHSDiMN/uVwbMSjWAFMqYJFmhUiIiIiIiIihU9nYEVIFaw2+BDwcIRjWGvwIRWvRERERERERIqHClgRMwFeXg/HOdwWwe6/EcBpE+F6zQQRERERERGR4qFLCCPqHhi1Hq4yeE9EuvxCCO89Cu7W6IuIiIiIiIgUF52BFVGHw6qR8EFgXgS6+2AMjlHxSkRERERERKQ46QwsYSFMN/g1MKLU+ubQMhI+Ph5WaqRFREREREREipMKWALAQjjSYD6wX4l0aS3wpSr4mUZXREREREREpLjpEkIBYBLc1QUTgV8BYZF35+YAJqp4JSIiIiIiIlIadAaWbKL7bKzLgaOLrOmvAd+eCJdZ8RfhRERERERERKSbCljSI4egA+qBrwG7F3hz1wINFZA6DF7X6ImIiIiIiIiUFhWwpFcPQMVqOMdyhaz9C6x5q4A5ZfDDI+BZjZaIiIiIiIhIaVIBS/pkAZRtB+cAsxxOGOK5sxhoAn5VBa9odKTUtMPHHI5UElLiOyAhsMxhrcGa7v+93mAFsNpgucPL6+GlY3OXiIuIiIhIL1KpKWVLl+5xmLsdEAR+UBiyRxCwnbtvB8TA3nD3lUFgL4ahP2pmD3d12T3Nzc2rimT/UaR/FsHYEOqAWuDAQXrb14D5ITRPgtsMXCMhpWoh/N7gI0pC5E2dwMvAyw7PB7n/PkfuDxqPh7B4Ejyj7wYRERGJmmTynN3cy88GPwV4FzC6ny+xHrjDnevKymz+7NnNDxVqX1XAkm2yCHYL4TiHUwzeB+wxQC+9Jvfy3Ozw75Fw0/jcB0uk5KmAJbJV1gJP2P+KWvcH0L4cHpwKXYpHRERESkUqlQqWLHn8Q2ZhPdgpQGxgD0eY4142N5PJrC2kfquAJQPGwe6EvcvgAIeDyJ2dNQ54G7kqcGX3TzmwktxlIm84rDRYYvBICI8YPDoCHlHBSqJKBSyRAdUJPGbQ4dABdGwPC/eHdYpGREREikkqlQqeemrxue58BXhnXo/vneeBH0PZ5YVSyFIBS0SkwKiAJZJ3q4AbgH86XDsJHlEkIiIiUsiSydrD3bkcOHaQ3/oJd7swk2m+ZqgzUAFLRKTAqIAlMuheAP7j8NdO+KsWjRcREZFCkVuYfc8U+Jfo+6WCz5rxsDuPutsy8DcAzGy0O6PM/AD+d8VUH+tCNs+s/GONjY0rhioLFbBERAqMClgiQyoL3GjwO4c/6G63IiIiMlSmT5++exCE88w4YQu/ut6Ma8D+bJZdMGfOvKV9ef1EIrGze9cUMz+d3PFHrwvAm/EocFZjY8s9Q5GHClgiIgVGBSyRgtFl8K8QGkfCX7Q2o4iIiAyWRGLaO8GupfcbpT0H/DSbDdJNTU2vbsv71dXVjSor87PAvgh+UC+/ugrso+l087WDnYkKWCIiBUYFLJGC9DLQBPyqCh5XHCIiIpIviUTdZOAa8B038yvL3Pnm6NE7/Pqyyy4b0BvTpFKpYOnSxWcDPwJ238yvrQfi6XTLFYOZiwpYIiIFRgUskYIWAtc4/GwS/FtxiIiIyECKx6cdamY3AWN6et6d30PZJzOZzAv5bEcymRztvv77wCfouXbUZcZHGxtb/jJY2aiAJSJSYFTAEikODrcZpKrgn0pDREREttXMmTVjwzC4Fdith6fXuvvnMpnWywezTYlEzQfNgrQ7O/Tw9Jow9FPnzm29ZTDaEmiKiIiIiPSfwTHAte1wcztMVSIiIiKytS688MJh7rHf03PxaqU7Hxjs4hVAOj3vz0FgxwFP9fD0iCCwP9TX1+46GG1RAUtERERk2xwHXN8B/1oE71QcIiIi0l+rVr3xI3efuPHjZrweBMEJmUzLv4aqbbNnNz8EXccDT/Tw9C6dnd6USqXyXl9SAUtERERkADicEsJd7XDJrTBCiYiIiEhfzJgx7WR3/2QPT61254w5c5ruGuo2ptNXPh0EnAa8tOmzdsqSJYsvzHcbtAaWiEiB0RpYIiXhCYPzJsL1ikJEREQ2p7q6uqKycvg94Adt/JwZZzc2tszv7d/H43XV4OP6+n5mZM1suXv4nHv5/ZlMZkl/2ptMTj/GPbwRKN/oqeXl5RzU0NDyfL6yKtN0ERERERlw4xz+1Q6/WAEXT4W1ikREREQ2Vlk5/NM9Fa+AX22peAVg5gngvf15T3cHDLMuEom6p939yiDourSx8crntvRvGxubbksma7/qzg83emq7zk4uAWbkKytdQigiIiKSv/2sT42GW++C/RWHiIiIvFV9ff1I8M/18NRTXV32hcFphe9pxhfcyx5KJuviffkXjY0tPwa/rYenpk2fPv2AfO5YiYiIiEj+HJmFjoVwpqIQERGR/+rqWlUP7LLx42Zc2NzcvGqQm7OduzcmEtP6cgaVu3M+0LXR47EgCL+YrwaqgCUiIiKSf6MN5i+ElGsNUhEREQFzt00WbjfjlsbGlr9s/cv6A2bBqT39uNtZZvZxd7sEaO+pTWA/q68/921bepdMpvU+4Moe2l87c2b1jvkITGtgiYiIiAzSjqrBNxfBuAdg1nhYr0hERESiKZmcfpx7uO/Gj4ehfX/bdjbsjcbGpn/34Ve/nEjUneTuLWbs+pbHt+/sLDsP+MGWXiAWs+9ns17DhidHDQvDYdXAbwY6M52BJSIiIjKIHOrWwp9uhRFKQ0REJKL7Ax7W9vDwY5lM898Hqw3pdPP14D3c/dxP68u/nz27+SF3NimWmVGXj/aqgCUiIiIy2Dut8N4KuOYBqFQaIiIikfSejR8wozm3mzB4MpnW24GFGz38zr6/grVssp/jHF1TU7PDQLdVBSwRERGRoTFlDfzhAahQFCIiItGRTNaMA8b28NT8oWmRPbbRAzumUqk+1YtGjlz7R6Bzo4djw4ZxwkC3UgUsERERkaFz6lqY69onExERiZBYT8WdZxsbWx4Zmvb46I0f6Ou/vPzytpVm3LnpM8GJA91K7SyJiIiIDCGHczrg/5SEiIhIRL773cdv+qjdOBRt6T7T6rCNHn4llUqF/XiZGzftI+MHuq0qYImIiIgMvc+3wwzFICIiEgV20MaPuPsDQ9GSpUsfq2aTyxmtvT+vEYabtt2MAwe6rSpgiYiIiBSGX90JRygGERGRUufjNn4kCBjUywerq6tjyWRdHGz2xs+Z8ad+9ca9p7bvWV1dPaDrfJZp4oiIiIgUhBEBXPkAVI2HlYpDRESkZI3Z+AF3nh+IF3Znj3i89uKengsCdnBnuBlj3TnO3Xfu4dcWr1ixtrk/7zlsWPBcZ+embzdixIjRwKsDFZoKWCIiIiKF48DVcAnwSUUhIiJSsjZeNJ1sNhioP16NNeOSnp5w3/C/PVhuxpltbW3r+/OGZWXrVnR2Dtvk8SAIBrSApUsIRURERAqIwcfvhBOVhIiISMka3sNja4e4TXfHYnZ0Y2PLPf39hy+/zJoe92msc+RANlAFLBEREZHCEgQw+1YYoShERERK0uqNHygrC4fie38Z+B/c7aNjx+43cfbs5oe25kUqKipG9bxD46sGsrG6hFBERESk8OxXAZ8GfqAoRERESs4KYPsNHwpGD9BrP25mP9z4QXf/NvD2tzzyh3S69aMD8YaxWGw0hD0807liIENTAUtERESkMH35TkgfBS8oChERkZLyOrDHWx8IQ99jIF7YjBcaG5sbNn48Hq9bY+ZNb/nND8fjtadmMi3/2tb3jMV6bHt2zz1fXj6QoekSQhEREZHCNDqArysGERGRkrN404f8wHy+YSbT3AK24C0PmZk31NXVjdr2Vw8P6uHBJ1OpG7oGsg8qYImIiIgUrvPaYS/FICIiUkr84Y0fMfPD8v2mEH4S6HzLu+5dVuapbX1hM9uk7e48MtAdUAFLREREpHCVA59SDCIiIqXE7uvhsRNTqVReazTpdOuDwM82evgzyWRd1ba8rjtT+tbHbaMCloiIiEhhq78LxigGERGR0mDWdWMPD++0dOniI/L93uXlI78JLH3LQ7Ew9Dn19fXlW/N6iURiZ+CITfvIDQPddhWwRERERArb6CzMVAwiIiKlobHxyudg00vs3Dkn3+/d0NCwGvzzb33MjMPWr1/9ha17xc6z2bS2tL6ri5sHuu0qYImIiIgUvoQiEBERKSlX9/BYbSo1pSzfb5xOt14FXPPWx8z4RiIx7Z39fS13q9v4MTOub25uXjXQ7VYBS0RERKTwjV8EVYpBRESkNASBzd34MTN2Xbp093MG5/25CFj7loeGAbP7sw5XMjn9GDM/auPHw9Cb89JmTRsRERGRwpeFuFIQEREpDXPmNN8P3L3pM/blfC/mnnv/lsXu/Gij9z5m6dLF5/f9VcJv9PDgimw2+HM+2qwCloiIiEgRMPiIgykJERGREvluN37aw8PvXLp08XmD8f6rVq37AfDERg9fkkics+eW/m08XnuqO+/Z+HF3fp2PywdBBSwRERGRYrHrXTBRMYiIiJSGvfZ6Zp47T276jH2/++5+edXW1rbGnU9s9PB2UPbr3v5dPB4fbsYve3hqDZT9JF/tVQFLREREpEhk4QylICIiUhpSqRu6gsC+vekzvqN7Z5pBOPM6k2n5B/jGl/y9Lx6v2+xaXEHQ9f+A/Td9xi7PZDIv5KutKmCJiIiIFI/TFYGIiEjpaGxsnmvGLRs/bsbpyeS0i7f074Mg+KpZcOp/f8A+3f9WVJz31tcwC051zz7W028mEtPOdueCHp56zqz8W/nMSusoiIgUmIXwe4OPKAkR6UF2BIwZDysVhYiISGmYPn36YbFY2A6Ub/RU6O51mUzrvEJo58yZNSeEYXAtMHzj58w4u7GxZX4+319nYImIiIgUj9gamKQYRERESkdTU9O9Zv7lHp4KzCwdj9d+aKjbmEjUTQ7D4M/0ULwC5ua7eAUqYImIiIgUFYNjlIKIiEhpaWxs/QnYX3t4qsKMqxKJ2llD1bZ4vO594NcBY3p4+qGuLvvEYLRDBSwRERGR4jJZEYiIiJQcX78+nAbc1cNzMeC3yeS0pvr6+pGD2CaLx2svMvM/AaN6eP7lbDb4UHNz86rBaIwKWCIiIiLFtHcL45WCiIhI6WltbV1eXs7p7jzZ4z6AW9369atvi8enHZ3vtkyfPv2ARKLuOjMuZdO1uQBWhGH43qampkcHKx8t4i4iUmC0iHukfbkKLimFjtwO21XAMGDnLOwCjDM4ADiE3CVwO2q4t1p2BVROhbWKQkREpPTMnFkztnux9AM38yuhO2ko+24mk1kykO9dX3/u29avL/ucmX+G3L5cD+w18Pen0y23DmYuKmCJiBQYFbAirWQKWL1xsHYYb3A68GHgKO2T9DvDQyfB/UpCRESkNHUXkv5m5kf18mudwDygIZ1uuS23i7B1ZsyYMT4IsjOB84DKzf+mPQ3he9Lp1gcHOxPtLIqIFBgVsCItEgWsjXXAwQ4fBxK97zDJfzlUT4KrlISIiEjpqq6uHlFZOeynwPl9+PXFwNXg169b57fMmzfv9d5+ua6ublR5efYodzsJ7HTgyD68x7+6uqy2ubn5paHIQwUsEZECowJWpEWygPVf98AunfA14GP0vNaC/M/nquAnikFERKT0xeN155j5L4Cd+vHPXgIeBV4DW2kWZt0ZBbYTsA+wJ32vCa115zt7773fJalUKhyqHMo0FURERKQQHJ7b0frUQmgwaKJvfwmMql0UgYiISDRkMs1X1tTUXDtsmKXAPknfbsi3y//2Fxz3rT1/yRbEYnxi9uzmh4Y6BxWw3sLB7oMxa6EyBpUGo7IwBqiIwTqHN0JYmYVVw2DlkfCGUhMRERlYk+D+x+CYN+BXlrusUDb1dkUgIiISHd2XBF6UTNY2uvMV4Ez6VsjaKu7cBHw3k2n+V6FkEMkCloN1wCEOhxgc5HCgwQEduRX+Rwa538H53/l0/z1HzrpDywLtsNzhUYNHgIfJ/fe+qtz/FhERka20P6wDku3wJPBtJbIhUwFLREQkkhobW+4Bzk4maw90ZxZQA+w2QC+/HOyqMAwb585tvaUA93+iYSGMC+AU4HiHk4Dd8/h2LwI3Gfw7hH9Pgif0MRORfmyvtAZWdEV6DaxePhPfM/iKkthgB27hxNzdG0VERCTCqqurY6NHl5/gbqeCTQWq6N/JSg8C17tz3apV665ta2tbU8D7P6VrEbwzhDpgGrkFyobKo0BrFpon5/6SLCLS28G6CljRpQJWD7rPnG4h9xdGybmvCg5TDCIiIvJW1dXVFZWVFfu5BweB72nmlWY2OgwJgFXACjOeBx4ZMWLdo5df3rayWPpWcgWsdngbUONQZ7nKY4Htg3Mz0NQF84+G5fp4icjGVMCKNBWwNuMBqFwDdwH7KQ0AHq3KLX0gIiIiEglBqXTkTnhHe26nfynwswIsXkGuYPgu4Ldl8Gw7/KwddtU0FBER6d14WBnAx5TEm4YrAhEREYmSoi9g3QH7tMPPgtyleRcDI4uk6ZXAp4AnF8Jvboc9NB1FREQ2bwJc5/APJQHAMEUgIiIiUVK0dyG8FXYcBt93mAXEinkH1KC+DGa0w6Xl8J3Dc9elioiIyEZi8PUQ3qMkonMjnsEwbdq07crLw91iMdvF3XZyZzt3tgMbHQRs99/fC0PfPggsBFa4e6e7rTSz9Wascg/XuQerzXgpm7Xnhw8f/kxDQ8NqpSvbqr6+evtstnyMezAmDNkBGGPGDmBj3L0CwMy3N7MAwJ1RQAWwxoy1b3mpVWHIeqATfAUEb5ix3MyWm/mKzk5bvv3227942WWXrVPq8lbV1dUjRowYsXMQZLcHG9M937YPQ98ebHQPc3A4MAJ8rZm9uSC4uy1z9xAgCGxZGPJGEITL3G1ZGMaWlZd3LauoWP9GMa3JJNr56ZWDtefWt/oRsEsJjsmzDl+ZBE2aniLRpDWwIk1rYPVBO7QDEyMew5Iq2EezoW9SqVTw5JNP7hMEnYeYBQeEoY8DG2fGOHJnweflkkwzXnf358zsaXeeB38c/P5YLHbv7NnNS3K7thJlyWRyNHQeGIbslVtsmT3I3S19T/A9wHYjV4wazEPE18BfAF4AngN70d2fBnsMso9VVFQuaWho6NTolc72ccmSJXsFQecBEOwPvps7e5Bb6mZ3YDdgzCA3ay3wbPf8exr8OXeeMfNnIXi6vHztww0Nbcs0etFTVAWsdjgU+BVwXATG5m9ZuFB3LRSJHhWwIk0FrL7tD1wA/DLiMTxYBeM1GzZVXV0dGzWq4p1BEBwFTAYmuPvBFN4yE8vNuC8M/b4gCO5x566xY5/uSKVu6NIolp7p06fvVF7eNT4Mg4OBg9052IyDgL2KsDtdwBLgMeBRd783CKyjrGzkgypsFfaxfzxes59ZUGXGIe4c4M4BZhxAca6r+Az4w8CDZsFD7jyUzdr9TU1Nr2qoS3gSF9EB3XSDXwMjIjQ+KxzOnwRXaKqKRIcKWJGmAlYfLILdwtxfZiPLoX0STNJsgFRqStnSpXtOdPcpQcAUd44DRhftvp9zE3B9LBYs2HPPcfekUqlQo1xccrewH34kuQLqZPDJwL4R6Ppad7sXwkXAIveyW+fOnfuAZsTQmDmzZqx7MNndJ4JVkTtzefsIdH2xmd/mbreZceuKFevub2try2pGlIaCL2DdDtuVw28czonwIDU7fKwKtI6CSASogBVpKmD1UTs8BBwU1f47XDcJTolq/6dPn75TLJZ9LwRngJ/G4F/eMlheBb/RLLjWveyP6XT6ZX36C091dfWIUaOGnWjGu4FjgCPRjRb+6wV3rjPjumw2uK6pqekpRZIfs2ad+/ZsNnYScJI7J5vpMvNuK8y4E7g5DP1vmUxrO7p8u2gVdAGrAyY6/I5o/MViS+6OwVlH5k7VFZESpgJWpKmA1UftuSUFPhbhCDJVkIhShxOJxM5mXR915yzwEyjum/hsjS5gATA/mw3+qMtkhlYyWXtgGPKeIOA97pxItK4S2RaPAde6M3/vvfe7RWcYbr3q6urY6NHlJ4Rh7ANmfjJwCLrBxxa587wZf4Pwr+Xllf/SzTaKS8FO8A44w2G+vgw28DrwgSq4WVGIlC4VsCJNBaw+aocLgZ9HOIJvV8E3S72TF1544bAVK974sFkYBzuZIr6D9gDrNOM6d+abVVzV2Ni4QpHk/7gpmZx+tHtY487pOrtlQDwHflUYMn+fffa/TcWsLUulppQ99dReU9zDM4EPU5o3NRtMa4AFZvyurGzkVSpmFcGGuEAP3uoM5gDlGqJNrAbOqoK/KQqR0qQCVqSpgNVHHfAeh79HOILzqmB2qXZuxowZ44Ogqx6CWvAdNeN7tRw8k83GftnU1PSo4hhY06dPPyAW82ng09BVIfn0jBmtZuGv5syZt1RxbCiZnH68ezgD+BDwNiWSF8vc/YogCOY0Nja3K47CVHAFrHa4CPgJEGh4Nivbvbj7HEUhUnpUwIo0FbD66C7YPwtRPlg/qSp3OVnJSKVSwdNPL35vGHIRufW9dClM/zj4P4PALttzz/3+rrNZtl59/blv6+wsq3FnmpkfpUQG9zjHjKuzWf/F3Lmt1xPhtYqSyeRo6JwWhv5xMw7T1BhUdwNz1q0LW+fNm/e64igcBbVjsBC+Z/AVDUvfdlIMLpyo24iLlBwVsCJNBaw+WgQ7h/BSVPcB1sPbjoXXSqEzubsI7j4N7MvAgZrdA+Jx4NLKyh1+e9lll61THH0zc+b0I8MwvBA4FxiuRIbcg8AvVq5cl2lra1sTnXlYd4i7f9ydWmA7TYMhtdLdZpt1/iSdvvJpxTH0CqaA1QGfcPiFhqR/O7AO8UnQpChESocKWJGmAlYftcNIYFVEu7+kiuJff6e+vr58/fpVcTP7EjBOszovnnL371ZUjMo0NDR0Ko6eJRJ1p4F/GThRaRSkZ9z923vv/Ww6lbqhq1Q72V1A/Rbwfg15wVkP1pLN2rd0J82hVRAFrHaoAZrRZYNbo9Pg/RPhWkUhUhpUwIo0FbD6t/+Qjei+w5+qcov3Fu3+ZyIx7Syw7wD7ayYPisfd7VurVq2d19bWllUcOclk7Qfc+RowSWkUwYbDeBT4emNjSxsldGlhPD7tUDNSYB9Gl04XunXu9iuzsu+n0+mXFccQbAeGugGL4OQQrgEqNBxbbYXB1InQoShEip8KWJGmAlYfLYCy0RDVM0q+UAU/LsaGz5xZc4J77CfuPlGzeEg8COFX0ul5f45yCDNn1pwQhnYJ2DGaEkV4AGvWEYb++Uym5YZi7sesWXUHZ7OeAs5EJ3IUmzeAr69cue5X+qPAIH/+h/LN74TxAdwBjNJQbLMXgAlV8LyiECluKmBFmgpYfXQH7BSDV6LY9xCOPCq3wGzRmD59+u6xmP8Q/Fx0hkEhuDoIwgujdre3GTNm7BsE4aXgZ2gKFD1397lhGPt8U1PTq8XU8GnTpm1XUWEp4JNAuYayqN0N9rF0uvkORTE4hmwH4lYYUQG3g+6oMICDeePjcPJZuUsqRKRIqYAVaSpg9dEdsE8Mnohg11+eCO8wKIo7zFVXV8dGj6640N2+A1Rq5haU1WDfKi8f8dNSXx+rurp6RGXl8C+BfxEtzl5y20QzP7+xsfWPxdDYZLL2LHd+BrxDQ1cysu72o9Gjx6R004z8G7JTFSvgclS8GlAOJ+4DX1cSIiJS6gz2imi/ryuW4tWMGTPGV1YOu8XdfoqKV4VoJPj/dXauXpRMTj++VDs5Y8a04yorh90D/g1UvCpFO7vbHxKJujnJZHJ0oTYykUjsnEjUtrnzO1S8KjUxM//SypWvt8+YMWO84sivISlgLYRzgLjiz8uO7dcXwilKQkRESvz77tAo9juEqwq9jalUKkgmp30pCLKLgMmarQXvEPfwpkRi2s8uvPDCYaXSqXg8PjyRqP1RENiN6GYBEeBJ9847Z82qO7jQWpa7y2Xn/eTWupIS3pYGQfaORGJaraLIn0EvYN0B+xj8VtHnb0wNmu6CMYpCRERKeAfmkAh2e9lK+FshNzCROGfPpUsXX+9uP0A36CkmBvaplStfvz0eP/egYu/MjBkz9jXruhX4PBDT8EaFH5TN+p3JZO1HC6E1qdSUsmSy9hLwa4BdND6RMAqsOZms/WUqNaVMceRl/29wxeDn6DTyfNu1C76rGEREpGQPU2BqBPv8h6mwtlDbl0jUfNCs7B7gRM3QonWEWaw9maybWawdiMdrPxQE2XbgSA1nJFW605ZM1n5hKBtRU1Ozw1NP7fEPdy5GdxiM3j6Kc8FTT+1xdSFf1lqsBnUR93b4EPBHxT4oQodjJsGdikKkuGgR90jTIu59+4wcaPBwBLt+UhUsKLRGpVJTypYs2eP7Znwe3WGwlA4Tfldevvb8hoa2ZcXS4ni89itmfFfzUADMuHyvvfa7MJVKhYM7D2v2D4Lgr+4coFGIvHvcy96TyWReUBQDY9CqwbfCCOAninzwxjaAX7gq/iIiUno7Lx+NYLfvK8TiVSKR2HnJkj2uM+MLKhqUGj+7s3NYezJZe2Cht7S+vr48kaibY8b3NA/lzRnsXLBkyWNzqqurB+0y0kSidoJZcIuKV9LtcLPsgmTynN0UxYDtAw6Oitzd8fZR5IO40YZJHZBUEiIiUiraodzhYxH8Tr+00No0Y8aM8e6dd5hxgmZmydrP3W6Nx2unFGoDL7zwwmHr16/+I7j2eWUTZhavrByWSaVSeT/ujcdr3wVcD+ys5OUt3+AHuZfdMH369N2VxbYblALWHbATcKHiHhLffECLqIqISOmoBvaMWJ9f7oQrCqlBiUTdaUGQvcVMf5yMwMHXjmZcm0jUJgqtZfF4fPiqVa//yYzTNU7Si9qlSxf/LL9zcdrRZlwDbK+4pQf7x2LZa2tqanZQFNtmUApYMfgcWrh9qOyxBqYrBhERKXbdyxF8J2r9NvjRsbCmcIoGddXgV+tALVIqgMZ4vO4HFMgletXV1RVmnX9y5z0aHumDTyYS076an23itEPNgr/peFe28G0+vqIi+FM8Hh+uLLZe3gtYt8N2wMcV9ZD68gLQbTxFRKSoDYOvAuMi1u3nHX5ZKI1JJKbNMPMrgHLNyAgefpl/KZGou6K+vn6ox99Gj66YDXaaRkX6MW2+k0zWDugaitOnT9/dzP4BvqPylS1vQznBLDtHSWy9vBewYrlLB8co6iE1bjScpRhERKRY3QnHOnwhav12+FYVrC6EtiQStR8Ha8zt3kl0+dmdnauuHMoiViIx7XvuVqexkP7WD9zJzJgxY/xAvFh9ff3IsjL/M6AFuqU/29CaeHyallfaSnktYD0GwwwuUswF4UuKQEREitHdsHsAvyd6azo+aNBYCA1JJGo/T+5MMN3dWAD7SFfX6vnV1dWD/plMJmvPAvuyxkC2UmUQZH9fV1c3altfqLNz9Wx3n6hIpd9bULMfJ5PTj1ES/ZfXnZA34P3oLgyF4tAO0AZWRESKyu3w9i74B/COiHXdgU9WQedQNySRmPYN4EcUyNpHUiAT1PlQZeWwtsEsYk2fPv0Ad2YrfdlGB8Zi4Y+3bbtYmwDOVZSylSrcw5aBKKRGTZDnF9epvYW1J6zxEBGRotEOe5XBDcAhEfzOzlTBgqFuR+4yB/uWZqNsxgcqK4f//sILLxyW7ze68MILhwVB2AaMVuyyrczs/Jkza7fq7pXxeM3+wM+VomyjceXl/kPF0D95K2DdATs5uitIgTm3XYuuiohIEVgIU4B24KAIdv9Fgy8OdSPi8bqPmNmlmo3SOz9j5crXW1KpVF7/ML5y5WtfM+Mw5S0DxMKQX27FGTBmFvwW3XFQBmLr6Xw8mayZqiT6Lm9fNDGoIXprVRS6XYB3KwYRESlUt8KIdrjE4F9EcxkCN4hXwStD2YhEom6ymTejNa+kb85csmTxJfl68WSy9nCwixWzDLCx5eX+9f7NxboZwImKTgaIuQe/SKWmlCmKvsnbTonBOYq3IOlabRERKTgO1g7VFXAfcDEQ1Z25n0zMrfk1ZGbNqjsYuAYYqZkpfd73N76Qu1PlwL90GFoDuopA8vHd43y2+5LALYrH42PcdcmXDLh3PvXUnucrhr7JSwHrZhjtcJTiLUinuhZhFRGRAvEYDOuAaR1wFzAf2DeyBQBYOAK+MpRtqK+v3TWb9b+D76jZKVvhsq1dV2hzEolpZ5m5jiskX8rNYt/p0zbaOj+HblAmeeDu36qvr95eSWxZXgpYI3KnVeo0uMK0y0J4p2IQEZGhMh9iC2FKO/x8GTzj0AIcHvFYnovBh8fD+qFqQH19fXlnJ38AxmqWylaKhSFXJhK1EwbixXJ3OLTvKVbJc/ngrC3N2UQisTPYp5WV5MlOnZ3DL1QMW5aXApaDFiIrYKbxERGRQbIAytphrw54Tztc3A5Xj4OXLXeHvQuBtykl1gTwwSPg2aFsRGfnmh8AR2s4ZBtVAn+urz93mz/bo0cPjxPhszJlMA+P+Fqvx7fe9Vm0cLvklX/6gguqNce2IF9nSZ2kaAvaVOAXikFEpOB8sh3OLJH9ix26f0YDuMZ2c7LAjAm5Oy4OmXi87v3gn9VwyADZY/36WAZ4/zZ8/M2dzyhKGSQfjMdr9s9k5j228RP19fUjOzvX1CsiybOd1qwZ9jHgx4qi9x3MAXUv7LAe3eK2kBlMcTDT8YSISKHZvftHosENLpgIbUPZiOnTp+9l5hm0RqYM5P6mcXoyOe2zjY2t/29r/n0iMe108IOUpAySIAiCTwOf2PiJzs7VdYDWBZT87xQ4F6RSqZ+kUqlQaWzmgzrQL7gut76Sbrlc2HbsgHcoBhERkSH1hYnQMJQNqK+vL4/Fsldq0XbJz8GY/SCRqJu8Nf/WzD6hBGWQiwfTN3MJl86+kkFhxj5Llix+t5LYvAE/AyuAA3RaTxFsoOFA4HklISIiMhTHSXxuEvx0qBvS2bnqu2DHaEgkT8ohvDIejx+ZyWTe6Os/mjXr3Ldns5yi+Hr1ohmL3e0Z9/B1CN4w43UzunP2tWFoawCCgB3C0CuDgFHAKHd2MmMPYJw7++TGSYDKtWuHnwlk/vtAPH7uQcAERdOj9WBPgD8GvGLG6+7+mjuvB0HQFYZhFwQrAMx8e/fc/AsCtnNnO2B38H3B9gWGK86cIOB84B9KomcDXsDqLoxI4TsQuEExiIiIDKos8LFJMHuoG5I7M8Y/ryGR/LK9g6CrATirzx+SbNnZ4LqjeU6XGXe42+1mfifwyPDh6x6//PK2lQPx4vF4fHgstv4w99gkdz+Z3Fq5Y6Iadhh6grcUsMzKztWqK0DuDrk3g93szh3uwSOrV69e0tbWlt3WF06lppQ98cRe74zFwolmPtXdTiXCVwu5c/rMmdU7zpnT9pqmXQ/fKAP9gu3wR+BDirbgB/6nE0GLtYoUoIXwe4OPKAmRkrPW4exJ8Jehbkh9fX15Z+fqhcDhGhYZpNLAh9LpeX/uy28mErW3AMdGOKxO4O/g89zLr+3P2WsDUUxYsmSPU4LAa9zto8DIqNUPstlgz6ampme75+J9wCERnYcOdgOEjeXl669uaGhbNliHqsnk9KPdwxrgXGCnCGafTKdb0vre6GFyDPQLtsMD5NbBksJ2TRWcrhhECo8KWCIl6Vngo1VwRyE0Jh6vvdiMSzQsMoieWb/ex7e2ti7v7Zdqamp2GDYseBmIRTCjlWb8MgiyP509+4oXh7ox9fXnvq2zM7gAgouitE6eu38ik2m9PJk8Zzf3smeI5g0u/hIE9tU5c5rvH9o5WD9y/fpVcTO+ALZ3lI7V0+kWHav3IB+Lre+mWIvCropARERkUNwSQlWhFK+SyZpxZnxDwyKDbI+KCvveln5p+PDgJCJYvDKjLRbL7tfY2PKlQiheATQ0XPFKOt367SBYuz/4z8ldAh2F0fgggHvsVKJXvHopCDgjnW754FAXr3JzsGF1JtN6uXv5wWb+ZWBVRMbhlGQyOVpfG5vKRwGrUrEWBX0gRERE8suBn4+Ak46CFwqlUWEY/IroXRYkheGCeHza0b1+aJxTI5ZJl5nNamxsOatQClcbmzOn7bV0uvUisJPJnU1a0syYUl9fP9KdKdGaivZwNhtMmDOn5W+F1rJMJrO2sbH1EvdslTv3RmAwKsKw8136ytjUgBawFuTuHqAFF4uDClgiIiL585LBB6rgovG5xW8LQjJZO80M3aJbhuzYw8wa6uvre7vr3dERyiNrxkcbG5vnFENj0+nmG93LqoD7S3xcKrq61h5rZhMjNBefco9N/e/aX4Uqk7ni4YqKkceAX1vqA2LGSfrK6OFLZCBfbHsVRYqJxkpERCQ//lwOh06EvxZSo+Lx+HB3rXvVB+vMrMPMm8G+bmYJdzvdnalhGFaFYVgFHGcWnOru08A+C/wCuB54RfFt0aFdXas+0dMT1dXVFcDB0YnCvtLY2PKXYmpxJpN5IZsNpoA/UNpjE743QnMxG4Zek8lkXiiGxjY0NKyurNzxg2b8o7SHxafq66KHreZAvthCGGfwuGItjk/EE1B+VmSuZRcpHlrEXaRoPefw5UnQVIiNSyanfdrdfqph6tFDZvwxDPnXqlXr7mhra1uztfvWicS0g8FOdOdDZkwBKhTvJl5Zv9733XhB92Sy9nB37o7Ejrhz795773dkKpUKi7H9M2fW7ufOne7sUKJD9AYwJiJzsTWTaakttnbH4/ExQdB1hzsHlOjQhCNGrNv+8svbVuor438G9HI/hxGmTIuFjYcRgD4QIiIi26bT4Bdr4JvHw4pCbOAFF1RXrlljX9ZQbWC5uzeHYayhqalpoNZU8XS69UHgQeBXNTU1O1RUBNPNOJ9InVm0RW8rL7fPw4Y3E3D3Q6OyZnYQeKpYi1cAc+a0LE4kpn0KrLlEh2hMdD6O4Y+LsdWZTOaNeHxarZndTn7W9h7yzcSqVRWHA7foK+MtoQzkizmsVqRFwx+ANYpBRERkm/w1BuMnwmcLtXgFsGZNxUXALhouAJab8a1168K9M5nWTw5g8WoT8+bNez2TaflZOt0y3sw/AtE4u6gvzPjMrFnnvn2jh8dGpPurRo3a8Zpi70Q63doK3KzZXNSfxKczmXlFu13KZFoXAo2lOjqxWHCE5uiGBrSAFSvgHTfZxGpdPigiIrLV3nA4tQrefyQ8VsgNramp2QHs8xoyAOa6lx3Y2NiSmjdv3uuD+L7e2Nj6x7Fj95sInIfWygKozGZjX9voYHr3iPT9xssuu2xdCfTDwb6rqVzUQ3hjsfcgFrPvU6LHte5M0Bzd0IAWsFbocrRiomKjiIjI1htj8Nd2uHohTL8dtivUhg4fHnyeSF0O0xN7zZ0Pp9Mt8aFcqDiVSoXpdMtss67DwRboY0R9Mlkz7i3/f49IlAzcnyqVvqTTzf+kwIv40suW0Xi22Pswe3bzk8A1pTlCfpBm6YYGtIA1FdYCnYq1KKiAJSIism2GAWcYzC2DF9th/p1wYiE1sKamZgd3PhXxA7Rbslk7MpNp+VOhtKmx8crnxo7d9xSwrwNdER6eCvfgzbXZ3O3t0ZiTwUuldIQNfpW+DorWqyUxCd3aSnFw3NlHU3RD+VjsTIWR4qBxEhERGTjDgeoAbmiHh9vhontg1JA3arglgcroDos17rXXM1OampoK7oyX3NlYzd81C94LrIrwZ6e2rq5uFwAzHxGJWWk+rMQOKa/VV0BxcreSmItlZV3/BLz0thW8o7q6eoRm6lu2Nnl4zecUaxFsrCj+00VFREQK1IHApZ2wtAO+MlSFrFQqFbjbBREeh1+l082zUqkbCvoMp8bGpn+HoZ8GLI/oOA2Pxfzj3f87Egdq7pTUWl+VlWNuR2vrFuts3LMUejF79hUvAotLcICssrJCZ2G9xYAXsAweUaxF8EnQOImIiOTbTg7f64Ql7XDxY7lLDgfN0qWPvQ8YF9Hsf5ZOt3yCIvmL/Ny5rbe4+ylgr0Vyv9T4eDweH05ECljAMaXUme4F6Zdok1+M/LgS2pKU5PGtWWw3zdP/GfACVqjCSLHQOImIiAyOtwGXLIMHO+Ajg/i+n4zk4ZjTmk63fJoiu5wkk2ldGIbhB4D1ERy2t0NnDWAR6e++M2bUTCytg2wt5F6kIzc+Hq85okS2/iU5B92zO2me/k8+LiFUYaQYNlUaJxERkcE2zuH37XD1nZDXyzaSydoDwd4dwYwXrVq17rxibXz3mViRLDya2afBInMZZRAEnyutg2xe1ya+WD97sS+VRj9KdQ7ajpqlb9l2Dni8KowUhTKNk4iIyFA5I4D72uEiz88fE3H3C4jO2Sz/9XIQhB9pa2tbU8ydyGRaf2vG5RH8XBwKHqVLXs+Jx2vfVTKH2GYrtWkvVn5WPF57agn0o0RvUmY6A+stygb6BdfCg8NztwMuU7wF66XD4SXFICIiMmS2By5th/e0Q10VvDJQL1xdXV1hZnXu0Qo0CEjMmTNvaUnsoJeN/HRn5+pjgSMi9rmoiFBfzcxaE4nExHQ6/XIJFA/+n1kwv1QGxz38MXB4dOYiLdOnT59UiHds7cd3wFVhGNxfeoMTLtEu01vyyMeLtsMdwFGKt0A3yPC7SXCOkhApTAvh9za46+SIyNB6JoSzj4JbB+LFZs6sPT0M+WvEdml/l043l9S+zYwZNRODILgd/VG41CsHHWVla09uaGhbpjQKRyIx7fdgUdsXe8ysa0pj45XPaQZIoQry9LoLFG1B0/iIiIgUjj0CWNAOFw7Ei4UhZ0Usv2VmnZ8ttU7NnTuvw52f6uNR2tx9YmfnsP8kEufsqTQKib0SwU7v7152Z6ndYEBKS14KWKYCSUErg+uVgoiISEGpAH6+EBoXbMMZN9XV1RXAByJ1mGn2xVI9Y6CiYmQKeEIfj5J3qHvZHTNmTDtZURQKfzWiHd89CIIbE4na84neOopSBPKzcCj8B1ineAvSc0ei29yKiIgUIoPEaGhbAMO35t9vt92wU4ExkcnLeHSvvZ5uLNX+NTQ0rHa3lD4ZkZjLuwaB/TORqP11ff25b1MiQ8vdXoxw90cBv04kav8dj9ccodkghSQvBawqWM0AreMgA7wxhmuVgoiISEH70Gj4e3tuofd+ieDlg99OpW7oKuUOrlq1dh7wkD4WkTk2O7+zM/ZYPF57cfcZlTIEYjEWKwVOMgs6ksna+TNn1oxVHFIoG8m8MLhC8RbgxhhalYKIiEjBmwL84wGo7Os/iN7lg/bwihXrriz1Xra1tWXBv6WPRKSMMeOSysphDyQStR+vr68fqUgG3SOKIFcvcKc6DIMH4/Fpv5o1q+5gRSJDOiHz9cKd8DtgjSIuKM8thhsUg4iISFE4eg38ua+XE44aNWpkbhcsGtz5fq64U/rGjt2/DZ2FFUX7AZd3dq5eGo/Xfru+vnZXRTI49tzzmSXAeiXxppFm9rFs1h+Ix2uvnTmz9vTq6uqYYpHBlteF2dpzRayzFHPB+L8q+JJiEClsC+H3Bh9REiLS7c8r4MypsMVL5eLxumoznx+BTF51L9sjk8msjcokSCTqPgX+M30cIi1rxr+Als5O+1Nzc/MqRZLPz1ztvcChSmKzXgCf784VmUzrHYArEsm3vBawOuAMh6sVc8E4rAruUwwihU0FLBHpwW+roL5vB111V4KfXeJ5/DSdbvlslCZAPB4fY9b1LKDLyQRgJfAnM/4EFf9sbGxcoUgGViJR+xv6uN2NOneeDALmm4XX7Lnnc7eW+tqEMnTyWsBaAGWjYQmwu6IecndWwWTFIFL4VMASkc34eBX8eku/VF9/7ts6O2P3A28v1SBiMXvn7NnNkbukLh6vnW3GTH0UZCPr3LnRjKvNwmsaG+c9oUi2XTJZF3f3tJLotzeAf4Jf415+bSaTeUGRyECxfL/BQviMwU8U9ZD7cBX8STGIFD4VsERkMzqBk6rg5i39Yjxe9xEz/31pxuC3pdOtx0ZxAsTj0442s9v0UZAtfEaWgC1wtwVlZeGC2bNbn1Em/ZdM1h7ozsNKYlvZw+A3mXFTV1dwQ1NT07PKRLZ6NuX7DdpzpzkvAXZW3EPmoYlwiEGoKEQKnwpYItKL54GJVbn/9iqRqL0OOKkEM/hCOt3y46juuycStU8Be+ijIP2wGLjVzG7r6rJb16xZ80BUboCwrRKJaU+C7a0kBtQT7twGfgdwe0XFqLsbGho6FYv0RVm+36AKVi+Enxl8V3EPme+qeCUiIlISdgXSDu+1LS+Y+wVgIXm86/RQCMPYHyM8/k7ujPpP6qMg/bAfsJ+7T4/FnMrKYcsTiWl3dm8fFpn5Il12uFl/AT6lGAbUODPGgU0D6OxcvTaZrO1wp93M7ga/q6xs5IMqaklPbDDe5HbYrgyWAmMU+aB7fAUc1Jc7F4lIYdAZWCKyJQ6zJsGcLf1eIlHbDNSWTL+dezOZlsOjPPbJZM1U9+B6fQpkgC034z537zCzjmw21rHPPvs8lEqlIv1H8ESi7iTw6zQ9Bl0n8JiZd4ShdQRB0DF8+Jq7L7+8baWiiTYbrDdqhy8BP1Dkg76De+4kuFJJiBQPFbBEpA+WhXDoUfB0b780c2bN2DAMHgaGl8iu6/fS6eavRXngU6kpZUuX7vki+I76GEierQDuBhYB9wD3VFbu8MBll122LioB1NfXl3d2rn6aEr4pRhEJgcfMuCsMuRu4JwyD+7SmVrQMWgHrAahYk9sAHqzYB4fDTVUwpQ+XGIhIAVEBS0T66JoqOH1Lv5RI1P0Y/HMlseNqwamNjU3/jvrAJ5O1f3TnQ/oIyBDoAh4Gu5fuopZ77J5SvtNcMll7iTsXa+gL1qvdc/E+M7sPuGfFirUPtLW1rVE0pccG883uhBMDWDDY7xtR6w2OmAgPKQqR4qICloj0Y0fuIxOh1zWhZs2atkc2a08A5UXe3c6uLtuhubl5VdTHPZmc9ml3+6k+AVJAXuLNgpbfFQTWsdde+z1WCpcgzpxZu18Y8qiOYYtKFlhsxr3ufo8Zi4IgXDR79hUvKpqi3+8ZXB1whcM5ij7vLqmCLysGkeKjAlakv5RvdLi9hLq0nUOsu287AG8Ddur+7646GBgQjwCHVuXWC9msRKKuFbymmDvqbndmMs2TNeQQj9ccYRbcpSSkwC0H7jKjA1gUhtmOvfc+8NFiLGolEtP+AXaahrToPQt0uLPIzDvMsosaG698TrEUj7LBfkODzzmcRm5HVvLjyXLd9VFEpPgO0OEfVXBJFPq6AIZvD+Mc9gUOdTgKmATsppnQLwcC5wGX9/ZLYZj9SRAERV3AMuM/Gu6cvfc+4N6nnlr8urv2p6WgbQec6M6Juc9wjKVLF6+Ix2vvMqPD3dvLyrhp9uzWZwq9I2HId4IAFbCK3+7A7mZ8AAz3MuLx2ueBRWbWAeHC8vL1/2loaFumqAp0X2Ao3rQDzvDcLUn1l9eB1xnAiRPgNkUhUpx0BlakfTkqBazNaYd9Hd4LnG4whZJZfDyvXlwL+x+fW3B5s+Lx2hvNOKGI+1mTTrdcoeHOSSRqrwNOUhJS7Nx5Pgi4Gezf2Wxwy9y5cx+kANfwTSZr/+3OyRqxkhcCDwM3u9u/zcpuSKfTLyuWwlA2FG86Ef7aDj8HLtIQDPAXAFys4pWIiBSrKngc+AXwi1thxwqYBswEDlc6m/X2YfAp4Hu9/VIQ+KXuVrQFrCCw+zTUbz3ot3vNXAUsKXpm7OpONXh1EGRJJGqfc/e/BIHPX7Gi86a2trZsgWyFvg7hSegkjFIXAO8E3mnm9dDpiUTtA2B/CMNg/ty5cx9QREO4vRiqN26HcocbDY7RMAyYaybCGbrroEhx0xlYkRb5M7B62W84Hvg2MFVp9OilFTB2Kqzd3C9UV1dXVFYOe47cOmTFZl15+cjRDQ0NnRrqnGSyLu7u6Yh0dyVQqVGPpBfc/fdmQdvYsfv+Z6jXz0okahuBhIYlyvwBYL57OD+TueJh5TG4gqF64yroDHN/VX1NwzAglqyHOhWvRESkFFXBzVVwkuUuL3xciWxil+22cJOctra29cBVRdq/h1W82ugQyv3eCPX2MnKX9Uj0vMPMPgF+w9Kli59KJKZ9tb7+3LcNXXPKLzbjdQ1LlNl4sG+ZxR5KJGo7ksm6+IUXXjhMuQyOYCjffDI8CbwPWKWh2CavGrzvWBUDRUSkxE2EfwCHAT8hd5ts+e8hPnzGt3h2vRXpGlKmv3JvfBhdPvJhIvKHS3eeAX6jUY+83cG+29kZeyqZrGuYMWPG+MFuQDqdfjkMTcvgyH9NcPf0ypWvL0kma7+eSCR2ViT5FQx1A6rgDsv9xbBLw7FV1jh8cCI8pChERCQKqmB1FXwO+CC527RLzmF3bWFR77Fj9/0P8EzxdS1cquHdUENDw2rgxSj01Yw9urrsC2Y8qpEXYIS7nxcE2fvi8dprE4m6yYP55plMc7M7rRoGeYt3uPNt6HwqmaxrSCTO2VOR5EdQCI2YCH+13LXEuvytf7JAzSS4RVGIiEjUVMHfgtxamkuURk4I03t7vnv9mCuLrV/uqIDVs0jMfTP2aG5uXgU2DVivYZc3p4bxbvDbEom6K2fNqttnsN64s9MvABZrCGQjw939PCh7JJGo+24ymRytSAZWUCgNmQgtBhejIlZfZR2SVfAnRSEiIlE1AR4ETgSeUhoAfLgdRva68xeEVxdbp2IxUwGrx6P3aBSw3G13gMbG5nbweo28bPxRAD87m/VHEona3wzGGlmtra3L3bPv13pYshkjwL/qvv6JeLz2olRqSpkiGRgFFeRE+FE7vATMLrS2FZh1DrWTinchVhlkd8KxMTgkKv3Nwv1Hwa0aeZFoqIKn7oT3BXATsGPE4xjt8AF6Octq+fLO2ysrh60CRhVLpzo7g6c103sUicKeGXv893+n061zE4naIwGtQyQbKwfqOztjH4rHa8/PZFr+lM83y2SueDiRqDsT/B/d7y2ysbeZcenSpXvMmDmzbvqcOc33K5JtU3BFoiqYuxDeMLgCGKEh2sRKhw9Pgn8rCumrAM52+FSE+vtzVMASiZSj4IGFUGvwN7a4kHnJq6GXAlZbW9v6RKL2JnJ3dCwWr2qWb8qdVyLSzz3e+v/Hjt3vs0uXLt4FOFezQHqwixl/TCRq55aXr7uooaFtWb7eKJ1uvj6RmFYH1oJOwJDNOzIMvT2RqP3a2LH7/aT7cn7ZuuO8wjMJ/hzmdqqWaYg28EII71LxSkREpMf9h787XB71HAxOewAqe/0d8+uKqU9r1qzRnZZ7FpXC3sjq6uo3/7CdSqXC8vKRM8y0lIb0akZn57B7E4m6k/L5Jul06+/crQ7dGVd6Nwz40dKli6+Px+N7K46tExRqw46CG7NwFHCPhgmAO2NwzFFwt6IQERHpWSd8AYj65WYVq+GE3n4hDIuqgLWmra1tjWb3psyic2baDjsMG/PW/9/Q0NC5YsW6M8ktPSKyOXuB/yuRqP18Pt8kk2m+EvwcYK0ily040azrrmRy+imKov+CQm7cZHh0BRxN7nKgqPLu/h9/pO6yJCIi0qtjYY3BN7WDxym9H2zNu4fiOXtHZ19tfqQjk8369dntN36sra0tm0631IN9T3NBtnDM+6NEom5OdXV1Rb7eJJ1uvSoM/RSIxqW9sk3GuId/TyRqz1cU/f8wF7SpsLYKLjKoA1ZGbHxedTijCi6qgk5NVxERkS17HJqASC+U6nDqln7FrGjO6l6tWd0zM1ZFpa+xmG23ubmcTjd/DbgQ6NKskF42e8lRo4b9a/r06Tvl6x3mzm29JQg4BrhPecsWlAG/TiRqf1JdXR1THH0TFEtDJ0ILcITB3yMyNlcAh06CazRNRURE+u4syBpcFvEYxrfDrlv4nSJZpsHXa1b3rKvLIpNNNhsM6+35dLrlF2HoU4CnNDNkc8w4IRYL/zNr1rlvz9d7zJnTsnjlynWTwRqVuPTBZ0aPHnZFKjVFNwHog6CYGlsFj0+E91nu9tCletvgxQbvqYKaKnheU1RERKT/OnN34YvymTsGTN7C7xRJActUwNqMsrLsuqj01d23eOnX3Lmtt6xbFx7hzu81O6QXB2ezwXWJRGLnfL1BW1vbmnS6eaa7T0N3UZUtbt+oXrp0jyadibVlQTE2eiJcPQIOcfgRUCpf3CsdvjYCxk+EazU1RUREtt7RsBy4KtI7xHDEFn6lWG6UowLWZnR2BpHJJhajT2sXzZs37/VMpuVM4GPACs0S6ZmNh87r6uvPfVs+3yWTaZ3nXnYI8EdlLltwbmXlsMZUKhUois0r2nDGw8pJ8MVy2Av4P4r3r6wrgJ+HsP8k+N547aSJiIgMzOFJxC/DNzi81x2QFeseoij2OzzUbO5ZRUU2MtmYWb+OW9Lplt+YdR1EbhkS12yRHhza2Rm7tq6ublQ+3ySTybyQTrd8xIwPAosVu/Ri+pIlj/1SMWxe0Vf3DoeXquBLwFiHbwFvFEnTX3X4VgWMrYKLjoIXNB1FREQGThksiPiB6xG9PdnW1ra+GA6mzIIKzeaehaFHJht37/cNjRobr3wunW6pMwtOgKK5aYEMrgnl5Z4md9l1XjU2tvylsnKHQ9z5UhEds8qgf+fZx5LJuk8oiZ6VzOlpVfDKJEgBezvMcripAHdas8C1BrXAXpMgdRi8rmkog7HfpwhEJGoOh5eI9t0Ix94FY3ovCvBMwX+BuauAtbkd+SA2LEK7Mlt9R+7GxqabV65cV+XuM4HHNXNko+1gdSJR99XBeK/LLrtsXSbT8n/r1oXjzPg+sFIjID187/00kag7UUn08L1Xah2qgmWTYM4kODEL+wLfBB4Z4mbdA3whgL2q4D0TobVKt4SWwdwI6tJUEYmujgj33bpgn15/wXi2CLpRrmncsyidgQVlndvyr9va2rKZTGvj2LHPHORu08Ee1gySt+wtfyuZrP3AYL3bvHnzXm9sbPkqlI9z5ztooXfZUDl428yZNWMVxYZKeoGwyfBkFXy7Cg4CdgPOcmgg/3cwfB5oMzg/zBWtjqiCH0+A5zTlZEh2/UvnZgciIv3d/j0W8Qj27PWQrQjOwIJwuGby5sbPIpSNrx2IV0mlbujKZJqbx47dd7y7nQvcoZkkQODOnFmzzn37YL5pOp1+OZNp+UZXl411908BD2oopNvO2WzQpEXdN1QWlY5WdReVun+4C/YP4VCHA8n9HAQcAOzQj5d9hdzZXQ87PAo8EoO7J+S/QCbSX52KQEQiKtIL5hrs0esRW2DPuBf6VeY2RtO4Z+7sZBaNvoZhdtlAvl4qlQqBK4ErZ82qOzibDT8GlgQqNbMi623ZbKwB+OBgv3Fzc/Mq4DLgshkzaiYGQVAP1Gg+RpsZJyxd+vgngZ8rjZyyqHb8yNxfZDf5q+ytMGI4VGZhtMGYIPe/KwzWhrDSYHkIy1bDqqmwVlNIioTOwBKRqIr6ejd79F4U4JkiKIBsn0pNKUulbujSdN744CbccRDWni6Mg5YyX56v1549u/kh4KJp06Z9vbycWjOrAyYTlXDlrT6QSEyrTadbW4aqAXPnzusAzk8mk58Pw3XnQDDLzI/S0ESVf3/mzNpr5sxp0R0siXABa3OOhTXkfl5WGlIymz1Yrz2wIjog0Q6zyEBu/96IeAS797q9saJYd8WWLt1nB7hB+2abCHaMyn1ali3rWp7v92htbV0OXA5cPmtW3T7ZLOe4+zlmHKa5FqnP1c9mzqy+Zs6ctteGshWNjY0rgN8Cv43Ha/Y3i30Y/CPAUWhfMUpGhaE1ACcpihJfA0tE3vygaxH34qI7bokMkBBWRTyC7Xt7Mpu1NcXQCbPOHTWbe7RTRPq5qq2tbVDn6uzZzU+m080/yGRaDg/D2CHgXyO3XlaoaVfqfMcwHPa1QmpRJjPvsXS6+YfpdMvR2Wywp5l9Erge0Jmp0ZiTUwfzJgMFflwrIhGgAlZxUQFLZICM0i3KR/S6Ixh0rSmOboS7aTb3cEjjvns0empPD+W7z50794F0uvV76XTL0V1dtiuQdOf3wArNwpL1iRkzZuxbiA1ramp6trGx+ZfpdMvJ2WzwDjPONrPfgi/RsJXy9t7+L5WaEvkr6HQJoUgEhLBO5xkX0W46VLhiEBkQD8CacdGOYGSvO4JltiabLYZuxHQr8Z6+L4x9InLo9nShtKS5ufklIA2kU6kpZUuX7nGUGSe7czJwNDBMM7MkVMRi2R8AZxVyI5uaml4F5nf/MHNm7X5hyKngp5jZVPd+3aBMCns7eNBTT+05C/h1lFNQAUskGnQGVjF9PWnnV2TAjIcRa6IdQa8FLPf1q4thkxOGrgJWz/aORjft6UJsVfeNBW7t/vlOfX39yK6uVceHoR0fBBzrzmR0F7ni3R9zPppM1h7Y2NjySLG0uXuh78XAr1KpVPDUU4sPdeddZhznzrvYwrqIUvBz8iv19fVzGhoaInuHeRWwRKJhtSIoKmMUgcjAWAWVEV8voddLCJcvZ01lERxem9lems0bqq6ujgF7RqS7zxRDIxsaGlYD/+z+ofsMrcPc/TgzOwbsePA9NXuLRuDOZ4CPFWPjU6lUCNzT/fMLgFmz6vbp6uJ4Mz+e3J02x6smUEx8z87O1WcCV0Q1AU1WkShs6uAVXUJYVN6mCEQGRgwqdUnu5o0aNcqLYQ1gd99Po7WhkSNH7g3Z8ojsyTxdjK3uPkNrUffPZbkCwrQ9slmOA44FOxY4HCjXjC5Y0xOJxNfT6XRJ3AV19uzmJ4EngWaAurq6UbGYTzBjshlHdZ81qD8YFLbPoAKWiJSycng5G6H+WhHfoMLBOnQGlshAinpBuNfLDIIgKPciqPAFAYdqKm/0XWfh4RHq7dOl0pPZs1ufAX7X/UN1dfWIkSMrJgRBcJSZHxWGTI7O2mZFYYR753nA90uxc83NzauA/3T/ABCPx98RBF1HudtREE4Gm8QW7mgrg2pSIlF7bDrdcmsUO68ClkgExOCVKBWwfAuXzBSy+3LFK22bRQZOpM/cMVjX2/NdXV0VsVgRbNedHRKJc/ZMp698WlM6Jwj8MI/M6YVhyY57W1vbGuCW7h8A6urqdikrC7sLCLkzY9Aft4ZuO2rUUqIFrJ5kMpkXgL90/wDYrFl1B2Wz4VFmdhTYZHc/DJ05OJSmk1t7L3J0kCQSAYfCGx25v8JH4oummBdBXwd763JPkQHdHuwf8f73ehOPIAjKISyKvgRB2WGAClj/E5UzsNavXLl+cZQGtvtOh3/t/gGwePzcA4Og7OjuhbiPBT9IH4FBc/CMGTUT586d1xHVr5LZs5sfAh4C5kLuzMHRo0dMhOxkdzsabLLWdxtUZ1ZXV3+qra0tcjfqUgFLJAIMvB1eBd4RkS4X7WnOAeyj9XpEBlTUD/J63bkNw7AozsACyGY5HPibpnT3EaX7ERCJP3k8GMWDtI2HO5O54mHgYSADkEgkdoZ1x0JwPPhxYBOBCn0y8rR/FgTTgA4lkdN95uDN3T8AJJPn7AZlx3cXWd8FHEoRL+tR4HYaNWr4acDVUeu4Clgi0fEyESlgGexRxM3fV1NVZICO+HJryr0r4jGs6XV7aTa6aLbtxvGa1TmJxDl7gu0dke7epRHfVPei4n/u/qG6unrEdtuVT8pmg+PN/rtIvC47HEDvBz6rGDavsfHK54D53T/E4/ExsVjXce68q7uoNZEivkqi8L4T/cOogCUiJeyVCPW1aAtYDgdqqooMjEW5s692jXgMr/f+dNeYIjqL57jq6upYW1tbNupz26xsalTWv3J3FbD6oPuMmJu6fwBIJmvGQXC8O8cBxwMHE5HT9vJgv2SyZlxj47wnFEXfZDKZN8idNfs3gFRqStmTT+52uFlwfBBwnDtTgJ2V1FZ7dxQ7rQKWSHS8HKG+7nwr7HgsvFaEbZ+oqSoyQAe+cKpS4NXenjQLtoeiqYRsV1k57HBgUeTnttuJRTRu28ju1sd463QXW54AmgDq62t37eri2LcUtCYAMSXVV7F3A79WDlsnlbqhi9xlmB3Az+heHL6rKzzGzI4nd8b0fkqqz3aPx889qPvy4shQAUskOgdyL0fpT27D4UjgumJq8wIYDozXbBUZsO1eXdRPNbAtFvLDMcV0QoaZn4AKWIBPiUpHOzv9Ho33wGhoaHke+H33D/X1576tqyt2mjung50GvqNS6mUy5s4YUgFrACN9y+LwjQDxeM3+ELwPeJ8ZJ6JLDrfwnRibSm5tvMhQAUskOgcxz0apvyFUUWQFrFG5v4TqlsQiA2ARHN69HYj20cEWClhmVlQHrLkDbS6N8pjOmDFjPGTHRaS7j7e2ti7XFi0/GhqueAVoBVqrq6tjo0YNe1cQeNLdzgRGKKFNtkA6Sz7PMpl5j5E7O+tndXV1o2Ix3h8EPsudk9Dlrz19i0duP0d3BRCJzkHMkoj1t+guHQrgPZqpIgMjCxcoBfAtrH9oVmxrhNmJM2dWR/oskVgs+5EIdXehPsWDo62tLZvJtNzQ2Ng63b1sNzP7JHC3ktnAvvX11dsrhsHR3Ny8KpNpvrKxseUUs3A/M74PPKdkNviWPyJqPVYBSyQ6H/Yno9Rfg3fdDtsVWbPfp5lKqAhkW90BBxgklAQ4LO31eWf3IutSufuwMyI9pk5kClhmdp0+xYMvk8m80djY/Mt0uuVIs+BU4HalkpuS69cPO0wxDL7GxnlPNDa2fLW8fOTeZnY+2NNKBYDx9fX1kbp6QwUskYjIRuwMLKCiDD5cLI29E/Ykdwlh1L2oCGQAdm5+gC7HBaBsi9t+370Iu/XhqI5n7q5yHBGZaoFl/61P8VAXDpr+nU63HAN+DvBC1PMw83GaFUOnoaGhs7GxucE9doAZ3wLWRTySYV1dK/eM2D6eiETBpFxhYHWU+uxwfhFtjBPo2n4A/UVNtslCONPgI0oCgHVHbvGA04qugOXOexOJRCRvvR6GQTxC3X1szpx5S/UxLgzpdOvv3MsONqMt4lGM1WwYeplMZm1jY0sKfAJwf5SzcI+pgCUipcdy99t+JGJ9PmYhHFXwXzy5bbEud8pl8YxSkK3VDnsZNCiJNz1lvVyWm0qlAmDvIuzXMLPOeNQGs/sykVmR+Q43/qWPcMEVDd5obGw5250v5b6yI7lHvadmQuFIp1sfHDFi3THgf4huCqEKWCJSsh6MYJ+/X+gNXARnFulB5MDvFqqAJVupe827PwA7KI0ch8d7e/7ppx/dkyK905g753cX4CKjq2v1h4tv0f1tGmVdPligA5PJtPwfUE80i1hjNAUKy+WXt61cuXL9WcAV0UwgiNSNTVTAEolWceDBCPb55A54f6G2bz7EHL6l2QlAJ7qEULZCO4wsg78BusX5hu7r9SjUy/Yv4r7tu2TJ4pMjVTVw+1iEupsNw/IF+ggXrnS6ZbY7343cfqVRqdEvPG1tbdny8pEzgBsj2P1RUepsmaa7SIR2fqN5BhYOv7kDbp0MrxZa28bBecBBmp0APGnQ5cpB+mER7Bzmzrw6XmlsKIB7e3s+DLMHmBXv0ntmfAmicZlZIlF7LPjUCE3f16Dr/Hi8tqg7YeYPpNOtfy3VQdp772e+vXTp7qeAHROViRmGHBiP115cvO0P/t7U1HRvKY5NQ0NDZyJxTh2U3Uu0zpRTAUtEStZ9Ee33rjGYOx8+eBZkC6VRd8HeWfihpuWbHlME0h+L4PAQ/owW1d2ce3s/uLaDi7x/JyWTNVMbG+dF4Uyd70Rs7u5sxiUl0I8/ACVbwEqlbuhKJms/7s5dRORGNGbsA8U7N4Mgu3pL3w3FLJ2+8ulkctq33O2nUdlYunsYpS8HXUIoEiET4Qng9Yh2//Rx8PNCacxjMCwLLcBozczunUJ4VClIXzwAFe3wjRDuQMWrzVk/HB7ewm5vCVxyGZR8YScer30XcJKmdFF+s5X8d3xjY8s9YH/TWGtOFoqyslENwEsRGtS1UZrBKmCJRKtA4AYdEY7ggg64zId42+cQLINm4DjNyg1yeVApyBbmiHXA+9fA3eTWjhumVDa7vb9nPKzf3PPV1dUxsMOKfk44xyWT095bquOYSqUCM52pW8S2i8S22X2OhrpIvhvMty/1PjY0NKwGvzJCw6oCloiU9AFgR8T7/8kOuKodhuQL/DEY1pErXlVrNm4ohHuUgvSkHcoXwkc7oMPhL8DBSmWL27r/9Pb8yJEjD6JE1s1w5/ILLqguyYWVly5dfAFwtGZ00do3Cp3s7PTryd2IRQqejYvEd6AHEbqLqauAJSIlfVCzUCnwYeCehTBlMN/0bth9WW7B4RoNwSa6uuB+xSBv2VbZQjiyA34CPGNwFXCkkulzfjf19nwsli2hOzba3mvWDE+V2hjOnFkzFvi+ZnNRe9usWee+vdQ72draupwtXrIsBbK9PCQKvayo6LotKiMaBLYySjNYBSyRiMnCzbljm8gba7CgHf6wEA7M5xvNh1gH1HfBA8C7FH2PHjkW1iiG6Oq+PHC/hXDuQmjsgGcNFjl8BthFCfUvzjC3rd/8L3ipbYv808lkXVUp9SgM7TdoncSi19kZHBKRrr6g0S6KbeV+8Xh8eKn3sqHhileJyFmB7vZilGaw7kIoEjFHw4vt8AhwkNIA4MMGH+yAa4HLHa6tGqAvvFthRDmca3CxwwGKulftiqD03Qo7joCdwtzP7sC+AYxzOKAjd3bVGFNMA+G+yfDqFn7nxBLrc8zd59XU1EyeN29e0d+sJB6vvRg4TVO5+AVBMBW4LgJdfUWjXSzH/13vIndFQClzct+D7yj1AXXPqoAlIiW/Rb/JVMDaYP/S4b3kfpa1w7UG13muqHJfXwtaDtaeK1RNBt5ncAYlssZMvhncohQA+EI7nFcqnyv+t9bcMGAkQPZ/Y/7mHqYMuF7vCFZfX7trZyf7l2C/9x82zOanUlPem0rd0FWsnUgk6k4D/56mccnsdZ0BfK3kv8eNEa4NerGM1emUfgELYEQUxrOszJ+P0vxVAUskggK4yaFeSfRoe+Ash7O6///6dngKeMbhGWC15S51W9v9u2UObzcY25G7LHF7Rdh/WbhVKQCwY/ePyLZs46/u7fn1632qWame62anLF265yXA54ux9bNm1R2czfp8IKaZXDIOmzmzZuycOfOWlnInw5AdTafQFoszyF2eX7Ilx1RqStnSpZG4C2jnsmVdkTr7UWtgiURQJ/wbCJVEn1QA+wFTDGotV/i7CLgY+Bgwy+D9wGGoeLW1Xp8EDykGkQHx4pFwR2+/YGbvLe0I/HPJZO0Xiq3VM2fW7pfN+t8hEgddUWLZbOxjEejnnhrqorFvIlH37lLu4JIle+/B/072LuXNy+NtbW3ZKE1eFbBEIuhoeNFhkZKQAnGDqaAqMlD+2tvnqbq6OkbucumS5s4Pk8naS4qlvbNm1R0chtwAjNUULsEDrsDPr6urK9klBWbNOvftZuyjkS6qreRFpdw7s65jIjKOkfsDsApYIhFl8HelIAXin4pAZMC27fN6e3677cqPA3aKxG69c3E8XvtDCvyv8MlkXVU26zeRu7FBFHWZ8Y8Sn4s7xGJ+fskOYFfZCdr6Fp33lNqdWzcSkbt++8NRm7gqYIlEVKAClhTKV68KWCIDZekEuKG3XwjD2AeiFIgZX0gkav+aSCR2LsT2JRK1H3f3m4C3RXjetrp7awTm4jdmzTr37SX6TT5Dm9/im5Lu4c8pwcvs4vH4cP63lm2pezCCx7AiEkXda6Q8pyRkiD02CZ5QDCIDoqm3ywdTqVQAXh3BXN7n3nnPjBnTTi6UBk2fPn2nZLL2j8DlROROWZvRFQR8N5uN3RmBvm6fzcZ+WILFgr3NeI82v8XIjkkkauOl1qsg6DqLiJxpHAR2e9RmrQpYIlH9ysod5FylJGQoOfxJKYgMzMfJoKm3X1i69PF3AXtF8jvP2DUI7J+JRO1lM2dWD+WdPi0erzsnFgvvcedDmrY0z5nTsripqekx4NUI9Hd6IjGttsSKBT9Ad80sZj+Px889qFQ6U11dPSIMSUVk7F6aM6dlcdQmrApYIhEWwu+UggwxFVFFBsY1E6HXHVkzpkU8owD4ZBgOfyyRqPvytGnTBvNufxaP170vkai9zcyvILrrXb1Vp1n43e7/7e69X/5aOuxXM2bMGF8KPUkk6k5y52xN5aJWaRZru+CC6sqS6Ezl8C9F5YYCZtwa1S9yEYmoSXAb8JSSkCHyTBUsVAwiA7JD99Mt/Y67v1dJAfiO4N+vqLCliUTtpTNn1h2Sr3eKx+Njksm6T8TjtXeb+d+Aycr/v/ORpsbGeW+5hNyvjUrBIAiy/5g1q66oD7JnzZq2B3grJbiGUgQdsmbNsD93rx1VtBKJutPAvxqVQQtD/hPFyVqmz6tIdBn4Qmgx+IrSkCGYf20GriREttndE+C6PnzqfgP+HcX1pjHARWHoFyUS0x6A4E9BkP3n8uWdC9va2tZs7aZt1qy6g8KQE939A9B1sjsVpkP8ja0Igq5vbHgwFrs2Fguj0v89sln/dyJxzpR0+sqni63xNTU1O2Sz9mfgHZrKJeMks2zbhRdeeOZll122rtgaH4/XHGHmV7hH53LWMAz+GtHjBxGJsoUwzuAxdEamDP4X0OET4d63PtYBn/Y+nEkiIht8luomQsuWd/Djw6HrwahcXrEN1gP3Aw+a8SjYc+7hi2axteBvZLNZLytjlLsNd2cXd9sFfJyZHQwcTkQWD96mOWt8sbGx5UcbP55I1N4LHBqhKJ4D3p9OtywqlgbX1dXtUlbm1wJHaCaX5GfzlrKy7IcaGq54pVjanEjUTTbzv7uzQ4SG6pF0uuWgKM5RHbCKRNwkeMLgeiUhg2zRxsUrEdkqDy+HK/vyi5lMZi3Y5xXZFlUAE4Bad77t7rPBrnYP/+XuC4MgaA/D4EZ3uxas2Yz/Z2afAE5Cxau+HCI/vGLFup9t5rn5EQtjN+CmRKL23GJobDw+7eiyMl+Iilcly53jOjtjtycStROKob3JZN1M8AURK14BXB3VOaoClogA/FYRyCDLKAKRATjYgC9Nha4+f/AyzX8w68vlhiL5OkD2T7W1ta3v+blsFG8uMwqYF4/XXlVXV7dLITYwHo8Pj8drv2lmNxHRO5lGzL7A7fF47berq6srCrGB9fW1uyYSdVfm/sDAiAhuR+dHdXLqEkIRYQGUjYbHtVMig2QlsEcVLNv4CV1CKNIvd0yEY/q7ltyMGTPGB0H2brQWqgz6QRe/z2RazuztdxKJ2oVAVUQjWgb+o66u4NLm5uZVQ92YVCoVPPXU4g+7cwmwX0THZBVQTu7MzCh63N2/sffe+1+ZSqWGfJG6urq6UeXl4cfc7evA9hHdkj6QTrceEtH5qDOwRAS6/3r/cyUhg/K1C3N7Kl6JSL+EAXxma26EMHfu3Afc+YEilEG2PAyDz/bh92ZHOKPtwb5bVuaPJ5O1qenTp+8+FI2or68fmUjUJpYufexed64iusUrzGyeGX+O8Jzc18xaly5dfE8iUXv+BRdUVw7NnKzdNZGY9tWyMn/S3X5MZItXAJaJ8heJzsASEQBuhtHD4Slyd2USyRcH3lkFD/f0pM7AEunzDtxvJsLHtuEAtbyzc/WdaC0bGbzNfzydbp27pd+64ILqyjVrhj0LbKfM6AKuMeP3a9eGV8+bN+/1fL1RdXV1xejRFVPc7aPA2dEuEGxgItgYcF16nbMsV9S0P4wePea6fN6xMB6Pj4HO95lxFtjp6KxhgPXuZWMzmcwLEd7/ERF5s3jwfw5fVBKSR3+ugg/1MgdVwBLZspcq4KDDYJsOZqdPn35YLBYuJLqXxsig8T+k060f7etvJxK1lwGfVG4b6ATucLebzcJbstnYXU1NTc9u7YslEomdoeudZmGVu50InICKVhvP29vS6dZjAUsk6h4EP0iZbGC5O/8xs1uCIHvLmjXctw1FVovH42Oh6yDgWDOmAJP1/bSJdDrdkoxyAKpiisj/vqbhR8DHgdFKQ/IxxQy+oxhEto3BZ7e1eAXQ1NR0byJRlwL/vlKVvG34necrKsLz+/NvgoCfhSEfB2JK8E3lwPFmfjwYsVhIIlG7jNwZzUvBXwBeAnvNzLLuvsLMhoVhOBpsdBCwnTu7mHGAux0MnTvmxkfnM2x2W2t2yZvT2MMfmdkcpbKB7cw4Hfz0MAwYNgzi8drnzexh8GfNeMndXjTjjTAMHYI3IBwDNhoYbWajwXcDDgIOhK6RinRLh2r+Y+0DiYi8RTt8G/i6kpA8fOtePQk+0Nvv6AwskS26qgqqB+rFUqkpZUuX7nEzub90iwz4pt/MT29sbP17f/9hIlHXCl6jCGWI3JdOtxxO9zqD1dXVFZWVwx4H9lA0MkSuTqdbPhD1ELSIu4hs7P8BrykGGWAh8E3FILJNlsbgvIF8wVTqhi73snOAVxWvDDQzfrU1xSuAMAy+3/3dITIUc/dbvOUmGW1tbevd/YdKRoZqP9o9/IZiUAFLRDZSBct0mZfkQfMkuEsxiGy1LqD2SHhjoF84k8ksAZumYoEMsFtHjdrhs1v7j7vvlnmFYpTB57c1Nrb8YeNHV61a/xvgCeUjg83MWzOZeXcrCa2BNeDaYXuHQwz2c9jHYG+DXRx2IvezPZtez78OWO7wquX+Avo88KTDEoNHVsCDU2Gt0pXBshx+MRoSwGFKQwbAmlCXpYpsq89Xwc35evF0uvnaRKLum+D6A4YMhGfLyzlzW+9QZtb1ZSj7CDBCkcogcbDP85azr/6rra1tfTxe91UzV2FVBtNaM9d+9H+/FxTBtmnPLTp3EjAVmAjsk4e36QIeA+5wuL4crj8CnlX6kk8LYYrBAiUhA+DrVfDdvvyi1sAS6fFoKj0J8n7XoVQqFSxd+vifwc9Q6rItB1tgU9Lp5jsG4sXi8dpvm+mPIDJI21v3TCbTmujt+DmRqL0JOF5pyeDMSVKZTMu3lESOLiHsp3tgl4WQXAjN7bki0kPAL4EzyU/xCnJnyh0MxA2auuCZdni4HS5fCGfeA6M0MjLQJsENwDwlIdvogRGgNSNEtpLBrWNyd4fNu1QqFbrH6oBHlLxsgwsGqngFUFEx8hLgccUqg+CVMIx9fkv1hCCwjwOdiksGwf2rVq37gWLYYL9ItuQxGLYc3u1QB3yI3G1sC8ka4K8Gzcvh71NzZ2yJbLM7YKcY3A+8Q2nIVggdTpgEt/T1H+gMLJENPFIOJxwOLw3mm86aVbdPV5ffYsauGgLpD3e7NJNp/sxAv24yWTPVPbhOxy6SZzXpdEufLg+Mx+t+YOZfUmSS1/1o9+MymdbbFcX/6AysXrTD5IXwm2XwgsNfyN22urwAmzoCqHb4y2h4oh2+3wH7aQRlW02GVx3OVxKyVQcy8PP+FK9EZAOPB3DSYBevAGbPbn4SwvcByzUM0g8te++97+fy8cKNjfMWAL9VxJLP+dvX4hXA6NFjUu7cq9gkf+wHKl5tSgWsHrTD8e1wNXC7QT0wpoiavyfwZYdH2uHqdpigEZVtMSlXvJ2rJKSf7l0JX1YMIlvlmSycOgGeG6oGZDLz7g5D/wiwXsMhffCXsWOfSaRSqbzdybKryz4L9rCiljx4Yv16/0R//sFll122LgyDOnI34xIZaP8ZO/bplGLYlApYb7EQTmmH24D/AGeUwNieAbR3F7Ima4Rla42ATwIPKgnpo7UGdbp7qshWeRKYMjn33yE1d27rdUAcCDUs0ovr3cvOTqVuyOsSFs3NzauyWTub3NIZIgNltXv40dbW1n6fcdrU1HSvu39WEcoAeyUW85p8b1OLlQpYwJ1wYjvcbfAv4OgS656RK2Td3g5/vQv214hLf42HlUHuEtqVSkO2xOETE9Fp9SJb4d4Qjq0qoAWr0+mWK9z9PFTEkp629253mlV8KJPJDMofLJqamu41swuVvAzYgZJRn8nMu3tr/30m03o50KQkZYCsBztz9uzWZxRFzyJdwLoDdloIvwlgAXB4BLp8ehYeaIef6c6F0l8T4EGH85SE9LojCL+YBI1KQqTfbqiAKUfBC4XWsEymtRF8BpDVMMl/ududsdja9zY2Nq4YzPdtbGyeg272IQMzi7/b2NjSuq2vsnLluo8B7cpTtnVCmnFeOt18o6LYvEgWsByChTA9Bo90r3EVpTualAOf6oR7F8L79BGQ/pgEVxp8T0nIZixw0Kn0Iv33a+Ddh8HrhdrAdLq1xYwadOt4ye1N/3vkyLUnz5nT9tpQvPvKleu+4M7fNA6y1TPYPZNOt35jIF6rra1tTSyWPcN96C/9luJlxrcbG1t0Nt8WRK6A1QH7Lcotzj4X2CnCYz/O4G8dcEU7bK+PgvTVBPi6QbOSkI3cF4OPVOngVqQ/OoFPVMHHi+Gz09jYMt+ds9DC7lF3VWXljmdcfnnbkC0r0NbWlu1eD+tWDYdsRaHgTxUVo+oBH6jXnD37ihch+z7gFSUsWzEnf9LY2JJSElsWqQJWB3zYYaHDJA19jsM5wD0dpbf2l+RrAws+HGYB1ysN6bYkgPccCW8oCpE+ewJ4VxVcXkyNzmRa/mQWnI4+7xE9yLLfrly57pzLLrtsyO+81tzcvMq97HTgLo2M9MPVK1asO7uhoWHA/2iQyVzxsHt4Kthriln64VeNjS2fVwx9E4kC1mMwrB1+5vAHYIyGfRNjHW5oh4s8WpdTylYaD+vXwoeAW5RG5D2XhdMmwHOKQqSPRQC4EphQBXcUY/sbG5v+HYvZsRTQYvOSdw72vcbG5vPb2toKZi20TCbzRnl59t2oiCV92fYabZWVO1S3tbWtz9+cnHe3GaeZFe4l4VJAG1a3S9Pplk8wgGcDlrqSL2C1w77L4DbgUxruXg0DLu2A+TfDaMUhW3I8rFgL70VFrCh7JgZTJsOjiuL/t3ffcXJV5ePHP2dmd1NIQqQXQUCKEBGSnYQQRAH9KoKogAEpCZuAUcGCBfWrPzW2L/Yu6BrSSEAJYkGsKKIYILsbagSkd+klPbtzz++Pu2hQytzdmdkpn/frtS8Q75259zln7tz7zDnPkUryCHBCOxxXgKfq+UTmzDn3plxu/STgzzZrw1sVYzh23rxz/18tPmR1dp7/aGvr+oOBK2wqvUCq4Ds77rhrVUYPzp17bnexmD8QuN+46/k6ZAh8dv78cz+IyatMGnq0TQ+0R/g1sJVNnckNOTjUERUqxRUwejj8BjjAaDSVu4HXFco8AqMHTo+uLqXGtLAIH9oPHmukk3rf+943bNWqJzqB6TZxQ7o9xnjk/PmLb6j1A502bdom+Xz8SQgcbrNpI30hhPfNnXvuD6r9xjNnHr9LjLnfAbvaDNrI+hDCu+fOPXe+ociuYRNYXXBQgF8AY2zmAbkzwBva4TZDoRezFEa0wWLgSKPRFK7NweGVSHKbwFIDuiHA6e0NXjdw5swTp8fI2cBIm7xBHhICv123Ljn+vPPOq5upUFOnTs2PHj3sizHyMVtQwCqIx82bt/hXQ3UAJ588dbMkGbYEOMTmEPAIhKnz5p17uaEYmIacQtgNbwvpiBCTVwO3c4S/LoN9DYVezBRY2w5HB/iK0WjwBxq4tA9e6whN6UU9Bpx+B4xvb4JFL+bOXbSwWMztD9xk09e9Yox8fscddz28npJXkK5OOHfuoo8D7wTW2ZTNK0auT5L85KFMXgGcc86Sx1tbRx4aQn0t2KGKuKpYzI03eTXoZ5HG0gPvjHA2kLd5y+LJCG+eaJ0jlagL3hvgG0Cr0Wise0HgGyvh4wdDXwWv4Y7AUr17AvhWH3xrMjzdbCc/derUEaNGtX0JgrVH6/Oh/858Puk455zz/lLv53LyydPHJ0lyAU7fasb7lR+1to78YGdn55paOrCOjhPfFgJzgM1tpmbrk/G7q1ZtOKOSCwg0i4ZKYHXBO0I6jSln05bV0wm8dhJcayhUiuVQSGAJsJPRaAgrgZMLaZtWlAks1fnn5Kw8fGk8PNnswejomPaOEOL3fFCrnwesEDi7tzd89Nxzz13dKCd1wgknjGlry50N8XibuCk8HGOYMX/+ub+u1QOcPn369vl8shCnFDaJcG8IxZPmzj3vMmNRpog2yon0wCH9BduH2awV8UAeDhgPdxkKlWI5bBnhvAivNxp17eo8TBsPt1bpWm4CS/XmduA762Deq9MklvrNmDFjS+j9BnCi0ahp94UQT547d/HvG/UEOzqmHRVCPBsXdmpkP8vni++ZM5sTq9UAAE7qSURBVOf8h2r9QGfPnp27667bzgiBz+OMhUYVY4w/7O3lY4sXL37acJRPQySw+kd7XAaMskkr6rY+ePVkeMhQqKQrN4RuOC3Al4BNjEhd6QU+vxLOrOSUwf9kAkt1IgnwpwS+V4CLAySG5PnNnHnCG2IMZwO7GI2a0gfxrBhbPzN//vwnG/1k+xOqXyVdMTPY/A3jFggfmDfv3N/V24GfdNJJ4/L54rdj5HU2YyMJN+dyxXc1wlTsmoxuvZ/A1bB7Hq4AtrQ5q2LZCHjdOFhlKFSqbnh5hLkBXmM06sJVCbxnKKYNm8BSjbsrwPwcLHBEcjazZs0a2du7+jMQTgfajMiQ+0OS5D+4YMGCFc124jNnTn91kiTfD4FX2Q3q2qoY+cLq1eu/We91hWbOPPHoGPk68DKbtX6FwBNJwmfb2kae1dnZ2WtEKhTnej7462CTXlgG7GVTVtUFBTjWMCiLCLkemAl8EYfw16onIvxvAX40VCNKTGCpBv0zwk/zcMF4uMLRVoNz0kknvTyfL34hRo7FUTBD4fYY+cj8+Yt+3sxBmDp1an6TTdpmhhBmA9vZLepKH3BesZj7xMKFC+9voD45YvToYR+LkY8CI2zmurIe4g+LxfznFi5c+JjhqKy6vnHohvnASTbjkHScWe3wIyOhAXxuNw3wmQjvxXn/NfPFG+CsPvjifjCkX7wmsFQjbgN+ncBFE+GvJq3K76STjm/P5cKXIFgnsToeDoGvbbLJS77z3e9+d73hSM2aNWvkhg1rTg+B03E2R63rizEuyufDF885Z9FtjXqS06dP3z6Xix8JIc4CRtrsNW0DMA/6vjhv3o/vNRxVy0PUpy44LsB5NuGQWZfA/q5MqEF8hvcI8GngHbhy6FApRjg/gU/vB3fWwgGZwNIQWQn8FfhdHn5TrUULlNbHSpLc50OIk4xGRTwA4WutrSN+2NnZucZwPLepU6eOGDVqWAfwIWBXI1JTeoEFISRnzp173h3NctJpzbYNH4RwGjDGblBTVgHn5HLJN88557y7DUd11WUCq7/uVTcw2iYcUreug3ZXXdJg9MCeET5FOi3VRFZ1bAAWBPhKezrSpJb6gwksVcPDpCUILo/wl1WwvJqLFei5HtamvRb4CMTDcWphOdwTQvhKkuTPmT9//jrDUZqpU6fmR41qOzLG3BkmVYfcQzGGefl88QfNnCTo6OgYm8v1vS9G3o3TXYfafRDOWr+++IPzzjvvCcMxNOruBuFWGPYUdAF723xDL8K8iWldI2lQrobdc/D+kK4OZHK6Qg/tEea0wln7Qk3WjTCBpQp4ELgxpiOGl+WhawL4i2mNmjHjhL1iDB8KgROBYUYks6sg/mDVqg3n13th66F28snHvyZJcicDR+FK51V8tOCyEPjhypXrf24f/rfZsw9queeelx4WI6cAhwF5o1IVCcQ/QDx71areXy1ZsqRoSIZW3SWwuuCTAb5g09WUQwpwmWFQme68x7TADOA0YDcjUpabwaUBfjAGluwGNV37xASWBuiRAHfF/r8Ad0a4KYEbhrqumwamo6Njm1yutyPG0AHsYURe0FMhsLivL/fDhQsXXm84ymvatGmb5PMcFUIyHcIhOFq8Ercqd8UYliRJbs7ChQv/YTxe2PTp07fP54sdEGYCuxiRSqUduKBYzF2wcOHCewxH7airBFY37Aj8HdjEpqspfwf2LaRz1KXy3MpA6IL9c3AC6fTCzY1KJrcFWBRhUQFur5eDNoGljawHHv+PvyeAR4F7AtyZwF0j4a5xaT0KNaiZM6fvH2NyUv93wVgj8szXZLwqRuYUi7mfnHvuuasNSXUSB7lccmIIvB2YgMmsgXfgyJ3Ahfl8cuE555zXlfZpZTVjxokTIB4JHAlhnBEZlGshXBBC8SfNVG+t3tRVAqsHfhHhLTZbTTqjAF8zDKqEFdC2Bg4NcCRwOK4U9HxuAH4O/LwAy+vxBJZDIYHX2ZQN96S9OpfWXgNYHfv/PaaJp17Sp8BVAdb2wePD4PF9wAdyPcvUqVNHbLLJ8LeGEI8E3ghs2mQhKEL4C8SL8vn48zlzFt9nrxg606ZN26q1NR4aYzgM+B+ImxmVF+u/LId4aQi5i+bOPbfbkJRXR8fxu0HuqBB4CzAJaDEqL2gdsBTCpSHEi+bOXXSLIal9dZPA6oFDI/zGJqtZq1rgFfvWaF0dNdSDcO4a2C+BI4A3Aa+ieX8BfTzAZRH+CPy+nkZaSdJgzJo1q7Wvb91rY0zeTPp90KjTaNYAfw4hXNTS0veLzs7zH7X1a8/UqVPzI0e2Tc7lOBTCgUABZ4wA3BZjvDSXC5eGsP6yc85Z8rghqY5TT506at26tgNj5KAYcweFECdgQqsYY+gJIfljkvDHNWs2LF2yZMlae0t9qYsE1gpoWws34RzfWnd+AY43DKqm6+ElvfDqCK8h/RsPtDbo6d4FLAWuCrD0drj2mPQXTUlqamnxdw6CMCWEeACEner0VJ4GroiRv4TAX1tbR3Z1dnZaoqHOzJ59UMu99+64d7FY3D+XYzKE/WJk9wY/7ach9EDSFUJYFmPfsnnzfnyvvaE2zJw5c3SS9B6Yy8V2YEKMTCAtz9OwYuTBELgG4vIQQldLy/rLOzuXPGVvqG91kcDqhlOAH9lcNS9J4FWTYIWh0FDpT3i/MqaJrPE5GB9hL+qrbsp64BbghgjX5+C6Ilw3Cf5pC0tSKQ9r79guxvwUCFNIaxWNA7aoscNcGWO4CeINIYTrIV6xatX661zlqjGdfPLUzYrFYeNyubBnjPEVEPeC8Ir+JEI9lXXpBe4A/h4C/wD+HmPsftnLdrt59uzZiS1dP6ZPn755LpdMACaEwJ6kiyftCmxVZ6eyHsKdEG+MkWtyuXhNkrReM3/+fO+bG1DNXywvgPwuaZHw3W2uurCwACcZBtWa5WndrF2LsFuA3SLsFGA7YBvSf46t4uGsBe4L8EAC94Z06u1dObgVuG18+t+8CZSk8j+s7ZXLhT2ThD1DiHsAL+1/WNuqQvfFTwIPQHwAwv0hxJtj5MZ8Prdizpxz78LC1U3v1FOnjlq9unWPXI6Xxhh2zOXC9jGyPbBD//3JS4ER1UwGxMgDIXA/cC9wf4zcB9ydy3FTS8vIOxwV2NhOOOGEMS0tcbdcLuwKuV1CYNskidvlcmyTJGwXAtsCw6t4SE8DD4fAQ2nx/3AHJHfEGO5oaYl3zpmz+H6vpc2j5hNYXXBcgPNsqrrRV4Td94M7DYXqyVIYMQK2TtLVDjeNMCbCGGBMgE0itAQY/cz2EUYBrSFdFY0IKwP0AesCrE2gGNIvXHLp6mmP9sHjOXiskNY0kSTViNmzD2q5555ttioWc9u2tOS2SRK2CiG0xsgmMca2XI4RwPAkCcNyudhGOnqqL8a4EujN5cKqGGNvCDwNuYdCSP759NPr77e+isph1qxZI/v6nh4bY35sCPlNoTg2xjAWGBsjYwByuRggjH1mnySJo0IIrcDTIaTlBmL8Vz8tAk9CfDKE/JPFYt8T+TxPhND7pHWqVIqOjo6xudyGzWLM9ffBMDqXi2NiZMwzfTKEf/VBYkz7Zwj0ASv7/9uaGMP6dFuejDEmkHssny8+2tfX+lgI4bG2trbHTJhqYzWdwIrpROrrgL1tqrrygwK8xzBIkiRJkqRyqOkEVhe8JcAvbKa6sx7YuQAPGgpJkiRJkjRYNb30fIB32UR1aRjWwZIkSZIkSWVSswms69Jimm+wierWdEMgSZIkSZLKoWYTWBvgBKDFJqpbe/ZAu2GQJEmSJEmDVbMJrADTbJ76Fm1DSZIkSZJUBjVZxH0ZjMvBjTZP3XsYeGkBXPpUkiRJkiQNWK5GD+odNk1D2Ao42DBIkiRJkqTBqNUphK+3aRpDhDcZBUmSJEmSNBg1l8C6AkZj8e+GEeBQoyBJkiRJkgaj5hJYw+BAoNWmaRivWAY7GAZJkiRJkjRQNZfACtZMajgBDjAKkiRJkiRpoGqxBtYhNkvDdTITWJIkSZIkacBqKoF1KwwD9rFZGktiTTNJkiRJkjQINZXAehJ2A/I2S2MJsIdRkCRJkiRJA1VrUwhNdDSmzbphC8MgSZIkSZIGIldjB2MCq0FF21aSJEmSJA1QTSWwTHI0NNtWkiRJkiQNiFMIVa2OZttKkiRJkqQBqbUE1o42SWNK4GVGQZIkSZIkDUStJbA2t0katqPZtpIkSZIkaUBqJoF1FYwB2mySxhRdhVCSJEmSJA1QLY3AGmNzNDTbV5IkSZIkDUjNJLBaYJjN0dBsX0mSJEmSNCA1k8AKTh9sdCawJEmSJEnSgNRMAqtYewXlVV55QyBJkiRJkgaiZpJGEXptjoa2wRBIkiRJkqSBqJkEVpsJjka33hBIkiRJkqSByNXQgayxORraWkMgSZIkSZIGomYSWL3wBBBtksYU4DGjIEmSJEmSBqJmEliFtAbW0zZJw3rUEEiSJEmSpIGotZX/HrZJGlOER4yCJEmSJEkaiFpLYN1qkzQs21aSJEmSJA1ITSWwIvzDJmlYtxgCSZIkSZI0EDWVwAomORqWbStJkiRJkgaq1qYQmuRoTMUxcIdhkCRJkiRJA5GrsYMxgdWY7twN1hsGSZIkSZI0EDWVwBoPDwJP2CyNJcDfjYIkSZIkSRqoWquBFQNcZbM0lghLjYIkSZIkSRqoWquBZbKjMf3NEEiSJEmSpIGquQRWAn+1WRrK2g3QYxgkSZIkSdJA5WrwgJYCT9k0jSHC5VNgrZGQJEmSJEkDVXMJrAL0ApfZNI0hwG+NgiRJkiRJGoxcLR5UgF/YNA0hRrjYMEiSJEmSpMGoyQTWWvgpsMbmqXtLJ8IdhkGSJEmSJA1GTSawXg0rcRRW3YtwrlGQJEmSJEmDlavVAzP5Ufc2JHChYZAkSZIkSYNVswmsO+H3wD9tovoU4Vf7wWNGQpIkSZIkDVbNJrCOgSKw2CaqT8ERdJIkSZIkqUxytXxwCXwb2GAz1Z3bV8KvDIMkSZIkSSqHmk5gTYJ7gfNtpvoS4f8Ohj4jIUmSJEmSyiHU+gH2wK4RbgbyNldduHcE7DrOkXOSJEmSJKlMcrV+gO1wG3CRTVUfInzF5JUkSZIkSSqnXJ0c5BeBaHPVvId64RzDIEmSJEmSyqkuElgT4DqshVUPZk+BtYZBkiRJkiSVU65eDrQPPgQ8ZZPVrJ474EeGQZIkSZIklVvdJLAmw0MBZttkNSkBTjsGioZCkiRJkiSVW66eDvZ2+C5wrc1WWwL8qABXGwlJkiRJklQJod4OuAsOCPDXejz2BvU4sEcBHjUUkiRJkiSpEnL1dsAT4W/AN2262hDhvSavJEmSJElSJeXq9Lg/HuFKm29oBfjeRFeHlCRJkiRJFVa30/C6YUfgGmAzm3FIXL8BJk+BtYZCkiRJkiRVUr2OwKIA9wToAKLNWHWrIhxj8kqSJEmSJFVDrp4Pvh0uJl2ZUNUTA5wyEW4xFJIkSZIkqRpy9X4Cd8CHgAttyuqI8PF2+ImRkCRJkiRJ1RIa4SRWQNs6uCTC623SijqrAKcZBkmSJEmSVE2hUU7kKhjTApcD+9qsFekoP54AJwRIjIYkSZIkSaqmXKOcyGR4OgeHA3fZrOUV4NLhcJLJK0mSJEmSNBRyjXQyE+CBHBwE3GzTlkd/8urIcbDBaEiSJEmSpKGQa7QTmgB3b4ADAiy1eQcnwqIIh42DVUZDkiRJkiQNldCoJ3YdbLIBLgxwqM08IN9phw86bVCSJEmSJA21XKOe2D6weiS8FTjPZs4kAc4owAdMXkmSJEmSpFoQmuEke2BWhO8CbTb5C3o0wvSJ8BtDIUmSJEmSakVolhPtgfYIFwC72OzP6a8tcNy+cL+hkCRJkiRJtSTXLCfaDj19MB5YYrM/SwS+A7xuX5NXkiRJkiSpBoVmO+EIoRtmBTgTeEmTt/9tEd4zES71oyBJkiRJkmpVrtlOOECcCD/cALtG6CQdgdRsNgBfXgl7m7ySJEmSJEm1LjR7AHrgwAhnAa9sklP+E3BaAW62+0uSJEmSpHoQDAF0QyvwbuCjwEsb9DSvAT5XgJ/b4pIkSZIkqZ6YwNpIN7RGOC7AJ4HdG+S0rgHObIcLQ3NOl6wry2G7BHaJsHOAnYGtgS2ALYExQBuwyUa79AErA6xP4DHg0Rw8EuHuCHfl4M4ItxWg1+hKkiRJkuqVCazncBm0jEoTWR8DxtXraUT4P2tc1a5u2DHCAQH2A14F7ANsVoG36gVuAm4I0J3A0gDXmNSSJEmSJNULE1gvYhmMy8E0YAawVY0f7r3AeUWYux/8w9arLUths2HwPxHeBLyOoZ2uuibClQF+m8BvJsEKW0iSJEmSVKtMYJVoBbSthcOA6cChwIgaObTHgYsCLJwAVzhNsLYshy0TOBo4FjgQyNfood4VYUkeLpgA3bacJEmSJKmWmMAagMugZQzsE+H1AV4f4TWktYmqYU2ApTGdGvg34GqngtVe/xgNbwZOAd4ItNTZKdwKzE1g/iT4py0qSZIkSRpqJrDKYAWMWgOvCdAO7E1az2hnBp/UWgPcQlq76MYIV46AZeNgg1GvPdfBVhvg1ACzgG0b4JR6A/wywrcKcIUtLEmSJEkaKiawKiRCrgu2z8NOEbYhXUluc2BUf+DHRigCK/t3eRJ4NKQryT3YC3dOhoeMZO3rgV0TOCOk00uHN+hpXhXgqxPgZ05TlSRJkiRVmwksaYD6VxH8ZICZ1N80wYG6EfhcO1xoIkuSJEmSVC0msKSMroGxCXw6wmlUr/ZZrbkKOL0AV9sjJEmSJEmVZgJLKlGEXDe8M8DngS2NCDHAoggfK8CDhkOSJEmSVCkmsKQS9MCuEX4EHGQ0/stTwGfa4bsBEsMhSZIkSSo3E1jSC7gA8i+Hj0X4NDDMiLygy/IwczzcZSgkSZIkSeVkAkt6Hv1F2s8N8BqjUbKnA5zWDosMhSRJkiSpXExgSc+hB46KMBfY1GgMyIIN8J4psNZQSJIkSZIGywSWtJELIL8zfCrAp4CcERmU6yIcNRHuMBSSJEmSpMEwgSX1uwrGtMAFwBuNRtk8HmBqO/zJUOiFrIBRa2HnADtF2D7C5jnYHNgiwvCQ1qAbudEuvRFWBSgm8BjwaIDHAjwc4a4+uGsyPGRkJUmSpMZgAksClsN2CVwC7Gs0yq6vvy5Wp6FQN7RGGJ+DfRLYB9g7wF7AFhV4u7XAzcANwA0RrmuBrvHwpC0hSZIk1RcTWPKBGvYGfgtsZzQqJgKfLsAXDEVzuQyGj4HXxvTvgAATgRFDeEgJ8HfgCuCvOfjDBHjElpIkSZJqmwksNbVumAD8jsqM/tB/iPDVAnwspAktNe7nalvgSOAw4GCePfWv1iRAd4TfRPj5JLjWFpQkSZJqjwksNa0emBzTkVeuNFjdi873JsD7TWI1lu40CTw1wLERDqR+F0G4BbggwPntcJMtK0mSJNXMs6TUfJan9Xf+BGxmNIbEdwrwAcNQ/3qgPYFZAaYxtFMDK3J6ATpbYPE+sNrWliRJkoaOCSw1nWUwLgd/xmmDQyrCZyfCbCNRf66DTfqgI8LpwK5NcMpPAXMS+PYkuNceIEmSJFWfCSw1lf7aPFcBOxqNmrgAvbcdvm8k6sNy2LIIpwd4N805erEXuAD4ciFd2VCSJElS9Z4fpebQnRaSvgyYZDRqRjHCURPhl4aidl0Bo4fDqcD/Ys04SOu3XRLgk+1wveGQJEmSKs8ElprlaTPXDT8PcITRqDkrI0yZCDcaitpyKwx7Ej4Q0sTVWCPyX4oBFkT4fwV40HBIkiRJlWMCS02hBz4TrbdUy24FJhbSWkOqjc/MERG+CbzcaLyo1RG+tgq+dDCsMxySJElS+ZnAUsPrgjcF+BWQMxo17RftcGRIp2dpiFwDOxXhB8AbjUZmtwGzCulUZUmSJEllZAJLDe062Ko3rVGztdGoCx8owHcMQ/VFCMvhnRG+Bow2IgMPZYBFffDB/eAxwyFJkiSVhwksNfQDeQ9cDBxuNOrG+gCTLIxdXf2jrs4FXm00yuaBCCdNhEsNhSRJkjR4TqlSw+qG0zB5VW+GRVi0AtoMRdU+J1OLsByTV+W2XYDfd8O3b4VhhkOSJEkaHEdgqVEfynckXdXOqVD16TMF+JxhqJylMKINzgZOMhoV15OHt4+HuwyFJEmSNDCOwFJDivA9TF7Vs08uh70MQ2Usgx2GweWYvKqW9iJ091gYX5IkSRowE1hqOD1wTIAjjERda4twlmEov244OAfXRJhoNKpq8wiX9MAZhkKSJEnKzimEaiiXwfDRcBOwk9GofxGmToQLjUR59MAxERYAw43GkH7xzo3w7gL0Gg1JkiSpNI7AUkMZDR/B5FUjPeh/oxtGGonB64HPRPgxJq+GXISZwM9XwCijIUmSJJXGBJYaxtWwOU7PaTQ7RHiXYRi4CKELvhlhNo66rSWHrYHL+q9bkiRJkl6ECSw1jBb4KDDGSDSWAJ+4woL8AxIhdMN3A5xuNGqybxfy8IflsKXRkCRJkl6YCSw1hKtg6winGYmGtMVwONUwZBMh1wPzgp+LWjc+gT91wxaGQpIkSXp+JrDUEFrgA8AmRqJhfWgpjDAMpYkQeuB7wElGoy68Erj0eniJoZAkSZKemwks1b3+It+zjERD22oYnGgYStMDXwXeYyTqyj4b4OLrTMRLkiRJz8kElhpBBxZCbngRPhgtQv6iuuHDpH+qPwf0wgWXQYuhkCRJkp7NBJYagSNNmsOey+Fgw/D8euDNwJeNRF07bBR83zBIkiRJz2YCS3VtGUwhrR+jJhDhZKPw3LpgUoQLgLzRqG8BZnWndf0kSZIk9TOBpXp/0DvFKDSVo5bCZobh2a6DrQL8FAvdN5Kvd8H/GAZJkiQpZQJLdesyGB7gaCPRVIYPg7cbhn+7APK9sAh4qdFoKPkAi66yXSVJkiTABJbq2Bg4LP2HmkmEY43Cv70c/g9H6jSqrVpgSTe0GgpJkiQ1OxNYqmdTDUFTOmg5bGcYYDm8JsJHjERDmwx82jBIkiSp2ZnAUl26DFoivMlINOd1q2jbcw2MTeBcr+NN4RNdcJBhkCRJUlM/CBoC1aNN4ABgUyPRnAIc2uwxSOBsYEd7Q3N8VweYdwWMNhSSJElq2ptiQ6A67biHGoWm9oZmrgvUBYdFeIfdoKnsNBy+YBgkSZLUxHkAqf4EeJ1RaGpjArQ344lflZ77D+wCTem9y2CKYZAkSVIzMoGlutMNIyPsaySaW0ynkTadVvgisIM9oDm/s3Pwg8ugxVBUzymnTNuzo2PaN42EJP3XPfkW3fC1ZbCN0ZCe93Oyd1d6/65y3AwbAtWh/XBZeTVhAms57BXh3TZ9U9t7DLzLMFTe9OnTd5wx48QfFovx+hDiUUZEklIrYFQ3fAy4Dfiw9+XSf1sGO3TBD4FrArzRiJSHv+KqHu1nCARMbrYTTuCbXrcV4fNXw4/3g8eMRvnNmDFjyxB6Pxxj8gFguBGRpFQ3jATeuRb+F9jaiEj/7WrYPA9nAN5HVIAPQqo7AfaJhkGw7XWw1T7wcDOcbBe8BXiDzS7gJXn4dP+Nkcrk5JOnbhbjsI/G2Pu+GBlpRFSBh//F1MZIlacjFAOsDPAQ8GAC/2iDFfvAaltKz9F3WwPMiPAZYLtGO78eeGMCJ2Z4gP7UeLirFo79Chg9DM4qdfsc/LY9vRap/J+TkcD7SBO8mxqRyjCBpboTYW+jIIA+eCXwpybo86EHPmeLayPvvga+WSs30PXs1FOnjlqzZthpScLHgbFGRBV0FDXya3z49/fLv/53LyTdcHNIv1d//zT84WBYZ7M19T13rgeOBs6M8PJGPc8E9goZElgJfIsa+f4dCcOTbMf+KCawymqjBO9sYFsjUlkmsFRXVkDbWtjdSKj/xmpvmiCBtRyOAfaxxbWRtr70Fz7rYQ3Q1KlT20aPHt6xdm38XAhOhZFIa+PuFWEv4L2j4cluWBLge+1wveFpqvursBze3ANfAF5lRKTn/pz0wNuBL0bYzYhU74tKqhsb4GVYKFL/tkujn+AFkO8fsi89S4AZXU3wGaiU0aPbTo0x/hDruEjPZyzwzgjXdsOvuh0B3zSWw4QIv8TklfS8umFGeqtu8qqaTGCprvTBTkZBz4iwc6Of485wJLCnra3n0BrgI4ZBUoUF4HBgeRd8s7/OiyQ1/X2YIag+E1iqtw67k1HQRnfUOzfBaX7IltYL6FgOWxoGSVXQEuB0oMfRWJKkIcoHSPUjge2NgjayXSOf3DKYEmB/m1kvYEQC7zEMkqroFcDSHjjEUEiSqskEluqtw25uFLSRsRdAvlFPLsD7bWKV4NRuh7FLqq5RES7uhoMNhSSpivkAqX5EE1j6j2vYrrBZI57Y1bB5gLfZxCrB1gGOMAySqmwk8PMueKWhkCRV5eHPEKiehHRFHOlfeuEljXheeegAhtnCKtEphkDSEBgT4MKlMMJQSJIqzQSW6kr0gV7/Id+4feJkW1cZro1v7IYdjYSkIbBHG3zeMEiSKq3FEKjOtBkCbSw0YJ/ohgnAnrauMsgFOBb4qqGQGsKFAf5QiReO6fVis5hOwX8lMAUYPciXPb0HzmmHm2w6SVKlmMBSvTGBpWcpNuYIrGNsWWWVpP3GBJbUGK5qh85qvNFl0DIaJpMuHHIUA1scJR9hNmkiXZKkinAKoerwGU3a6I65MfvE221ZZRWg0AO7GglJWRwMfQW4ogDHBHhFhCsH+t3VBbsYUUlSpZjAUl2JsMEoaGMJrG+k81kO+wAvt2U1wGvk24yCpIFqh9tWwWuAbwzwuWK6UZQkVYoJLNVbhzWBpWfJN1gCK4E32aoaqABvNAqSBqN/RNaHgXMGcA06wQhKkiqYD5DqyhpDoI31wtpGOp8Ah9qqGqgIr1kBo4yEpDJ4D7As4z67XgM7GTpJUiWYwFJdSeAxo6CNjYJHGuVcroIxMV0NShqotnVwkGGQNFgF6A3wkQHcq3kNkiRVhKsQqt48agi0kfXjYFWjnEwrTInQarNqMCK8FviVkRg6s2bNGtnXt3YviNvFGMdAaI0xrIoxeby1NXfHU0+tu2fJkiVFI6Va1w5/7YbLgIOz7cb8Wjj+W2HY07BLAtsHeEmEEQA5WJXA03l4IIFbC9DbCO21FDYbBrsD2wIjk3RFyScDPNQKN+4Dq+3VqhUXQH532KYXtgK2CTAqQADGxrREyBpgTQL3D4MH9oGHjZpMYKnemMDSxhpqRJ6jr1SmfnSAUai+GTNOnADx7TGGw3t714wjfXAkvReHECIhBIrFyKhRw9bNmHHiUoh/ijFeMH/+ebdW+tiSJAmlbt/aGh6aM2fxfdWO4cyZJ+5RLCYlT4ENoe32+fPnP2nvq7ifkSGBlQzhaqjLYcsIb+5P5L/6KdgZyD3T+cO/r5ME/rWMcW833Bbhrzn47Vq49NWwsh4aZgWMWgNHAm8IcAiwXdz4M7LRv/dC0g03kf7A8bMCXG3XVhX7attqKOTTe5T9IrwC2K0P2sKz72H+Sy7tv3Snz4HX939W/3g7LD0GKvZj0DWwWwJjXuBat2OGlxvZkyb3M2uBm00+PyseUl251xBoI/c02PmYeNCgBSh0w8iCNQOrEu6ZM094W4ycAewPgVBammg4cAiEQ0IIn58x48QrYgxfmj//3F9X6Di/kcvlXlvqxsUil1PlaWAdHR3DY+xblsvlxpR8mMXkZcCTdsOKX1N+E7NtX9WVdCOEHngrcEqSLmSR9fmmFdgzwJ4RZg2HNd1wXgLfnwTX1mKbdMEuAT6+Ft4RYHSJu+WAcf1/H+uG5RG+VYDF4V+5PKl8lsKItjTB+ra1cGgORsfBveQWwCEBDonwmV3gwR74cR98dz+4s9zH3wffeaHatCHby+0ZoXsgx1FMf+C+0h717wuZVDfycJdR0EbubJQTien1eKJNqjJojTDeMFTWzJnTCjNmnLg0xnARhP0Hlx/gwBDiJTNmnPjXGTNO2KsCh7sg4/YHzpz5ju2qekOa6zucF/il+zn8fuHChffbEyuvHW4Dns6wy2bVOrYuOLoHriMdJXY45flxfiRwSg6u6YELu2CXWmmLa2BsN5wd4GbgnZSevHouEwIs7IFre9LRW1JZ9MCuPfDdNngAWAxMHWRffT7bRvhgHv7RDQuWw3ZGv/GZwFJdSUxgaSOxgRJY16a/WI+2VVUOAV5lFCpj1qxZrR0d086MMV4JTC7zy78aQs/MmSecXs4XHTFi/RKy1QvMQeuRVQ7tsZmu/zEstDdW1UMZtq34SqjdsGM3/CrAhcDeFbzPODrA33vgjJh5wEXZkwKHFuFG4N2Ut17m3hEu7YbvL+2vESYNxDWwWzcsjnBzhPcCY6v01i3A9ARu7oKTbYnGZgJLdaUd/onTBfRvtzTKifSZcFB57W0Iyu/kk6du1te35jchxI9TuTIMw2MM35wx48S5s2bNKstD6llnLVkVQvxZpgf3GKdWK67Tpk3bJEYOy7DL021tI35pj6yqLMWTh11WwTIlXXAYcD3piKtqGBbhK8vhkqVVHF22sW74QExrV21fobcIwKltsHQ5vMzurixuhWFd8JX+BOvx/KsGZNWNDjCnC+ZeZqmkhmUCS3UlpLX9bjQS6neDCQfJ/lQNJ5100rgkGbYsRl5Xpbec0du7ZtHs2bPLcq9WLNbuNMLW1vg2YJOS7wVC+ElnZ6c13qorywNpclCFCit3w4cDXAxsWu0ARHhTG/x5GWxTzffthm+R/lUjKbBvAn9J0uL3Ukl2hd7+WlFtNfK8OGM0LOl2Ze+GZAJL9eh6QyCgb1W6mk6jeIVNqjLa0xCU1Ra5XHEpVS5ODRxz9923frMcL7RgweI/xZhp2nXVphHGmG36YLGYLLBLVt2WGbZdF557MbFB6YEzgK8N8fPL3jn4y3WwVTXerBvOBD5Q5XPcMWSvm6cmFiAJ8JkaO6y3BfiBrdN4TGCpHl1jCATcfDCsa6Av/51sUpXR5ldYU62cRpKtwHg5rw7vnznzxBPK8EIxhLg40w5VmEbY0dExFnhDhl1uW7Bg8VK7ZNVlSWA9Wu4374FZEb5SI7HYbQP8/LJ0NdGK6YETgY8P4TVPKtkE+HnabWtHhJldMM3WaSwmsFSPndYbVwFc0WDns5NNqnIabp9qGDHy/Y6OjkG3Zy4XFpBtZEwVphH2HgUMK3XrEFhIBUb36PldDbuTIYEboayrQy6H/SN8t5ZiEmD/UXBWpV6/C8ZH6LT3qV70j7r8TA0e1zeXZ0vAq/ZzAVJ9GZ9OG3vcSDT9F+XfGuVc+lf92cpWVTlFa5g0kk1D6PvOYF/knHMW3Ua2a2cVphGGY7N162Sx3aG68mltmyzfz3eU672vh5cksITy1dbZUMb7kBld8NZyx/syaAlwDq4IqDpTgEuAqwbxEk8A95FeQx4q0+d18wQ+aus0DhNYqjv9GX5HYTW5vgZKYLXCtgzx8txqSNsagqpaDfwyRj4M8YgY4/5JkhRi5A0hhPcAi4DHBvH6R8ycefzBZTjOTLVtKjmNcNas47YIgUMy7HL53Lnn3WFXq/p911EZt7+uXO+9Hr7EwFfeuw74AnBgH+ywKQwvwLAChD7YIcDrSEeMXDuI2PzwqjJPLx6d1rwaP/CQcQlwRoAjEpiUwKQIhwd4F7CYdEVvqSIifPpFNlkZ4JcR/i/CccCrWmFUAUIBNivADgV4eQG2KcCwPOwc4fiYfoeuH+Bhved6eImt0xhcXlL16vfAmw1D0/rHfmQqRlzrX/abm71SueVgc6NQFffEGL/c1rZhcWfnkqeeZ5s/AD/o6OgYHkLfScDnGMCoyxhz/wfsP5iD3bAhXtDWFr5N6TVuDpw58x3bzZ374wfKHbje3vzUjPeiC+1u1dUFr4/w2iz7FGFZOd67ByZHOGUAu14f4SMT08/dc5qcjvK4D/gT8Ln+9/o/IGuSeOs8fAz4ZDnO+RoYW4RPDWDX9cC3WuEb+8DDL7Bd5wWQ3xneHOD9kCmBLL2oifCHbvgrcOBG//lx4GfAz1bCH7PUsB0Pd5H+nX8VfCQPZwaYkfGwNumFqWSflvuJCF9/gf//8ACnl/hat0Y4dSAxTeDv9qx/M4Glen3gvyTAd4xE0/ptI51MHja3oIsqcJ00gVVZ60KIn02S1m/Nnz+/pJvx/u1+OH369Avz+eR84H8yvufkGTOm7Tdv3rlXD/SgFy9e/PSMGdN+DvH4End5Zhrh9ysQwyzTB9eE0Hah3a56boVhT8FXM+62ehO4shzvn8AXQvbZIl+/Az52DBSz7NQOV0V4XQ+8F/hm+tVcmgCnL4fvT4BBJ3mLaVJp04y73R7gqPYSV+nuj80vgF/0wKERvoEr12b1si5YVSPf9TU3siiBT+Xgz8ADEb7WBp37pKOUB2VyOq1wZhf8OcA8sl0fMiewJr7IwmFd2VYmfnoiXOpHZ/BMYKkuTYQ7uuFWYDej0XwC/KbBEg2b2aqqABNYlXNjkuTfsWDBghUD2XnhwoWPzZo16/De3rUXQcw6mvj9wKBWJQwhWRBjKDWB9cw0wrImsGbNOnHb3l5enWGXi+bOnbvSrle176VcNywIsG/G/X43rgx1a5bD/kk6xS+LMwrwtUHcW0Tgu93pVN8FGZ6TRhbhNAY5Cqt/VcMPZNztthy8dqDJs3b47VK4vA3O7L+2OCC8tH7+01A7x1JzJsHlPXD0GLhkt4FP+3uh58CF3bAFLzw66j/jdMAKaBtXxjp4GhrWwFI9+6khaEpPDk+H/DcSl6tWJVgAuDJ+HULblIEmr57R2dnZ29o64lgyTw2IR5566tRRg3nvHXfc7VII92bYpeyrEfb1xWPJMsol5BbY9arjOtikB84J2UbIPfNgsagcx1CEj2Tc5UeDSV5trADnAe/Lsk+Ad/YnoAZsTFoQPssPWmsiHDnYkV9TYG0BTo9wPBmmdkkvpB0uqkTyaqPX/yawPMs90TqYYMvUPxNYqlsRLjAKzSfARQ3460mbLasKGGYIyvy9E/lpa+vIt5VrJFBnZ+eaJEmmA0mWm/C1a9sOH8z7zp49O4EkS6Kh7KsRxphp9cH7V65ce5k9sPK64eDedNpMxwB2vyfCrwZ7DFendSGzjEz8O6XXoSn14fiHvEANreew5ZhBrkiYZIx5hM9OhBvLdc4T4cc5eCNlmOolVeF5IIZ0kYYsn5k9jFz9M4GlutU/L/lWI9F0Gi5xGU00yH5V+zfLgd+2tY08rrOzs7ecr7tgwXk9ZB61Eo4a7PsWi/n5ZJh9Us7VCKdPn74jsF+G3rxwyZIlRXthZVwNu3fBu7rT+6o/MfDyDF8vwKA/Hy3wDrL9sPPRAqwp98NxMV21L8v5DPgzcg2MDfD6DLvcOxK+Ve6+MAH+AhxBBUfOSGW8z/ldxr66i1Grf9bAUn0/UMD8CF80Ek3j/tsbsABiDlos4q4KXB8d2Ve+aN67fn1y7Ny55U1ePSNJ8l/J5YrTKL3+zMH92w740rFw4cJ/zJhxwlUQSl3VsGyrEeZyyXEZzpUYk2ZcffDtXbB7hV67NcBLImwWYC/SWjKDdesI+EFZPg9wZIb6Qte2w68rEaT94M4uuKjUqZQRDuuGkQNJpvXB60K257LvVGo0egEu606L2f/Ia79qWQHWdKernh5Y4n2RNWcbgAks1bUizM3BbKDVaDSFuVlXFqoHsQHPSTWh1xCURwjxnsWLFz9dqddfsGDBiozJpC1POWXaK+bMOfemQZ7ZAqDU9yzbaoQhlF5bKcawbP78829uwm43OcDkivbrMn6NRTitHAmV7rQm5AEZvj+/GSpYxzrA9yi9FtiICFMYwA9tAQ7Nsn0eKroiZx9c7EOi6uL7Ge4v9QKQwCZGrP45hVB1bRL8kwr98qaakxTTJXMbTnRFFFXmps4pIPV1S5bpu6yvL3n1YN+xtXX9j4G1JV+ryjCNcPr06bsD4zNc+i3eXvu+MzFbvagXum69htKLofcNg4sreWIFuAJ4MMPxv3aAbzUlw7bLx8NddjsJgEczfD6HG64GuFsyBGoA3zYETeGX+8GdDXohNtGgsov2q3prsaw/xuwz2Hfs7FzyVAj8IsMug16NMJ8vviPD5hva2hIXbKltfx4BHy3XiyUZRp0F+Nur4IlqnGOGbadkffGl6YqxJU8XjRVO2kl1dq/jj8BNxgSW6l4BLiMtPKrG9vVGPbHEZatVAcF+VVfmzVt0TYwZRnqEsGdZrj8JWUY4lWM1wmNKfjCJXNzZef6j9o6adcU6eEs5azGFDInZpEyjvkp4QL48w+avzPr6rbA32cq6LLfrqZGsgLZu2KILdumGba+Hl3RbHkbPw+nNapQHta/HzKs4qY5c3T+Mv1H77+M2scotgceMQl2JIXANsG1JG0fKksDaaaddf3/33bfdB7y0tPeNUxlgHazp06e/CpJxGa6OTh+s1c4KF7fBcQVYXeaX3jfDtjdW6XRvybDtVsthywnwSKk75GD3LEW8cvB3e6DqzVLYbFg6QnFyAnsG2IN0AYlN1/ZP7XumLt8zGfHudCT53f1/d5Emb//WDisCJEa1OTkCSw3hdvgxcLORaNgb5c82+Ck6wkBlF0xg1d+1LoZ/lNy+gW2nTZs26IK0s2fPTiCel2GXAU8jbGlJjs2w+SNtbSN+a6+oOX3Apwvwtn3KnLy6FYYBLyt1+wRuqsYJ57OXL9g14z3ODhk2X3d7g5ZTUONZBtv0wBk98Lc2eCTCxRE+GeAoYBywNS9cl2oY6fTa/wHeCZwNXN8Dj3XD/G44OJrPaDqOwFJDOAaK3fB5YLHRaLiH8K52+G2Dn+Nj0aZW+ZnAqjvJrVnWhmttLW4N3DHoa1AIc2MsuY7RgFcjjJEsReDP6+zsdCXNGnseDXBqO/RU4sVXpaMPS/0AxBxM6C5DLbgXU4SW/pUOQ4nbZ0rwBtguwz3AHce4cnEt+HCE22vkWMYEWFhLwVkOe0X4VISjY2WmAo4FTgJOCn4emo4JLDWMdvhxD/wvA6g/oNoV4H8ruUR2LeiFh70Yq9wiPGwU6u6Kd2vG27iyJLDmzl10S0fHtGUhxEkl9a0BTCPs6DhhIrBbqdvncjmnD9aOawOcOQGWVPL7uA+2Dxk+LAHOr9J9SFbbVmr7CE/ZHWvi3vTyQoUSuVkthy1rZS5dN2wKfDWBmUC+Sm+bt0c2F4fcqZG+TJIcnG4kGuoB/OIJ8MdGP8/J8DTVWUlJzfUFf5dRqLM2y3FPlu2TJNm6fO+eZEkYZZ5GGEIuw/TBuOKccxa6OMvQejDC93Pw2gKMb4cLqvBj0jYNErtNM33yoOSpwAFW2TVVi7rgAOAG0ql+JpVUyftbqXH0JzsuMRINYUMCH2mi8zXZoLJab52U+rspy8XV2bZnTLneO5/f8OO025R6/5hpNcIA8e0lbxyYZ28YMjHAEe3w0onw3gnwl2q9cYBRjRDA8MI1fQa7vQks1ZweOCGkz2A7GA1VmrNW1HCK8KE8vJ608J/q9Q4avr0f/KOJzvfOAONteZXJyimubll31qyJq4cNyzJhKQwv13ufc86Sx2fOPPGXpdapyjKNcObM6QfEmJRanLuvpSWcZ2/gwgB/KMN3y5eAl2TpVBH2DfCrap9wgGENUi9gRMbth2doz9V+NFRLeuCoCAtw1JWqxASWGs5+8I9u+CLwOaNRt+4e2WTtF5ooWafKi9mWfVeN6O3tXT1sWOm/vSRJUtYfakJgQYZC6wd2dHRsM3/+/H+W0COPyXAYf+jsXPSgvYGr2qFzsC/SnU7Ly7qS7wevgu/0T2+v5nVrRIO0XV/G7XMZNvTZTTVjORSStBadyStVjVMI1ZBWwpnAtUaibs0a13zD5G+w2VXGL/frjUL9WbJkyQag5JX3crnyjcAC2GGH+34XIw+W/Pa54ttK2C7EGDNMN4wWby+jPvgW2UdjbtYK7632sYYB1UuvSWsybr8hw7Yj7dWqBd0wsj951WY0VOV7XKnxHAx9ubSIoEtw1585Bfh9s510NOGg8jIhWr9KfpiNsbxFtWfP/nNfCKVP34sxHvVi28ycOX0y8NISX/KpVas2/NIuUD79o6i+PYDvpA9dAaOreawJrG2QsK/OGOv1GWK0ib1aNeLDwK5leJ0ngNuBngjdwHWkq+s+TONcE1RGJrDUsCakF8HPGIm6cvs6+FAznnhIp3yttwuoTP3JBFYdmj17do4MIyxijGvKfQxJkstSQP2gk0+eutmLHOPRGV7vJ0uWLPGBpcwGOApr8xHwviofaqO0/aMZr9dZvvsdgaUhdw2MBc4Y4O5PAHMCvKUPdijAZgXYtQCFiTCxAPsW4OUF2LoAI1vgpREODjALmAPcbQs0NxNYamjt8OUAlxuJurAhgeNeDSub8eQL6WhBl41XeXIQaQJfdeaee+7ZhAzTqEIIZX/gX7BgwYoQQk+Jm7cmSdsRL7xJlumDOH2wAupoFFZDFCiP6ciRkoUMtcaCI7BUA4ownezXhqcDfHRT2LYA72yHiyfDfS+2075w/0T4czv8qADvLMBORdgD+DzwT1uj+VgIUA0tQHIVHNsCPcD2RqSm2+pDk6CrycPwt/RZQxqUGwrwlGGow5uylg2jejNNfC//CCyAJEkWhBDaS7x6H8XzJJ5OPnn6+CRJdinxbW+bN2/RlfaCyuiDb7XAB4DNMuy2+fC0FtaZ1TjGPDyQlL75PyK8qRZjvQoeyPQphocybP5Se7Nq4J79xIzz1/8OvKkd7inH+/evUv7pFfCFtXAucIyt0kT3SoZAjW4yPLQcpibwZyw0WKvOay9xOfYGvyFYGtOaAtJg/M0Q1GmSoY8x2fbIVeTX5yTJn5fPJ18FSlnl8I0zZ84cPXfu3JX//TpZpg+GBemzvCp0L/R0dzoKK+uKhB++Ar5XjdHRObgnQwLrZavgnoOzr/hXi7IksDZbCptNyT4lVCqLq2HzCO0ZdrltAxxYiT47DjZ0wQPBZmkqTiFUU5gAVwKnG4na01+w8Z1GAlrgCh/gVIbP1BVGoT6FkK0gbpLk7qvEcSxcuPAxiJeUuPkw2PA8I2FevMj7Mxvm8yy2B1TWQGthDYfTqnF8+8CDlL74zrBNYfcGuWZnSWAxPJ0+JQ3VveqUDDmEGKHDhKvKyQSWmkYBzga+YSRqyv1FOLKQfcnphrRPWjfDOlgajCQPlxqGOn2QjeyVZfMQwv2VOpYQwoLSjzv8V6Jq5swT9wD2LPHd/jxnzrl32gMqa6C1sICPVKMWVoAEuLnkfgevbJCmuSPLxkXYzd6sIbvJKPm6DsDlEx0VrjIzgaWm0g5nRLjISNSEJxN4YykFHJvqARZ+axQ0CF0T4BHDUKef/5jpweDe+fPnr6vUsbS0jPwNJRejjoe9733ve9Z0wySh5OmDIbDQ1q+OQYzCOrVKh9hT8ucFDm6Q7/2bs2yfg33tyRrC5MEuGTb/iRFTBfqg1DwCJCPhuAC/MRpDak2At0yCFYbivy7KJrA0mAch+099y/Jgel0lD6Szs7M3xnBeiZuPXr368dc+6/s28JYS910NrT+16atjEKOwzqjGKKyYIYEFHH1ZA9TznZSupPZEhhgdak/WEN5nlFyrMaTF1qVyPytJzWUcbIjw9gh/MRpDYkOAo9vhr4biv90OS8lYD0PayC8MQX065ZQTXkqGBFYILK/8USVzS94yyf2rDta0adO2AiaWdh7xoucqAK/KGegorGHwnio8mGS5N9tyU3htI7RJgOszbL5nV7ZRMFLZRBiVYfNHjZgq8D0hNZ8CrGmDw4A/GY2qWhPgLe2OEnlex0ARp7lqYG6faA21+k0q9IWj0+fYkh8jrq70Mc2fv/gG4NqSHsBDPOKZf29t5bBS7zGLRRbY+tXVPwrrW1n3C1UYhdWeJnLuLXX7BGY0SLNckbEtDrcna4j0ZuinYw2Xys0ElprWPrAaOAL4ndGoilUBjmg33i/+WAoXGAUNwPmGoEKfychus2aduG0l3yME3p5h83UtLZtcXo1zDyGWmmB6eUfH8bul8YqlPlzfv2bNhj/bw6qvL51GmHUU1hYj4N1VOLxLMmx7XBeMb4AmyToqvaOSB9MKO/sp0XN+J8CqUrctwnZVOJ5RtkpzMYGlplaANZvCWzFhUGn/DHBQuyPeSnJneiP7gJFQFtFiqZW0VW8vP5s2bdomlXjxk08+fhLw6iwPu52dnVVZvTXGtsWU+It7Lpd/w6xZs1qBN5T46guXLFlStHtV30BHYUX46IoKPzAm8OMszzIBvlDv7bE2LR+wPsMuE3rgkEocy7WwfYQlfkr0PEqu15aDgyp5IMvhdVQ4mVtGrXad8jCBpaa3G6xvh3dE+KzRqIi/52H/9myFWZvaMVCMMN9IKINlE+FGw1BR+7W0xF/NmjVrZJlfNyRJ7ssZ96la0fN58+Y9AvHXpWwbYzyor2/daymxyG+MiasPDqGBjsJaW+FRWBPTOli3ZNjlsC6YVs9t8WpYCfwhyz4RvnoB5MucENiuD/4IvNRPiJ6n392WYds33wrDKnEcXTApgQupn4UcHClWJiawJCBAnAizI5xCtl/A9MJfXL/NwwHj4S6jkU0Cc9J/SCVdw+YYhao4qLd3zZ/LOZ1wxowTZ5HtV+q1ra3rf1zV/hVKrlN1cIzFI0rc9ur588+/2S41dAY6Cgv4WCVHYQWIQGfGfTq7Yb9KHM9yKHTBHlW4jmdNTE/YBT5RxoTAHglcThXOVXUty3V7+yfhneU+gB44JMDvGeIaWwHWZYlFI6yaWgtMYEkbmQjnAFMw4TJYEfjynfDm8fCk4chuP7gzOOVSpVm1NtuUGw3yq6K3l66TTjrhdYN9oRkzph1COgomi592di55qponvHLlhksobTWpzSF0lPiyFm+vAYMYhfWuSh7XiDSB9UiGXYYDP+uGCeU6hlthWDecmcCVAX5/VYVHJeXg56T1WbP4TBeZ6uc9X0LgiABXArv6qdALKcKy9NJRmgCfXwbjyvRwkeuGD8W0nu6mNfCwk+UZZ9go2NseVJZrpaSNFWB5K+wXXSlvoB4J8JYCfLx/RT0NUALfMwoqwbz+6Seqnu1zufCHGTNOPGvGjBlbDuQFZs488RiIF5NtekUsFnNfrfbJLlmyZAPE80rcvJTpgxuKxZy1J2vAIEZhfbySo7DGpYWiv5Jxt22BK7rh+EE+lIYueMtTsBz4OOmoiR1b4PfdsEWlzrn/B7+s02rzARZ3DTCh2A1bdMOPIvwSeImfCJVyzQhpEqtUY3NwSRe8cjDv2wV7dMNlwNepkZFMMfuP9NOzvscKGFXp1V/rjQks6TnsAw8X4LCQ3hCsMSIlX8j/mIN92+FXRmPwCukN5U1GQi+gSPYRPCqPALwHem+dMeOEz8+Y8Y4dStnppJNOevnMmSeeHyM/ATLW04q/XLhw4fVDdLrlHDH1y4ULFz5mF6oNtToKawN8H7g9424jgMXd8Kuso7EugHwXvL0HrgnwC2Cv/9hkT+CSChex/w7Zywe0BfhBN1zSXeIIj27Yths+TVrP6BQ/Bcp4v5/1B4iXBVjWDR/J+vlZBuO6YX6AGwO8ppbikMt43QxwWleJJQO6Ycdu+NRauHNUiXUlm4XzMKXnv8hEoHMZ/C2X1peZbFSe19MBPtEOZ/XHTWXqg93pzezZRkPP46JC9gc8ldemEP4ftPzvjBknXg7hshCSZUnCgy0tuVVJEtsgtwMU94HwphiLB8c4oB8Qe5Ok5ZNDdZLz5i1a3tFx4vUh8KoyPP44fbCGTIanu9NRWJ/LuOsZ3XB2oUI/9E2BtcvhXUla3Dxk3P1w4LD+ERu/CfD79XDrFFi70QNiax52KsJE0ofKtwEvNqJy0jr42a3w5t0qUDO1ADf3wOI4sKL0hwGH9cDSBH6dSxfPuTuB9RFG5GFroB04OMLrcVU0DVARFuXhy2QbQTwC+Opa+GQXLA5pvbWr2+HejZ8droIxORifhwMiHNXfZ2v1y/8fT6XXgVLj0Brgd93wgwgX9MJNU+Dx62CTdbBVC+wRYX/SFUankA42WrcPPGiv+zcTWNKL3anAiggH9MB7gS/iKhLPfgyBi4tw6mS4z2iU3wZY0AafAbYxGvrPj18CXzUMNSOf3nTGQ2IMhADF4jP35MkAnr//q7m/tmDBghVDeYK5XFwYY/jaIF/m4dbWTX5nd6ktffDtFjgd2CzDbluTrkj4jUod1wT4Yw90xoGN9gr9D4KHRPhqG9CdTk18hLT48+jiAJ6FIrz+KVh0AbyjEqUS8vC/fXA0mUdo/uv4pgSYEjcKQsBfF1U++8Fj3WmduvcNYPexAU4j/aMn/Vw+QVr/bXPSRFdd9NfdYH03XEu2BSTagPcHeH//NYne/huI5znnu4KLOj37XsQQSCXdASWFdCTM7jG9YHshgVuBYybCW0xeVU7/r8VfMhJ6juvSxZOgy0g0hRtXrdrw+SG/acwli/rvtQdjcWdnZ69NWlsGUQvro90DTLSUagx8gGw1d17IKGBn0npPg/kh/+27wDlx8Jnp/7Iv3B9gtr1Stawv/VG/XPU3X0K6SMKIOgzF1RW+17vT3vYf9yKGQCpdAR6cmP4KOCXCX5o0DI8CHx4BryzAEntF5a2EH2KSUM8Wi+nIPDW+Vfl8OGbJkiVrh/pA5sw5/yEIgxo9FWOy0Cat2QfSgdTC2jpWuBbWbrC+f0RSrX0PntQDFZnWOwG+HuGP9krVqsnwUExHbTa1XIVXgU7gDnvbf8VcUlYFuHoivBY4sH8OdzNYSTrffdcCfGMcbLAnVMfBsI70ly7pGRdOSoetq2rP9kMyo2FDCPGYOXPOraHFHJLB1K+6cf788+y3tftA+jTwzaz7hSqMwpoM9+XT6YAP1FDI7ogV+iEvQBLhRIZu9MVTfiL0YibC3AiLhvILiXRGyJCZAFeSrlhKha4FjsD6DyawpEEowBXtaeHPA0lX3mvEEgP/jPDZPOxYgI8XvKkZmrtk+BFwg5EQsD7AJwxDVT0QY3xvla/xvTFy7Ny5i39TS4FYtWrDL0lH4mYWI/PsSrWtLy2XkHUU1jYBZlX62MbDrTFNYg35whUR/pKDyRPhlkq9xyT4ZxEOHejnbRAPzJcCx/hpUClGwslDNFpwQ4QTgItrIAzfqeDn0QTWfzCBJZVBAa4owBERXgWcRf0neSJwWYTjgR0nwuzx8KQtPXSOgWJwqLbSD+fX29Olz1VF8+cvPivGeCLpiMhKP0I+DuHQ+fMX/bzW4rBkyZINMcafDGDXPmg5z55U2wY6CivCx5ZWoX7NRLhlA0wawul1ReBzd8IhE9Ji8BW1H/wjpKuSVeWaH9OC+Yflsicx1aTGwYax6aqf1Swrcn8CB0+s8PS9UrXDucAVlXjtxATWfzGBJZX3xurGQrqqxnZAR/+vWMU6OoU7gTPzsEcBDpkI5xcGX7BX5fuC/BPwCyPR1B5Yb1H/ITN//uLzQggHQri5Yg+QMSzL5eJ+8+ad+6caDsWC7OfF7+bPn/9Pe1HtG5EWc8866mebtiqMwgKYAo/fCW8EPgysqVZcAnRFmFKAzxxTxXu7drgtSUf6X1bBt3kywvSJ8C7v+5TVbrD+Djguwv8jnXJfSRe2woRJsLRWzj9A0gfHAQ+W+7VbTGD9FxNYUgUUYE0BFrTD/7SmyaxTgd9RlV/uM/t7hK9G2K8AuxTgE+OHeD65XvCifSpO42xaAd736vKt+qMBmDv33O5Vq9ZNgHhmma/pTwFnrF69bso55yyq6RF28+cv7iLzlOawwN5TH8bBKtKC7ll9fGmVVhE7BooF+EaAfYALqOzq0LcAHRPSKYPLhqJNJsE/2+F1pCsylvMeIAIX5mDcxHQUiTTgz+RE+GKESVRmNNItEd5agKn7wMO1dv79K7IfAtxVxpe9zxkwz/ksJKmS9oGHC3B2Ia1jsHmEw0M6PP9qhuZXrnuAxQHelYOdCulNy0eH6qZM2UxIC9h+ykg0pUva4SLDMPSWLFmydt68xZ+Avt2Bs0kf+AfqkRD4v1xu/S7z5i362pIlS+pl1O5jGbZ9EvIX23PqxyBGYb2zmsfZDrcV4NgA44H5wOoyvfT6CBcHOKod9irAglDZJNmLChAL8J0NsAvpojqDmeaXAJcA+xdg6oTaKo6vOjYRrmmH1wQ4tH8mymA/N8uBjpXwyonwy1o+9wLcXIQCMIfBjUS7F/jIOtjLHvWc10JJQ6V/1Z4JwKsi7JODV8b0xmSbMrz8GtJhpzcB1wM39EH35NpbhloZRcgth79GmGI0msZTffBKP7/lM3369B1bWti9xM3XzZ278Hl/UZ41a+qmGza0HQPhrSFwMC++Its9wB9j5JerV6//9ZIlS+pqVddTTpm2c7EYb6P0H0J/OG/eonc3e5/rgUOSEmOWh1snwN1DfI+yd4Sts+yTgyfaoWeojvkKGD0C3hLhDcDrSUfBl6IIrACuiHBFgF/X+qI1t8Kwp+GtCRwR0pEfL3auSYCeCBdHWDwR7ni+Da+CMfl0JE1JVsEVB9fmLIOSXAvbb4BdS91+E+gZN7gfLsr5OW1NMtwP5uC+QhUXQlgGO+Th6AgHkB7ni/bT/ueW3+TgognQ/UIbXw2752DHEg/nnxPhxiq1yysCnB7T6c47vcjm64EbI/wpDz8bD1cPdcK8lpnAkmrQUhgxHHaOaSJrywibA6OBUUDrf2z+ZEwvfI8FeCyBhxO4ZzI8ZCQbVxfsEuDa/n6hxv+yPrEdFhuJ2jd79kEtd975sj1CSPbI5dgiSeJLIK7M5cKqGMPd+XzfzXPmnF/X1+cZM6Z9AeInS+6/ITdl7tyFV9o7VG1Xw+a59EHyZQFGRXhJhA05WB1hVQ4eStIpP/fUe+2n5bBdH+yWSx+WRwJjgJUBnopwWyvcuE/5RqhJA9KdJpteHmEzYIsAY0n76FMRbhsGf2+0ftqfZNu1/3y3DGmy90ngqSLcuRpuObjytcMa6Z5YklSPuuDkkA5TVmNbUnBJc9WIqVOn5keNGn4nxB1K3OXWefMW7UFaa0eSJGnArIElSXVqIpwT4KdGoqHdRZVrykgvZMyYYYdmSF4BcQEmryRJUhmYwJKkOrYWZpDWOVPjWZeDqQVXnVQNSRJOzrB5zOdz5xk1SZJUDiawJKmOvRpWRjgSeNpoNJYIp71Y8VKpmk455bitgTdn2OWyOXPOvdPISZKkcjCBJUl1biLcApyC03QaydkTYa5hUC0pFltO4r8XEnkBcaFRkyRJ5WICS5IaQAGWAJ80Eg3hdyvh/YZBtSd2ZNh4dQjDLjJmkiSpXExgSVKDKMCZwNlGoq6tAI51OWXVmo6OEw8E9sywy0/nzp270shJkqRyMYElSY3lA8CvDENduqsPDrVou2pRCJmKtwNhgVGTJEnlZAJLkhpIAXpHwNHA74xGXXk4wqGT4T5DoVpz6qlTR5FeV0p136pV6y43cpIkqZxMYElSgxkHG0bA2yNcaTTqwmMRXtdfjF+qOWvXDjsBGFX6HmHBkiVLikZOkiSVkwksSWpA42BVG/wP8CejUdMeCnDIRLjRUKiGZZo+GGPfIkMmSZLKzQSWJDWofWA1cATwe6NRk+4twmva4XpDoVrV0XHC3sDE0veIV86ff/7NRk6SJJWbCSxJamAFWLMpvCXAT41GTbkpBwfuB/8wFKplIXBKtu1zC42aJEmqBBNYktTgdoP1E2BqhM8ajRpICMBS4DUT4G6joVo2derUNgjHZ9hlQ19fWGLkJElSJZjAkqQmECBOhNnAqUCfERkaERaNgUMK8KjRUK3bZJPhRwFblHydCfxi4cKFjxk5SZJUCSawJKmJFODsAIcA/zQaVdUHfHwiTNsN1hsO1YMQkpOzbc8CoyZJkirFBJYkNZl2+GsLFICrjEZVPJTA6wvwZUOhetHR0bEThEMy7PJwPj/SBSMkSVLFmMCSpCa0L9y/Eg7sr4tVNCKVEeDSHEyYBJcbDdWXvplZ7hNDYFFnZ2evcZMkSZXSYggkqTkdnE5rm92dJlcWAi81KmWzHvjMBPhqgMRwqN7kcuwNoafU7ZMkmW/UJElSJQVDIEm6BsYW4WvATL8bBifClRHeOQlWGA1JkiSpPHxIkST9S086rbATeIXRyGwN8Lk74GvHOC1TkiRJKisTWJKkZ1kBbWvhPcDngDFG5EVF4ELgIwW4x3BIkiRJ5WcCS5L0nK6F7YtwZoQTcNGP53N1gNPbXdFRkiRJqigTWJKkF7Qc9kpgNvB2vzf+ZQXw2Xa4MKQjsCRJkiRVkA8ikqSSLIdCAv8POILmHZF1bYAvTYAlri4oSZIkVY8JLElSJt3wcuD9wCnAyCY57b8F+PIE+JUjriRJkqTqM4ElSRqQa2BsAsdEOBXYpwFP8ckIFwT4XgFusMUlSZKkoWMCS5I0aMtgSi4t9n40sHUdn8o64DfA+SPgF+Ngg60rSZIkDT0TWJKksrkA8rvCQUmayHoTsFMdHPaTwKUBfrEWfvFqWGlLSpIkSbXFBJYkqWK64RUR3pSDgyJMAbaogcNaB3QF+Avwu6fhyoOhz9aSJEmSapcJLElSVUQIy+EVCewfYF9gb+BVwGYVfNt1wN+B64EbIlw9Frp3g/W2iCRJklQ/TGBJkobUVbB1K+ycwM4hnXK4LbA5sHmEzQOMBXJAKzCKtC7V6v7dnw7wVAKP5eCRCA9FuDsHd/XBnWvgXkdXSZIkSZIkSZIkSZIkSZIkSZIkSZIkSZIkSZIkSZIkSZIkSZIkSZIkSZIkSZIkSZIkSZIkSZIkSZIkSZIkSZIkSZIkSZIkSZIkSZIkSZIkSZIkSZIkSZIkSZIkSZIkSZIkSZIkSZIkSZIkSZIkSZIkSZIkSZIkSZIkSZIkSZIkSZIkSZIkSZIkSZIkSZIkSZLUXP4/BC3i4hlRmAwAAAAldEVYdGRhdGU6Y3JlYXRlADIwMjEtMDQtMTRUMTA6NDY6MzArMDA6MDAPDG1EAAAAJXRFWHRkYXRlOm1vZGlmeQAyMDIxLTA0LTE0VDEwOjQ2OjMwKzAwOjAwflHV+AAAAABJRU5ErkJggg==;imageBackground=default;" vertex="1" parent="1">
          <mxGeometry x="885.64" y="180" width="102.71" height="60" as="geometry" />
        </mxCell>
        <mxCell id="0G1YjZtWjZHLyLZfflZ1-131" value="&lt;h2 style=&quot;border-color: var(--border-color); line-height: 18px;&quot;&gt;View Layer&lt;/h2&gt;" style="text;html=1;strokeColor=none;fillColor=none;align=center;verticalAlign=middle;whiteSpace=wrap;rounded=0;rotation=-90;fontColor=#FFFFFF;" vertex="1" parent="1">
          <mxGeometry x="237.5" y="150" width="155" height="30" as="geometry" />
        </mxCell>
        <mxCell id="0G1YjZtWjZHLyLZfflZ1-133" value="" style="shape=image;verticalLabelPosition=bottom;labelBackgroundColor=default;verticalAlign=top;aspect=fixed;imageAspect=0;image=data:image/png,iVBORw0KGgoAAAANSUhEUgAAAKUAAAB7CAYAAAAVH0CFAAAgAElEQVR4nOy9aZMlx3nv98ullrN2n96mp2fHLJjBQoAbwE2kwE2iLnV95VD4Sm90/THsryG/cYQj7AhHWLLfWGJYIZu6Ji3ykgLBBdtgMMDsMz0903v36bPVlpl+UafO1t2DBgHi2iKemdN1Ti1ZWZn/fPbMErvdlgu0R6g1WAfWgnNgHU6AQ+AEWCEAQAgg/+54Moli64Y/xGDvQTRa4pPO+5QAFOnv/B4Z+gP67GMgAcqlZFmGER4iibtOCoEUAgdYXP9ffnZeoeEWMfJ9jFzxf/J+Y+cK6AN75Lp9NILiT+lQctjf+T0O7uuPl6wzONVDk5E6hfaUAmtwxmAFGCkwEowAiUA5kIBwog9NiRDjY8e5vPrFzoNgdvhjieFmgEWBcx/Ehz+lT4SKfvkdknOO2AicVADo/IYy54B9XMk+x5OIETAOiuj/HYGZyPe44eFxEhPnH3xKX86P7viUnkQC+Und6OMpRhxcUCYNKRmeFQgh0LhCLOcnSChY35jwHiXnCgnsBhCl2IqDcCnGATd+ZKyEwTf3CTX4p/SfnXzrgwTfOpxz6BwCoyLZ5cC0bsA5ByRyGAr6uBWOUUAWUnw/jUBugsEeyFg/ldy/V5QhcwNH5IabSOPUSalyQ6cwVFyO2EIsD7YwMFKEEH0Y9j8HIOkoIO0XOvK3T0b9Fo/3+0VCfBLSxH0C+n1uQwhA2gQ9hoS+lHWjHHLg1xGABWH7WzcQ7u4QC+2DbOz9Zw1PVu537+74/ztZ4f/O7+Gc+9j6ItPZIQdCBBLnLC4NEFmSOjHCKfs1GdcVCy4ozPCDARQgwan+d4ZXjVrTjtHSDqUxeNpPLZ0PosMMh9+WRjliUfbHySUPL6tw2/R1yjEjWhS6YuHwHkGWAJA4J8gBWCDuMA6ZXzNajyN5FwZawqeg/GAamolHBY8QcqwTCl+nlV0QYIxBU504z02UMep33q9CHOY/PaxPnetzZFKM8PqgnABmAR832FFUSvXVyxHfYt/VXmiYE7UbAeJQb/zUBfn/HRJCYK3FOYeUEqUUoi+lhBR97nX49aNhlo+LdD7CHK5A8cDZOCFzx1xA7DvXTdapuPyQ0bafJjzvnzLKI9CT23SSMznnMKKNkAJtPAwaZVOMSpEmQfa9MEb1kKnCqeDoVfgY+0v3azumQ4pRvyMj2BvcfRScbmI7et4EPbENxw9+yk0/Ok2K9MJoyZwmlQmecWQ6w9nCzVf0tyMWMTJTSCkPBHdBA0eim0TE0Ttwsq9zTilc/4gbQG5Uv/zgm+2Pe4sDYPuBlRu73aes8oPoIMNk/ITxfcOcGoFnPDI0ZBoJOCXAxINjVliszXVDpT5Z95zOlWRG/Izjo+Ygy/koIDv0HDG2+ZQ+JnLODYHphr7kUbLOIgToTJMJjRRqYJRo49ExCVooAiFQSmFNziUnOe5oucWx8Xt9NDGnYcQVecSLfpsY/Yc1pj9NyPjwNADIASK1oAwNTvUN0yFDSp3KuaQwZDLFWosvLUZ4B6oBBX0c4nsSeXpgNQ3k9VHKOKqt9Smwfpd0EAebdNEMo24AAmWruWvZuREQS6QCmQYIkWCTLnEcI8IQj1oOZA7jih8/aRwMolUfyAIng+EfRB+l8p8C+uOmJ7ESIQRSazCKOG7TarUA8Eo14JOVXHrolxyS27enf87HOEA+eLB9qnV+WBL9BOxRKxpy/6O1ljRLkFIiRa4rSikRNsapHsLEIJp0400eP3pIq9VCnzpFrfQCzs0hZc65Cg4rhJhwov/2/VXgXYg8xUyPJY+N+BTdkOMfcJwBqo4eSTi4Ik+44kjl/n6RwLlhtGTUuBEIcALjMqy1OfikzNMMTYyRCUolZPqXdKISmqzvMG9iTIeku0crbbGxscHGxga+7zMjL+LkPFk8NXANjYJxmMLY99hMhFCe6B3YZ0D39VpAi/40CNd3RorxM8eco+OO86Pa4MMH+DD0aZSxoAludIA1PErOOay1CCFQZIDDOtcHZpdu9xHNZpO9vT08YUD1sKpLFK3SjjZIugprYzKqKDeFcCme9vKyn5hWMxwcrt/vT+zDAS/cX6amzzIdDuHcAaJ7f0b5h8PXb6eL/Guzvg8yDkbdLYclQww4oTgwkDvuCsINxLK0CT2RorXGEz6IiCze4O6d12ntZsRxTGKalDyBVzYIsYuli/A8yqqCJyqgQ5A+SiisdWRZghASIYr7FCln43WzzsJIPH5Yv5EBdohD3uH6oMTlsxcZT+6ZHBuTTfJRgPP7lnBRdN5YMGIQVy6AWThBCqCJsX2j140XXgQ88sKllEiXx7GVS7EipbO7ye7uMq3oJqK0i6wklEyMJgMvwqYhFk3WU0SRYaZehR5EpYggAIftA3LSR3mQ9TEE6Qf18+RzCSHQBxvcR9UTf7+A9VHJDfTyYXLKqH40Dr5J1Wd/n4x2/lg2lhBYz+JjMcaR0abZWWN5c5ndTkS9XMfXCb62pK5FmnpIl4CJiCLF3l7KdHWRXurodDp4Xq7HFsbOoG4DvfDguo3j9WjgdM4hD8oYH8xycONFfQrBj4vyxnUjgISCU+THB5x1eHrecSNuxwLkg+BbX580xgw+TvWQUtLtdtnZeAz6McKLIIuITRPlUiqBQgUVkq7EEzVmSk9Rls8yW/kO07Urg7qIYnKhGA6no0nLI3q1+2XpsXYa/3Jo8U864yDu+duI+X8tXPiJz97H2GhMeijSGWlsN6ZzFa6TUT1zlNNYa3FkpKqHby2+MARBQLVaRTYAF2OSLjbqIuoepRD2NhOuvX+PpYUXOT5/kqQr6bV2mJ2WGERfdI863YvR8ATf50hMeZKTP6mN5LgIObjhJm87xj1H3ASHAeko5/xrpaH/TrAvoDti0Ix+8kOTyRQjBs9IJyZJ7nsUUuSxbSRKKgIXUEkryESSJAku7RGLGE/Pk2U1tJ4jIiRNKqyvpzy8t0nJqyOlxNBG+gnlKYEVHYQAaw3GZFhrhvcf6c/J7WQmz5O6vbjGEwYY5ZTF1Z/Sx0tiwrHsxjttzJAc4XZKSZwdZ5lDTjo0auI4plwp48wQFJ7xAT/nmiYlS5v06GFlB+mfwLQTKAt6zYRWq83779/H9Rxf+cpXIAtxaQ9VTqnVDEZ08F1KihpkDeXMRQ5E+kEDaSxqPSIJDqJJTqmHLTN+YExMFxbgyB0OzJR6gqgar/DvF7ccIzH+RcAYhyy2Uioyk0+0Oqi9jMm5iu/7/euHTnXjGSAX435Qx9LF7vp43gK37v0cm3RRGxV2WhHb23u0WoqLp+apNTS7mx5aNCiXl1BqFkEVK3yczTDGDCNBOETf8DmMqw/oyVJ+HNiIYoWMo9LRkP6kc36vATnRfpP6ecGJgKEPUBRbxjhloTt6njf4naqEwIVj93Kqx/rjdZqbMTqs8uufbhHtlOily/SyHY5PH+fLX/xT5ubm2H4Uo6ly+sJljlefQtlFMjGFkjlHMsaglGI4/bp/p0Mc+mOTGT4EHWDoDJ9pvNHE8PcngKtxp3Cx8wgXfsi6fVRf61GuH4rvQhdjYORMOs2LT7vdGXBBaw29Xo8wDCmVSiRJki+nIwTGGrIoG2SQxyomcEFfBzS04x4/f+03vPnOL/jcS1eIWrDZucnT589w+tIzlDxBfc5HJLsEU46ZeoNjxwKUl2C8JrpXpecqCCkIgmCsnoPQ4qE+VHfAt3E6qP10IblHOeyYNC/E9ujo6JuMBxV48IiZdLgejX4rwHyCavFR67fPjzf4uV/sFTFmz9MopYiIyLKUZtyEEMqiPORWQBZndEwHaSXGM4QmJNF5DDwjY7Y8g1eq0Usdl559gcrif0O95FGr1WjUSrTbbaL2LpGKOLk4R612iml9HKsCZK9CN3V0kw7lcpkgCPvPbUc49hOeekKn/CBKnUKKPqcsQFdwwUl9Mi9UDMDbV4TGq/AB8diCjiq+xzOpj3TJOB2xIT4JTnnAlRQPNZpxU3S08TI84ZHIhCxJ8X2fY8eO4Zxjp7dDGIZ55CPTpCqlVq7hCUMrbdFJO0x701RUhZ7sYaXPF7/4Rbyax/mlz1Ouz6C15lh5io7toHTCqUWPNEuxSZcZbwnHNHHs8HUVa2IajRI7Ozt4nj+o49BfOXCajnXTaPMfpYlG21EP/GC4MawVHvkh1zwap5y8yQf5pI5a0Q9NnwDH/FD1c6MbN76zT0VbWWtZ2Vrh+vXr7Ea7zM7OcvbsWQBu3brF2cWzNJtNdnd36Xa7LCzVuXTpEoSwvvaQPdYxwuP+/ftMTU1Rr9fRYZW1TpMH9/ew1pKd1Ny4cQNPGM6ePcvJxTmMqLOepty8/jo7yxFhZZpKqDj/7FM8XHvI5VJ58MxKSbTWIwbaQQ8txjaHteGkJNWuX+A+fy0TOxHj7PiIovuwjjtKTLRwEv/WdARu+Z+HUzLiOB8C0TmHCxzLyw/5p5/+kNu3b3P27FmuX7/O8sYys7Oz/PRnP2VmZgadaVobbXajHdrRJueeOcdf/Pm/49qda1z95VUSK1Gp4oWXX6R1o8W1O9ewgePmrZvcvHmD2dlZ4t2YXq/H4ql3+JM/+ROWGkv88J9/wuv/8nru8jElGrUSP78WolLFhZMXBilxo31zUBOMDb4PaKJ9znNn7ZjOM6pjDj6u0Iv6nxH3xaTT96g0ee2hn0P/jdbxkH9HKP8o9TtqY36oZy1qPhGJAVhefsA//MM/cOzMMb71b77FmafPEAQBXdflV+/8ih/80w8gFPzhH/8hL7z8AsY3/Pin/8hr137C+7ff4p9f+2fuPL7DifMnOXvlLA+3HvL2nRt0hKGdtXn93TfY3Nzi7JVzrO2t8/f/8ENef/s6t9ZW+L9//iP+5e03OHXlIv/+P/x7Fi8v8pPXfsKv3/k1ERHOuZGE38NF81hI9AnnjD7/IMxoncG5EblcjOB9hs4EKz6kNh9J5HKIj+vgOx2hsA8+5cO4s/YV/yE55ZOMwIL7GGcol8sIIeh0OhhjeOV7rwDw9tW3CTVcfu4y3/zmKzyz9CwnL5zAr1j+93/c497DVYRX4uLFi7zyte/xxee/yNT8NCVKlK1Ek9HptKlUyrzyyh/y8me+RBiG/P3f/x3dboer13/J1tYmf/q9b/PH3/5DrjSuMD0XEMuId/7TO/1YuhtJzHjys40ZeE9opn2c0loLfcfrpDFfcMmhYunGhseH4TxHpQ/mlDzh89E55Yc998M8z8H78v3FkinOOYKpgPpCnbduvMUPf/pDHj1+hHWWR9uP2O5u88KzT3Np6TRpmjA1NcXZC5fRWnN3+THtdhvpl3n22Wc5f+I8Na+K73sE1kdnmmQvYTaocPHkRSqqwsnZE3luZXePXmuHve11nrt8gcXpY+y4ber1Oi88+zRGdJA2IdPZWL7nQW0z2HdEaViQJg8W6CJemi9IcJg+yZE55YfttMPoYJ1zzKY7YP+4Z3VSif6g+h019++jJp2Md+q40zzUIadPn+a73/0ur19/nb/9279lc3OT7/zpd1haWmJmZobGqePEImZ3r0kwFRAEAVoPZxzOlGZolBpkWQZefr80TQduJqXUgMv7vp9zwL5YnpubY2FhAYCtrS1q8zXCMKRcLpM6RcX3saYfbuz/m3R5DTwJR2iDUUqdQuLQONdfj1IMgFl4gAYNfuTmnrxx//oPUYCYvDkH/X5iCRwOzHFXzEenvLwPKmvcumRQh1E3UFHlXtrFBY6XX36Z8myZarXKG2+8wVPPPMX8/DzNZpM4jolFTHmmnCdeBGqo56UBU1NT1Go1sizDqfz5U1qEGkI9VBUyneF5HvTy9vCMh1KKbreLJwy1Wj6TcXV1lShjEEEyiUFKhZTDwXWk1joig5CjDFFwMCjEx4HQI9B4nQ8Krj+hEm68ngc2lHvCsaKMjxgG/aCMqNF8RMjDiVJIpBQD53l7s00QBPzRS3/EH//xH3P5xcvcuHGD1dVVrPS5desWe609lFIkMuHe6j22trbQWlMul2k0ZiiVSpQ8gS8tyqUYY+i53mD+ThzH+fIs1lIqlXKuCmRRmzfffJPN9ibVUNPLdnjv3nsYY0hV+kS9+OMiOWBjo2AUowA5IAHjKMD8res56TAf/j6Sz/OwurkPOE6hQx911B2chHC4SiBGPuPgVUqOgbjZbHLz6k0et+9ycnGOF5+7zNraGl7NY3Z2lvdv3+fWvYesbd/n/qP3+fnPf87W1hYXLlygXC7T3myTZRla62FKmYmxSRdjDBmaOE5yw8oYSqUStVqNM2fOUCqVeOutt7hz5w7re+ssLy9z69atocvKHWawDVrwyY18YNvk3zVZ/nFu0EwUa0vn8xvFSGbQSLuOdu4hwPsogZjieuvswMASonDk7zcYAKSQw2PiEHEqRvSfAys2/tKq/RrRfn1yfDrCQSrDQQ20v37GWVw/Y3zl0Qo/+tGPePWNVymfKPP973+fn/3i11y+fJlKoPLs8azB//A//Xd875Xvsb29zbW3bvPMZz7Hy5//Bj/7P37ObnOXZC8hrUqszsFU9+qEhHn8ugdBECClxPd9oijCyzyefvYFnr/8Pq+++io/+MEPOHv2LLGMebi6iUz659JDKIl0Cudyd+LoDMb8+YbtxROkV95Ow++pU/hY9HCpNzcAwUEdN/wphr/H9M/RThm/cbHvYH3RjVxjEdLihAP8fWVMPpAmw+ANdx4GyDHar1ceKGYn6jluAI4afZNza8gNxwnOfli9iv3F9IWLFy/yB9EfsLK1wntr7/PXf/3XTB2b4i//8i9pdtYIp0Oe/+LzqFTxN3/zN/i+j/TLfPOZb3Jy7hTGGGZnZwmCgF7q8E0ejiyVSmitqekaRFDVVXzrUxIl4jhmq9mhpmt8/etfJ4oifvKTn/DWW29x5aXPcuXKFbbur+CXLWmaIrVCWomww7Yf+kWKhinaeZJ7TQJrOO9Hk+EQOSjH44ej4Bw282ihoy9q2g/gEXVgQodzTiDEeCWLUeUc5GupZwhhcM471MotXAepShFmuJ7CkwA5mZB60PEnUSE/RsXv4HFH7j/6xoaDfXfD/ZpssE6PEALf+gghuHDhAn/1V3/FtdvXaLVazMzM8OKJy/z6122CXsD5E+e5fOFFLhx7jpCQ2dlZzp8/T4NpXn7hZep+nVKphEwkhPC1L32bhaXTHKs/zZe+sMCVU59job5AIhNmZ+f4q//qrzj/7Hk6saEjDS9//xuc/8J5vJqHUwHX37jO6fnTJA8Sqot1lNJjDECTkZJb9O3QUI3UhIG5n0MO2nXURV6Ul6+iIBgkObvBGYPuKFiiGwPvuJW77/sQ2yMdVgBzrItGKifykXMEuZ+qFE02fJHpEWkIrg9PYhKQFBZ08X0c3AXgikEEjLXH0PPKwMjpdXt4nsfp06eZmZmhu91lYabOjFii2n6P1qMU1a3wmVMvcLF6ib29PRqNBsemFnDO8czSFbTW2K6lVCkRRzHnjj/FxVOXUEqxVD9PclpiZYTspSgl+epXv0atVuO1t17j73/4d9RO1WjMlwgqAcmG5NVXX+WPPvNHzFXmKJdnaMZ7MJKy5nBokZE5TWLl4a44d4AKhsMID0UyaBedrzPjRvCRA9KNAW9CuTwEB/nl4xbFGDBHLhVCYK3ri/UCqP0HchIp1MEPJsA6ibQeFg4djYM6uSJ8Z8Yaa7Rsay2yD4rimoOfL2+kJ2kIxT2cyzuq8NcdlJ1t8PoeD4kUAu30wIUDcKp2ih29g3N5dlCzEzM/Pz9wsi9OLxKGIZ7xcgMmy6jVagRBMPBNGmPHnlkIQSAd0gic08yH8/gVn06nQ93WaNDgwW8e8K5ZxQWOajjHdNjgmaeewZ+p5waJ1nlShzZ4ZviWWykkNZMi8mVPxwXwSA9NSqxcbA9JD7E4oUuOSdlJzjjJJfN9IlekxgCdp83T55LF6rAi55hSIJEkaUKapGjPx9Me1oCTw3URiwlFBUk58nqUkdF6GDistYNPkVBQfIr9QslBOcVCooU4Hk3SfaKKIMRArBVi+qD1G0cNJCnzwaekAi2QViGEQWcemcgoyzKxiEmShJmlGb782S/z9JnLyEQS+REVVcFJRxTFGJNRrVbRWpNlGb3eMFZdDDhf2j7fkUibIU1Clkp8YXnx/GWC1PHOrXe4evMq626PhdoCL3/tS3z1818l2d4jrgaoSi4BjDHgQGWqD/hidk3e9taNviVi/6AcqnV5q2dolEsRaRI5Y92QW/Y5ZZFXvL88sf/3OByGW+EAi1IgFWSZwWTZQJGQUqOkRmsfKXyyzJDEFmsEnm/3ib+DOGceuz8YkCAGs++US0lkgs5yN4mVPkopjDFYa9Fao5U3Vp5yad5QMk/Rss4ccp+iJSSjr+uYdNyPivaBC2mgqQ51XuuGb2sYUJhfc/PmTY4fP47Wmmg3olQqEYbhwFDyPR/P98jSjDQb+hUL9aAYKNYalEuHg1P6SClJ05Q4iWlnHVRF0YkNYRhyIpilt93FBo4s1Eib9B3umlIm+q+xk6QqpRi8+z0YB0m1wivSX/DAJogk6TlrHMa6fhLGUJ13k2Xt+z3q9pgwlgRAhsOQpj3SNMLzPDzPIwgClAgxLiWOMtLUkqYGT4d4XgBOIfuryI7pYwfQ4F3RmcaIEUu8/7ADkOkoB2Y/pUup/O0HhdjL6+YPuLlyad+QKuXLME+AcrReGTnQJ0FZgHogPhFMvrqucIUUupYvihmDYK1DKYVUkrXmGqVGCZXmswoDFwxEqZQyB2VmxvydQgw58qgf1VozMCycc6hUDUAdTpcIwtxy382iQT1rxhBYn0SlxJ4YtIHONIH1EULmUzJGGMTkID7MRTZK+WvwCpvGTdrVYy13qB45BOZQ/ywcqbk6YAhCTbla6YtKQxS3sXYP5xQ4jVIeni6Rv0PXIlX+SjTpYky/4Uazs0cbOH9xuRuk0h/GkbTxSBVoYoyMsSqkJDSo4g0I+ZTWQuRkaITRB3JCIQSZ02P3KN6DjsvPcc6NrYCbT+aXB4p/TTa4r+vPvVGpQjqHlbn6UeiJhZVeuOGsNXnLW0s+o7FYf2i4FXK4hGARZ8+5MYRhSESE8ATSKSIDvQhiT/DeVpPN9iYZmm+cPs2c51BOIbweKlWDZ09VihASg4diyJ33GzyT7qFRiI3omNYOWW0/9D3OCIsvE4qrG7DScQu68BkLHEFg6CabbDd3aTZ3ePjwEZ12lzAscezYcUphneOLpwlLJbK0GLkW53LRkulsny44GegffWvg5NLKBUiEdBjn4VvBxu4aO9t3qC2cxps5jXYBUqgBxxzlLkWZGRot+ioEamDwDDmg3AfeQoQdFm4sOmLUGh12okMbgZUOjMUIQxhqDAYtFJ7oA986ZF9vly435vKqDe8nlUQisf3znTRkypBYSeoU2vfo2hgtFVop2omlnXbZTeE/vv4611bu09WS43/2Z8w3GmQqwQrIfIuzAkdGYCSpACMzMueQLl/Br9DSD+doBYgssq/qSeeGoDzIeC1eHjpsRTE0xPt/XJ/NOkAJ0V+q2iGEI8q2ubv8G+7evce9u/fZ2NimUq7TbLZpNOaYmV7kc5/9EpcuPpfPB7EOa/KyUqeQsaHkl+jGXeRI+n1i5b7OlmL8tRqjx4r5ygj4l1/+mJWH73Dm7It86xsNjPTwvXyWnpSSXq/X50rDe/jCYi2DuHH+mfTFse/+UkqiKNf7DtJ7h3rXqAHlUKlGWImQFikhsxnGRvjGxxMCISzC9HV763AuHYDTObD9sqWQCJvv94QgJcXZGOE8fCkJlEeWGXztYUjpWoNRgm4K7chxb3OXtViwsr3CdjchVQlW7+EHPsL3EIhBUoZnHYlL6EpL2UoqVg7k7sGmYaFH5ketc4O3e2pnn5xi1PdnHPh7AMg+h8ucQ1iL5wV02jFZ8A5X3/0F/8+Pf4y1Dq1CtA6xRrK9s8odd5vnn38epSEzKdYorFHgPKTKiI0g8EpEWRdfKoTw+mLH9K3i8cnwo45oyK32XFeySCnIlObatWvs7r5JbARfeembeF6CVt4AlHEcEwRBLr7JASmEIHWKzObGx1DvG+puA1E9osMJIegmXcpl0XeB2cE2P9ceCFbIGYJwIKxFSYcvQbmcI0orkFbihM0/mLyDXd9I7TMZQb4koLQyt/JdCi5GKoETGqwD61AuQ5CC0kitUIHGSkVWm2K93WG3voT1PUKtUAJckmESi5MShMKJ3JJNlaWtDPWeoxgzuZ0yGngYWbhr8LyF6pGfoa0zeecORNE4/vpX5gWL0d99MSVGMCssAkO30yWKY66+9xqPVm+Q2R7zc0ucXHqKNBEkMSQRrK83qVVnCPU07aRDmliyNCHwFZ6fZ7JIaZmZrZBmaS4SpIenywgEaepIswStFEpLpM0t6Uo1YHNzBxt4+IGH9jwQoL0OyIR2toNzKc3OJrPTU7Q7Bmc1Qjr8QFMqezT3tqmUq2xsbhD4AUEY4iuFEPkbe0V/IdHCcg+VYntnk/pUFdF/02+aWkp+rnpsbe1SCgNKpTC3Np1BilyHFv3XVZsMshSs1rQqYEyGsTG+Ak/7ZKklSmO08tGBxKSWLEvxtEYrH4vFOpeL6r74dORgxhiU9QitpmWh5TLKWlDxwMYJIkpQAaAkC4HHRmTxZYmkq5DJKtKASSXGeWRSkAlJaAW+EzjtMNpQd4LAeSgFqj9G7MCb0EeMkDgGi1iNaIgiH0wMFiMYyv2BhzHXkkcAul83mPRrCglOSDzfo9Vp8uabv+L6+29SCud4/tkX+M63/y3z9dPcfvCAO7eWuX/vEe1WxKO1ZarlaQK/TKVUxhpF3OvS61l6vQzP84l7CUncJY4zKpUalXKFOM4teoTB2gSpHNqHVqfFbusx06pOWKnjnAQnWd98jOcpfN8nDEoIISiXQ+LIEIYVrM0wJqPT6dHaixH4lMJqrpOapMm/D40AACAASURBVK93WjwdolWJImsmitqkWYTS4PllWntdpPQBh9aCzHTx/BQEpFm/HV3u0xQ4jDW5wSI9VKDJpM7X7hEaKzWZNYjU4GweVMjIj0slkFJjBFjhcELhRN/CJn9FsURgrMUaiyWP3GmnqVmFyCyJsZR0SFAvkRpDlGTIEkgENk0JPY8knSdQIcJp0gyEkgRK4UkNQiFcBkkK1iCUAZGvZcSAY/d1xzE8DVE1yQR1YXMPbWc3NLad63PHUXfPBDD7N3bkyZlCSHzfI8sidprrzM1XOb10ieeefZGF+kl2WhFzjRPMv3SWF55POTZ/ktW1TYyxJHGEyTI8XcVaiLqWbpAxVQ+JI4dSPpVKGU/7fTDkotYSY12EVgrfk2Q2pjHrEYYWqXpYq7FGUy4HfOc73+LxVo2nz32Lc2fPoSixufmIbrdHuVymXC5jjWBu5jjIXDfOsg5pFlEqhYRhQNSzRL0iLCbQnsMvKcLQR0lHr9dDS40fgBeAsV08P8tVnCxDCA854mg2xpIZgxd46ECToHOOKTXWaYSxyMwi+iqMQRM7Sag0Wgoyl5HZDCElQspcU3P97CkhMGmGMxmWfFm/wIWUraBnDJHt4lxMalOckqAUogRKgElTQs8nkWUCFSKRZBkECAIpQXn5J3G4JAKbgI5BSpABg4DKBCAHuBlws3Fg7lt1rQDkOGcsRjd9JaFQsvND1hXhQolwkiSNWFlZ4cHDq4RBiVPHLefOnidx0N7LCMOAUlgi8EOMgTAooZSmWq2QxAlptksS7XLu4nzfSbRFvRGTGYfJwA+r+F6V2pTA0sMRg4hpd3tUaz5+YAgCj9T26CZNOi2Lp+rMTtd54YXnmV3vMj91AokkNTHT03XCsEy3t4sVCcbbwvqbuUWKJE00lcocvpD00j2MK6NUaeDmETJFqBTj2kQmQYSPqDV8cHWErROqkG6cIMktfWsE1kCaplRrFVrtFM/zsUAvjUnCgC0Dga/wRYXpnsZYSI0kNY5OSdIJfOZjRywdzuY6VJZlGGNR2kPp/jU4lFAorSD0aMWwrqCnwHUypoKAaT8k7jbRSJSQxEmul2rPp5vtISsNtlNDpw6mNseKdWy7BOVppAdzsce8CunFe2idgJnvGzGFK2Zi0sRkKHoCavpg22jkIjcSwRGTZw1dGvknzziqlKt4vofwoD7Vn8DuNEnkmJs5Qf4Se4kOJFnmCIMy+YzKhI3te7Ta60w3cvF3494NVh49xPc9fK9C4Feo12eZqs8hKCEpg4iBhJXHtxFrCbV6QK3us7W9xfb2Jllc4sTxy4TllHZ3C2MykiRlL9tDyzwXs9NtsbxyA+X1qE1p6lMe9x4u8/jxI1p7HWZnFrh48TKeLqHcHEpXkELlIU8FyJT1rTusb91ic2OTarVKpTxNpdygXptjZ7uNVlU8VaEczlAuNciyFK0DrN1Dl0r0spQoSbizscKdRDBV9ZmuedR7El3zyZylmzketFvca23zOVvFn6+iAeUgygxRFNOLmkRRwuzUFDP1KQKpEZ5kz8HVtTVMIrCxZLe7zvSxMs+dWqQaaIQVaCuI4wicj/J8eqmh1KiznVjeXY152FrBGMgymFmcZ+ZYjVQpbDkgiiKqKoWsDK4NIu/nIvxcOMSHTsSDUZcn+U4sMe0Gf/tCfeTrQVRk+BibYKwlNDMobQh9SHsl2nspW5ubnD55HJsKTKYwmc7B6RSiLyaNa7GxfYNf/upnPP/ZebbaNd5449dsbGySZSlh0KAUNFhYWOTpS5c5vnAFPzhOkqSkccqNm++w/OgqZ84sMTVd5vq7d1l9tMPMzDG+9c0pGjMXefWXP+L+w19xdqnNV176PjqoEPiOTneXa+++xtr2NU6fWeT0mUWuvXOHxw+36UV7BKFi5eFDnjr7LBeemkbJBCF8pNB4nmR9d4Vf/PLH3F++xu5Oh+mpBbRWzM3OMjt7nHYrYu1xi6XF83zx81+nVp0ZOHW18kjiBOFpelmP63fv87O7j2hMlTh3ZpFnlp4iQFKqTvFwM+Knb77Ntd1NtjOPr377izSm6lgBLizz4PEW773zLr1Wl899/llkzaMeTtNJ4N79Xf7T3Qesrm0Tx5ZN9pi9IfjGxTN8/dIZzs7MQdwmEYKOVFhRxrfT2JLm3Z0Oq8uPuLZ2jZ7U9KRmunWcS5tLPLNU45WpGiKoo7wMYWMwBW8crivg+myx2A7XMR/duKH4Hjd1CgPG9aV2gfIRjukmdgkwJiUzPaydQXtZLkJbJVp7CZubmzx10sd6ou/68XFW46xGaYPSBut6bO7c4OrN/5XNzjQzM1O89fYb/aQFSRIFpFFAfarG5u7z/OHX/oJzJ2eJ4pQoStnYeMitu7/BsIF4YLl/dxdpGxizyl7rMbXyF1ldv827199E28uUvzEFWQnfg5bd4OHjG9xb+QVrWxVu3C6z8vgGXpiQ9qqkm1Xu333MnZPrzPz5GY7NVxH9TKbMtXjr6s/4xWs/Ikq36fSWiYRic1VSC8+zuHiSqGe4d3uDb/xBmbCkkarfhga08uj22ugwoJcaIgd3Hj5GrqQ0ozZ/vnAajaINvH7nMf/pjfdYEwa1sc1znz3HVL2KAVzgs7zT5u0b9wms5PzzMbu2Q7cX8Gh5j1vXHvCzzWWWV9eRYZn1UsxCMyHe3aWSdDn2By9TVoZUSjoOrKwQmAZrSYd/fPMaM6uPeMRj9oKAdhjCZsrTj3bZDM7yXFhmvlxHaQMmwWX9AIKwA5yMGsZuhNlNenrHdMqD+OUgdFM4zScBOsIpcwVeEkUZteoip09d5NaN+7Q7mvffvcvi3H2maotM1S+QdHJtEUw/IqIAD+cUU/U5trfWaTVTPLHE/FwD7UtMUmV7I2N3d4uV5RZvX/sFjfDrVOoBbXGfbryBo8XW7i12NxVShEw1BLONY0zVTmOMJmnP4+kqqCZRskO0p0nTEjadxtLCyRY7e2tsbTbw/Ar18hLOW2TXbLC595AHyyXuLv+Kp85cIc0scdxkY22Fu7dXabWa1CrHmFs6Q7UWMlNpsb6xzHb7DWanLjI138ILM4RMyUyKUpokNpgsz9xR2mN+8QTHI03y7ntsru+ys9xh3UTUxTQ76Q6Pt9Zo9WJ2U8NmUGJHBrzgyiz7EfM9WNlpcqdpuFQWXKgt0ihN01zd5drtt/nxw/s8TAVzZ08yM3ecp8w2d66vc2fjAb+84zh3/gRPzzcIfUm1Z9iyO3R0j/a2Y1G0ON5wePXjuMYs95p7rG7v8PjxDitelWZSZunycZLMIq1DYXJ3/pif8gCM9TVEGMJqsOqamDh3+HWSvY6jUYxspfBxQhLFLWqVY3zm6T8jbb3O5tZN3n/wt1Sv32dudokvfe7fQWka0hlIZxBC9f1X+Wt/nfPY2tri+MIi333l3/D0hT8gUKdoth7y5tWf89PX/mdWtn4Ed3/EZ658m9mF81hadKMNLC0MLbLkOOfPvMT5M1+jUg2Yrp0iE49JuI1X2kGoJmHZEqoqiVnFisc4/zpOtKg3BHXvEhfPvMLFs6/Q3uty9c7/iHj4JknyiLursLX9R31OKXm49gvurv4dqrTF0xe+zxc+/zXmZ08SJU3+rx/+Pa+//9+TpSlOt/GDDCEzjEnQukQS58YJztFqd4hLZcqNWdLwW7S8G0QqJqkHdKXPe07wT9E5rs9OsefVWc3eREervLL7FBc8wXQbHm3vcr1aZ/7zc5x6+gQl4FbL8r+thdzcTvheeZa/OH+WLy/VeKRm+G/tCX7264ybG2UWNwUnZx0hikrWyUHpOXQ2w/mG4r/+wgUWzz6PqUh+9Kv3+V/23qSZ7XB7O+PnnXUWwzPINMU3FoXpo03ghMCNhAYHGDqASzr6+ZQDsV1kZozqAPuwOgLhgS8z3yeERSmHkBm4jGPHFjh51kN4gocr97n6jqYULBJ3K5w7/QVOHq+Qxi2k9BEyAOlQsoQUksZMjc88/xmuXHmREwsXqQRP8XgrYurecebm60TZHt1WwvLyAy6efRpnPMpVy7ydpdNdpzG1wLPPneP5S1/CqTUq05sIKQl8H6nkMMHYCUAjXEAYVpiamkJ7PSqVCufOfIanL19ge6PNdnSG1eYsWxstNta3aHeaHFs4ge+Vebj8iNXHG1y+comXX/oqJ08tUqv79LrTXLzwHM30Club21hXOPunMTZFOh8pHdIJlNP4QqGE5MSU5lhVs6sEcWy527nHQmOaVqvO7u4GnkkoAy5QdFba+F7MdM2BhXueRaYNauYi2S6slOG9jftsZjAfTHPp9DkuHz/D6bkqgi6nTzoq195D6jKtrR41fY4yAtcVTGfT6LCJ2W5xrFLm5EyVekmyGcD0hQZn3Hl+FT+gaTu8vWr4Uiuh6isUAqEEYyAacWmPpk24Yq0BMcSgxokRsI1cOfjeh+yooTM2z6aw0N3AYMFlQMrl89+iXj7B7Zm3aa79gAe319lpvsry3W2+8uUWc9+dJwwcEAApUlq0yFPFZmZqnDp9hkppGpN5CM9jcWGWF57/Mpu9f+T2nTadvSYPHywj0DjjkabbdNot0jTjpc++xHPPnWWhvohQ0wgdAesEgYeSeRZS8XwCjSAg6qXs7uxQqhrOLFRpTJ0mCDTTjQZLx09zc3mW7fWU9bVN2u0m01NzdNopy8uPCcMqZ05fYGH+JC6dIdqZIShlXLoQs5tcYXvrlzgLWZbgyQZRto0UJo9jS4l0ed4mQlIBjlU9VqQg6Tnu7WQ8d/wEey3NbvMaGp+SzUhqiu6jPXaXYmRd0erBXc/QaIQ8f7lKVfd4t1Pivc37bJoKC7PTJF84x8bZGo+EoYPPqVMe1bCO02WWb62ydf4k8dIMu1VBEkyjwza1kualZy7y3Lk5WhZUAl+vNxCzPk0Zs7azzNsi5lEr4dy0T6hEnull8/dCFsZNjr8JVtc/kJ+We3PGOeXo9mA2OYLXfmY3fYd7X+nMC/dwrkSgpjhzvIYvptjd6HFv+Sr3lq+yvbPGL177P8FlfOnlb3PixEXSRKOEwlmPLDX4YYVTS5c5Nn8RG8/S7UBlusy5s3OcW7/Anbvvo5THyspDWu02wmkC38dmEVLAwtwClVIDYStYZ7EmQQqJtYIoivucXfZFsEKIfgqd72Gs4eLFZzg2v0Svm5KlPo3peXAeoLHWYUyM73tsrm3TbrUphSEXzl9iqj6HTau4LMRTguOLF1hYP4UUb5BPE5DEUYLUsp9VlXNKpMZlFnoxYaC5fFbx4H6N3fYOvaTGZiy5v7KBdoqFKY+ZKZ/f7Ap6Dn7T3OD5yhmuXt/G7sY8f26J504eIyxp0scpt9bWyJonYWmKTat49f5Nbu+k4GfckxcJqj69TsTq6mPuL69wbn6aVCkioJNZqLQ4XtIEXYjoMRuWmAs8dmdDZis1tpt5jH+lvUl55jTSJSRpShHLGcR0hn/2YW0wX8mNLZo6JDFiyBwcXjyYHGAtOKfBarotha+qLM4FfP4Fx4WLT7HXfY5f/+Zf2Nxa4V9e+0csMd/9zn+J780gRC0HZZYhXIVaeZG445HFEhMDQUIprDPTmEMKD600KysrtPbaCOcR+B7GRCglmZ89RrXUQERgXUBqe2glcVbQ60V9QPRXpnAKgUIpjed5rG/s4nslfL9Ma28HnEdjei7nqE7jnCEzMb7nsbOzR7vVIZwKOX/+EmU9RyZ9osyn0+7h0Hi6ihQ+ApWDMk4oeyOg7NfBmAybJgRK8/QZxRu1Orcfp/SSOpuJ4t7DDTw0J+qay6d83lqX9CT8em+DeXmBV+9tY3ZjTp2XVLOICE0aGzaTmOrUcfAtv7qzzO3oKjNbVazZ4K1wDZdZXGaIel2E8gjKkixVxA46qSGotzhe9lBdgSebWBPj/JDTKmK2XOOukjTTDivtLcrqHDaDJMvyeU+ieL94bo3n7spheGaoLvaNnjxmP0yfKljdfkvpoG9Ds37oPZL9KQ5Bng1kJVGUEvcClhY+x3OXX+HrX/kv+OwLX8fTNTrRBj/7+as0mx1MprEOhEhJYkOvmyGlxtoM51LAkqWOKFmjVpljdnaGzER0e5u0WxlKQ5pmSOlTqdSYm58nDEsYm2cgpSYmMxnGjEz8EhmIBFzaX/xAgNNICZ6XZ6V7fg5WgUYpH88L8xcp2RhEitIGv9Qj6hls5uj1mkBMtS4xtsPW9mM6nWYutgdvcgCQ4ATW5HmOefs5JBZBwoKu4E2lxEmPe1vbvNfs8u6dDdq7K5ydq/G1py9ycnaWzEiutlPejOAN0SbpOC5N16ipgE6rycbGOr2Oh9SKzWaCW3tEeSvFyTYqDgm7gpPzJc5eEDx7ZYb5us5DvGmMczG+jBGuQiYFSZwAEj8MSa0jKE8zs1QnkwntuEez18ZqAVIiXT/ZekIddG6ImwO5mwBdZJsPgVWkpY2fOET2ZBobQ7USiRS671dUxFGPOIpp7UbMNhbxyRAqoTF9Gs+rMX+sSrfpMz29gDE6v6fMKJdq9Dp7KKmxWYYjwYmYNIGMNUymae21yEyP+WNVPFVFe4YkSZHCJ00tnXaXuBFhLRibkJkYaTKK/NFcsU5xIsKR5gmwfVAqKfB0vhqZ5ykypzBCoaSH74VY28PYBCEylLJ4YY/mZm5FtzpNBBFSNHEYavUAvZ7PfQkrfj+61bdKiyC1K1LVLEIYhLMc0x5zZyocv3OMpnW8t9fl0XbG4pzH2bkaJ0OPqlSsG8HVTspCE+40NEvzZ3j53Clq0kenUKmW8b05hJKcPvMs/+HFF/hGx9KoWoJmjxthRFgtsbq5zlS7xfyUIjFdoizKQakSDDNkUtBNYnRZ4HshadKhG0Mr2SYVKfPHFxG+h9Ug0/56bMV06sls+4GtMvRVjoItT8hwxc/R6WLj4BvjlSNJGkXcMk8INjhnBkmmznloNcXMTI3paUmGR5o5pqcbzM7N8WhtB6XzFbysKSFEArKNkDHHl6bpxdtMleexEqxQlKdKJECzuUOaWqRUHF86RnXaYRKFtYIshTSNoT91wlhHqRwyVZ4lcTHO5UuW5EuOpAgR4frTEawBYyS+Xxoq3s6QZQmJ6ZElecg0CDTWxiRZm6Bk8X2Jp33W19e5dGKKLLMYk6G1h+eFpGkPrRVpmvsm85cj9fFo+jM+oa9GeIj+uj1namVCP+NRC1iPMOUSx2owO1UGEj5zcprlR5JuO+HmjU3SpqRqewQuQhKShBUqYZuyNiTNTcRsnePVJao1CLKYBeowNY30FbOVCv5Ok4qTKJlSSnwCOviAcD51W2W6FtPtdkh1grKax0nG/a2HWDIqqszZygzG5shQY9rkYOyN43IUXyPRHT3kGn1AOrEPvPu47AEn5OfkE8WsS7A2RXkxXhhhkwa7zQbCayP8HPatdpvWnsP3i+yXEGQMKgdllMSsrt1l4coFjASLwpLwePU+Dx7cJU0sSkqWji9Sm4KddY01kiwTxEkMSKxzGJvh0h5Z1MLJGOfy98FYa3CkQIRzKc72s8sHoCzWWMxzFmMbYeISzlmCUGNdQpK2CUKH5wu09rh54yYLlR3CUBOUNEkS0d0zrG88RmtFL05RssjJdDibg7LwnkghR0AZD0B5owWeirHlkIU6zE6VgIQXTk3zH1+T7HQTbt64D7JK1fXwiREiIfUrlINWDsqtDfYeKZJNMKeWCIzCjzK8XoJJJWVPMVWeopyAVC3KaY2QDr6A1bTHTzpbLJzUrLUccZgQeyXeNi0ebC3jMFSUx5lqA+P6yciFw3zMYzPB7PYhLGeLQ+f5wBAaf0vEeDkjq0sMUjvc4LizuRIbhGV6UZte3GZp/hKJ7pHIbYTXYq/zmNt3rtJqb5OmKaVSjdZel3opT8CwNsGJiE6vzeb2Pfa6D6kECistUbTG1vYqKyvL+Spg2TSNxhxSaJT0KJdqNKbnSNIQJQOU1H1jop+t4gTO5R2vVQkpvJyjInBWEgR5jqTIpnBO4HsBUdIhKDviriYM88SRuOejtAORUa2VWJi9yNqjq6xvrNLpbWKFwiqFNZLdvRY7zdVcFIYSR5a/K0ZpjBXk6486HGaQrW2QkCVUNCxUfPR2QnO3x1TW5Fh9gWoQIVPFQqXKiUqJVbtHnLRxJuVYo4K2GSIzlALJU0tLvHz6HLe6j5hp7bDxdkg3rUPJI3AhDZcgUodMDKU4I1ndIo48pCgzZzR3OinS87i/tsPWibNEXkakfR73Oty8cw+SDONSZpKUY0FIXf+/7Z1Zc2THld9/J+9SG6qAxtJAo/dmd3ORRFEypZFnRp4JvXi+g8PhD+DP5giHI+w32y9y2B7NjCRrI5uLmhLZBHvDjqq75fFD3r1uAeiNFEVlBFBVd8n1n2fLkyfBph62xppL83dNxCxxVAGPQkScX/suFZcKbDWX8wbrbpbkZr5VmE5j7n/yB/7w8D9z6/rrrF/YZv3CNiY44eTpAz78+FccHe2yNFrm9muv4xm37xsFayNUphyfPOaDj39BGI55865lGF7m+CgH5YNPnTdzuuy0YgkwEhBFKXt7RywthfimjzF+HvexmIOCWsk1d3dfM9c+aw29cODabyeAEIY9jk4yxsspZubR7w+diBAFeEEOysmEi2t3UH2Pe/fe4/L6P7F9eZVLl1c5PJjxq//3Pr+//zs8M6DX83KPcwdKMlx8p1xM0Nz/0YpAFjHyemyOAvzHMfuH+2zbQy5ObjHuRZjpkM0RXBn1+ad0lzg+JJuesHnTgVJTSxTFmF7I6+MLbAy/ID7e439+YRhc2+JwuMxgBR4GISd7Dzl+9Ig7W5cILoUcaA9Ry0YaIEcpS8OQP3yxx5OjHmz0OBH47PAx9z6+j0Qpk5UR37u0zWa/z5Odh/Q8j77xckAWOnapeFQYlNq27ppTUCO+Rul4qRVAS4GxIJklWS2sm9U7VsFmQpTM+OT+fX72u//Gg4c/5fLWTa5cukE0E95/7xM+/OBjpicZm9cvceXSXXrBGNRHrUeWCTYT9vfgi51HpLNfkEQDLm9F/Pq3/8ivf/szHj16zMpqn+9/713u3H4T1COJMzQzeKZHHGUIQQ62FLEWUYviojjMZimqgdt+ECdYK3heSJoqQTAgjQLSBKbTiKOjA8K+T2ZTrPXRdOQ2uSUjAn+FvrfOtWvOPvnJHx7xzz//33z2+Rqbn67z4MFDfvube/hjt94dxVOMWKxmeUgVIbO5UiDiPAHEw4rgYxkGcGNrFf/+Pocneyxd7vOD29usMyBY9nmSwK3xEv7nR/i+B1iurCwxEMiMk7E1gfFyj+2e8rvHR/yP/ZSD++9x53DML3tj+iZjd+eP7O58yr/923/N65e36dkR0ygmSiOWjHCYzPiXX73PfyLizpuXeJTM+ODRDr/7/DP0OOa7N2/zk6uvsT0YYO2BM/uUeCq3xjVJWc6OtQBbTeasTrGtv1FmWGgwTXBKvoJTlxkUx75tJvTCPojycOcATX0e3P+Qf+GPgHL/k9+jKDduXOfWjbe4sn2X0B8jmY9a4xxgrXBhZUwUJfzil7/gow92WBr9Hz7f+YSwJyyNxly7eonvfe9fEQR99nYPieMh1ho8CYmjI4QQVRcJQmyGsQpGEDyiaQrWJ8uUJE5Q28MzIWkCgT8gnQWksTOyHx0fMBwPsDbNvZuWGPTXyJIRJ0eC7Z1w/dodvvv2D9h9esiTpzscHj3m/icfE0cpYLlx8yqf/vEBs2jmQh3ajDSR3NlX3IqOCNZILj8bfMlBeWmVjeWYgbnAaC1lPYg5ehoRAEk84NZkTDA9QpaGeMCVC2MGBmLPc+JKAteub/LXx9cJ9lIexRmfvfc5x+YP/Dw5geSEPgl9TbkzjdgaDbhqA6Y2JU4ixgb87S38vT3++6/+md/d77NvM/Y0ZcckvL2xzeTqOkfrHodexNirzIqVclOaxiviVqN+rUB81XaImmh4Ziqlydy8UmjbvucT9pwb1srKhOXlZT7++BN847G+uobvB2xtbbC+epc7t37Ia7dv89rN2wx7KyQzj8zzMRLQDycEvnD96ms8ffwhSQJGeiSxIUlS7t5+l6vr77A++ntG5i69ccJ4kDAZXuOx2WVjfZnpSczJEfheHxW3tfToeMb0JGO8tIHvjREdMlm6SBRZolkG2uPp45jxcJ3ZzNILR9y5/QYqR6TZlCT22d+NmFxeIgyW6QUrhMEI8QZ899v/hg/vPeCjj98jjlJUYzY3N7l1c5Px6j3u//4LPOPRH4zwAh9MYRc1YAQ1Pv3smF1ZRVUZBT0uELI6vkj8v/4Lr2+v8+61t7i6PGYWxwz6Q9YOPXpvL/H2ry7w5ONHbG9u8Ebcx0QniBF295+i+NxaW+XH33+NafqIn//yM0Lfor4SHc4YhkJoAvomwB+GgM9jBYvPUn/AiAOuBjMGk2W+ONon2t9nMBMuD1b4/sYK37l4ne9s3ObdlTUmolgvdLqFdSy59IxY6CyexxyoUTdfS54uDTHydITm2ajbzVdsTOqFAcNRgOcPeeedt1m78h/44yef8dlnvyfwYTZN2Nq6zPalG1y6tM3SYA1PlshSJQgNgocxAdMTy8rqmL/7u5+wduE2j3amDPubXLl8je3Lm7z51rcYDUesLvd49PQjjPTw6HN1+21u3rrMZBJyceMyEhy7lRIJyNRjbXWLv/rBjzmYrbK69G0MQ54+mWJMgOcFvPP2X3H75tsIS1zausr0JOHh4x16A6XXn/CtN9/l+rXXwA7ohctMj4Wnjw4JeinLS1f58d/8Az/60V8TRTOiaMb6+irrG2vsHPxXfvZ/f8PhScbOFw85Oj5i+UIPxHO+AmIcKJMTYrOBkYxhEHKQnLDvxfz7//jvsPs7vLNyl3TvMftHJ9j1DQaPlLUbF/jR33wP88MB0jshWRnwyD9gJQVSZXl1ic0hHGH4259c42jrMk+nhzw5OBaehAAAFadJREFUOeTwUY/14YCrG2tcW1/j9vW7gFeC8jtvvsXd269zde0i9vCYz69us7P7iMdPjxlP1rlyaZ0rWxtsX1njoZlBarloQmLNiCUrpT4nnhSqSU1ZLp15KqqqlMZzqVh0aSJvx3Fs0djclCRG8PJQdlYhjhybE4ZcWvkH1kKfb9+csjTqkSQJo9GINPFZGm0gAvu7u/R6GdPZAyTYxfd6JLEQRQk3b9zm6vZ3ONo3+GaVw6MDfN9jabRBlvhk8QUCI3jG7VV6843v0h8eo3LgGpmMEQuIQUxA4Pu8+ea3iNJNhuEWvhmBFfqDIUkSce3qHYwMEB1yYXkbSQ1xOmE8ChlPQt56A6LkmGhqGPRW8f0R/b4yXLIMRsrd119HzIzDw2M8EzCeDMlsxC/uPcFqwHDY5+LFLUZLQzAx2DyggnFGc81GWD9lPMtQP2VllrEWwY+vrdPvb7I6g2Hmk/aHeAhDH/ZP4N07N9gaDlk6yfhWLCSecJgpnhqOHx+TTmfI2iHfNkvcWB8zjS2z2BKvHzPohwyHIcNBj/WZj388Jcr2ibMDrl4escsSgwvLrByvsPPWZdQqT6czNpI+t2K3RdfM4INehCQKcbkSULj+UA+kU25S7LQM5XbKllLUSA1TZMcDIoIppFrj8oyjDBEfQ8Ag2Ga4EuF5EzxjsZpgNebg4ATfGxIGyxzu+UyujBFjOYlcwILRcJXZ7AHg0Q+XCC8sYdMlBv0JWWbRbIKRZbKoR2BCPC/G8yMubV0nzZ6CCdGZQjZ2E8sYDAEnx4cM+iOGMkHwODpMwC7T74UkccpkaQN0BHZAEvmoPaQXTsjSjMODlEF/lX5/jBkPMYxQBd8T0nSf/f0Dev0eYT8gminjpVXCnvBg5xPee+8j1AYMJ8tc3NxiNB4xS2aOhVuDERdWGzsi04xjP6E/S8gEdADh4Ije4ZA+M4biYfohMxGGnrA/PWBj2WdwGLEsKSdBSmp7gLI6WcWzHt70MXL0lNBfZnspw2R9vKyHhitoD6YKU02YTo8I0giLjzFrXFuZMNh9yrE1bMmQ/YGhpwLDHttfpGxZOA6V4GiG50eYRCACDQT1HWCMFJHkKwB12r1LiqmVoqN1/p9fbIS7qtmR5mBbfihuT4arhFXAulAoSTQl7PmE/ZAwDFDxSbKUsO8TpS6snB/0SNKMfm9CT3oc7gekcYRmgk0tYdgjDHuIs6NgNXXKFTGpTbAYrPYRvQjaczMFKPaJqDUoIeW6swVMRhSluQ/osmuM+LiYQQJSRLOQ/H1DZi3YmCAQ/NAQTQ/57PP3mVwQrm+vMljeA3+PJwcnvP/Rb3jw6VMO9mdcvvwGK8ubKFNsZhDr5VYHZ2qe+UqoFl/A5gY+BSapIl6GqJKoC9somWUauG1ZFxLFFwjIq1uc5ECM1ZCTQAkIEWvIyMhsTGzBpAZPBc+m9LMUL0nx8mgi6kEosLm6yom6KBqrkWAxeGlKmKUkRvBTIfGUvjUYICsDMVdsuYyoMgdGbVwvvNT9erhnF7uwjubmSw18UsQvz2eB1O6qdTK8daAM/CGhP3QG4jQjDHuAR5Km9Po+cRJhPPDDkDixTKfK2tpNfLNBbzgAG6I2cCzZSmHcc7Y9a0ETIHFsWgaoDhD6gIeLo25zW6BBCVxgptymKpIyi2N834KduFUlHCiLYFdux6azClg1ZJnFphFe6OP3PJLjQ/744B7h7hHS3yBJd4nTPXafxLz/4QccH1lWL2xx8+oPWZlsojLFZj5iPUR9yJfmHCjBV3GgzA3P40SJvQyxljQDVYtkcOILxsKFREl9CHKhrFiJckullmmgBBoiVrBYUpuQ2YwgEUgEk2X0UwuF6cw45ev4YB+L0MfHI+DCFE58GE9TvCwl9gz9zDANlH5m8IDMKLayJ9aAWWGpdHOsI6oGMr94SZqP1KTLNhgrAEOxWlKtmxdPuts2Nw0U9k0vlynEAcUI7hwAZ9iW4Ahv8IBp/JSD/TVUQyajdWZRxmyaa6sYBzYAsYgpJkRxzQAGNRkQUwT3Ry2KB9ov7YJiPDQPm2LVItaAhnm3mLIzVZUsIwd1vm3UE7IsZRbFfP75Dj/96T8SxY/5+c/HBGFK0Mt4/PCQR48OGYSbbG/eYnvrtttam7jYk8YaUB9r3PmYAvjiCIst+wyMZgQ2BpuRoljFTUYcdTLW4qcpohmp2jJ8C6Kol/czznVOrOKrxUPz4BGOuKjnIi4rHuq5ShS9rZqR5MDxMxCTQd+SAjPAehCoo/aZl/PTvO7uQ1tAVBYBEhXnee6er7Pv5rplK4taqth3oUhVFqncm5h881CucJCHFkFdHErPCLZc/lvB6DU2N77FoLcGhDzZO0Q0RAhBPVxQqzxKjuDi8JSgzE/2w4KkQFatIChuUAgcRcUFiMJkOVXJXL7q5+0q2mYdCEpFMCh2xjqKE824uHmJO3fe4t69X7Pz4AhHtWNms4ytzbvcvPEaN268xhuvv8Ogv0ISkUdOFoz6WE0pDm31xI2EzcsXdaA0+XEeaTH5FRfsSgxebofNsKRYMiyKxYp1XY7g5StmLmxgTTAr2KuXj1URz1HKNTAUS5LHjPctqKeoD4niQseqIVAPxJJJdf4RxaQuFek2hrQJ1MLv4uHDh1p0MjWTkMxl0PG7DIuXU0wtWF1RCI66KdXGoVoBxrhQcgWIB6OIncf3EDxs2mNleZ379z9lZbLG8mTNvZTHBSrkRansDjUZRQsUVvUVcllUcmDnoehyVkcZ0aGg/tWpD+UElaoBbnUoRkzMZLnP7t4Oe3uPQTI8YzGe5eQkJgyGhOGIXjhkMFgmniloiGqAySebmBSRtNrVJzjZglyLLcFRlU3ZEil9F3OmXUCyFhWuUDS0GuNGWIp6JxXjlMsORWlFCB/RYkjz902+zyknFOUqTkHeqPJs46fseyfyOa9V40AJ1clPVXPPACRVgwtSr2Vj66s9lbmpTW8lj2dpctNSku2SZHuE4RBPRm6XIz5ZhgvOj1D4Ijb0OaFVfqvOtQfnzV+1jqnNmHJMynxrg1WULilIgh+AH8D05IiT6RFBYPB9zwXC8gekiZClQhIrcWwJ/AG+3y8gBZIgJsnL0sYEq3q9ql/dubCwARavNCFRNakOP6mxzCr3+lEyVf7teqjQssS4C03E5BRQKq47b2KkAUjFEiD4atwpthX7ru25qZfcrkQ94xqfr7P8riStZxQF6wRjUUU0xJdljAYksbgjgD3fzag62ApKXJLz9oyfa335ZV4QKT6l8ULFrqvyGmGrybd+YPB7PeLpFNEB/TB0Qf19jyTJiKYuoluWxniex2AQloCWgvKLpdgigNBQOKteq4kU+fVqVbndwVVN5zzGtLRM52/T5CiQb4dpH5ksxeslF6o6p0mE6req/OdIUq0+RR6uVn5RPMXlDn/K2sSap/i1+/PxvKVJSbUNTHXOtjmLMhLiSw+xhmQWQejlm8mcIlDUsT3N56l6m9LX79ZeOm0GUYGjAUYt2uMohFrBNwOOZjOCYMggDDGej+/5RNMDjg/3GfRDsiym1/MJw56LO5mlDojlUofk/VGwbenodGn80pp1oDxXU8TZrdsDVe0BKXuhoMq1Hq11j7aZTi1JNYhlP1b5V8psfq82wXUOzFq9r6XrWkHqXaNKiqn1was1ULUhI7hLi2pf0PA6zNvP5lZ3UTS3H4Ipz6SueyxXM6zqgG4a2fZJWVC7rluNTpvP3U3cqgQRIY6jPNi9kmYpYpUsdTEnPa/wOHcycHUabDGxypzm6jpfvXad2tyj66WuRrbe6+jE06brPP2c/1USnpLZNAlJ4yjFOudEyuMLSlopWhep2zOi0Mqrg5POmypa3NWIHFzF3hUE43nue9uPvtX485T6clK9w6sJa8QQxXF5SECWOu97cGGkvXwbRBB4+bWsBGZ3fc+qc2Okm9y98Zgu6KYO4Nfz6X7sXNXpfLc1fHVKWXKF8rsTjmuhAOuUkoaM0wRnIVucr9ZKIde0nm8I1ZXyUSgzbvMZuQG4mFk6//qpJT9HatW1FaG7+Yho43rRV8XCmu95pYWhGPX6aRyFBlx1RbvOC8hYJ3qk9vq8GWY+71OyfIbH5mrYPLlhvqba7N26Dy/5ePuaz6hS0tCKGiLk6n6NZXew7/OmeWxK7a844CIHpWdyQDbllfJ/A6M1ULxM4sg8JMq+aZMAqX1IDjXPycQlmDWXoUtANmpfk3IWgfGUtLDd2n1fTv3ZrtmpRThIyNwDXRJF5YnecS2f6H41UyvyWWFwQcc8EzArbW++yh0ssRxAW/9Ve0/mv9ajLpwHmM83pxpprojca6ogoJqvmTcnThfYWhPtmSqo5Vg1qU+XAaajAQ35udGUVjeePdPbjHNh+fkqizTeaeoJflfz3Xsdg/8CqUOSmbtaXhOoHydXr0QZFXbu1ssik115CIW/6cI6U83VcpmNJs6aJr+qDU3fgdPqs0CA1HKsa+8syrAGta6sO0o9O83X6/T3T1dC/UaGUoge0pp9HYXVWrTogKMqzRfexRga1LI8AVUqzDU6+jlA+LyTq8aaS2GiwWqLpBUra9P4OUC6DE5jSPPplMk8xzqfsW9eeD6frxENmihUukvNf9Kvo7bGSCg67Dx1Pe3krbMqV609aO3PHVhUKA3zZuvijfaMK2SPZ6rK2RVdlOZYoCu/WweU1i/puvznn2pMYZGu7Nf3R1TeQrXOrRHSum9cO7W18ULwPR3U9YyhioFdvVhMoJJ1Cq18tZXfs6RFAFqUTz5ZpJg0bg2dXDmjMcHqqTmFyhIaj74CLe0rTp2CTsdw1VteOvkWA965zFgAoHqrUeBph2GeXeu2IKP56k5R1aL8WhSPrlYt/H1mBYpiO5NIBVonZjs3OCXFeSG5gwSch1JxsmCt/uXXFisv77cofI2lPzP7/Rqk9mqww1VLkJUiFGA5/vVlxqJbZD6j+u8uCrnghcWSZe13zaGjQVm0/XznPOy4dlZaIPi3U678OX9KoTLxFrbV1mR6Jq2hLr2fDcdnFZW+qjTXjrku0fJHqVtoLepa9UwOybaEfgb7Lp9+hlWejrdrf3Vtt2kyeHmAPP3dQgivPIYkp4z1w0Hrf+dt/3wbSigvUEzrQHyxPv6KUsX4qtTRDKX0PHedWrLvlq/d87Dvc6UO0as9F7pfmpPOXmmqZO1CMiw7Y+7Zustbd2orPJ2XO+qQ862vCZUs0pnj2ZTeAD0P+4Y5gNbzfJmztiH0n/Xgy1QMzi5vsYNHNzC7ScMzFLmoJl9jKllPFfHLHyk4uTZOh6BSKhrs292o8PKqZ2qXmacrfdmDc6ak90yXv1FJu3uvIH5tclpj33X7UZcbQnnTfb4McJ6qWPxlNL/u6VxkQ1tEUak8z6FYMz1vgd2C+rMTsAUlvkzw/zml52HfZ0gSLyN1jv9ZAnNOJB1RtBjcSqJff6AgqG1onlt6e65WtxWXWqGn3f9GpReE05fVhW2LwWnWGil2Zebua1psTJPSX2x+D0xtg9Z8hi9e/2aqTCqNS9/gVO1beRZ7559Y6sSJNICquR5jC0dzEUyh3LgnqJslW9rwYg385aWazU/a17956c+u1cW2S6q1/4J928LPlNx43gBmLencd527vvCFv6QXSu3df00i8bx5vuLUZS2r78+qbXlQtIxv2rZl+gUg50HZdMqod9GpjfsLMF9COqWPn6d/55xYXmHqLKQCZuVrKqUsSWuxJj9Hp7F9vZH7/H7drwqU3xSF59Vxo68ElIVkWHeiym/UY6IXhE9Vi0i+xcvzHeIua41afjmgnJ8ef36uXfOpTQBOfeQFcn+FqaOQEkNAdWry4hr5qU1xqLW5MaiItyNNIDbsTwuaV1eSXji1c2krP19Sel52eZ6sO216tYI7yn7WLuis/svqx4Ly1QqZz3rxbiEXMMcFo1AsklNJP7GZc75qeI9LtdRYWxdvVKa49UrZ9Z9e6hrPl1XTUzG6oB5/mr1Ux6pSd6SU2n8rSiaK1YxMrIuXZxU/yVI8yTe4NrbT5lFwdUFnvYRZfFrSBb++MqnyPKP/HJVbIIJhvrbycwdaavvbtbwjZKJkYknFkpIRqsVag5/aDBUXuxby+IStIOhlRnMU8tV1XFu6ldby2plbSL8GqQrtV09yzq6dV/xO65EvB+IdUyynki7UTXPrrzXqAGkyEjJSK2im+C5qrCW2FjHusHAX6DRzMM3Xw0uXtjlR59U0tz3f2pTzy4bkQlt+x+Q9f+qSG8+zYa9VATnj+S+js7r0jJoSXUV6qz4VUCNkVh0oFTIE3wikNiPLEndWN365l9BTMCoYBa8IforU6tA106vrL9bI+bZ9laliO/M3Xkb96iFXGnKYLJqAp1HK030XXpou0ABiq571k+oKxbusSxFg3EPFI7NKSkqK2wHlB5nSx+Pg6IDRZEKaJuTRwXN1J2frLTDWO+CVgNK08/gyljkXlVilwnJWDvRiB5jz5a9VtIhSzdR56/Dct5YHzqncq6Udv7z+q2c8Z0gs+6r8IXVgKsaGBIkhHgYEu/uMxn0kneEb45NEEYHfJ57FSB4c33iCWFtYNBELVgQ1+edLcymrdXWtXSYxeehqQcQ0QiV/qSnv2XLoS7lam53efsU91H29dVvaf+JKdBzLOStkBQXtyuwMrtLoswXmm8Z3qQiQaB6wv5WxAip5LF6hFs8kB2TZuHKxmzYxM9kxkilLTy0m8wimKb1eD39qc+waD4PiZUB+TosVd4CliEHyHaQuxjZ54KsXnXUVC2q7CdpifVQV1L5IXK0XTk0la3GLz+qLNmUVbQKzAL9bLjblc9V5GKeod6Xp7tTbp17vtqxIM6R0qwCTX/Nak0Q7ZmY9wBrqDqo3IkhgMAFkpBzFCf5Unbbjez6SWvysigqW+WDz4KWI4OUzxrNguijEM4Om2ZP1LCNPQC3W5h4kc9r3OfM+NT3LlGpRqdr+9OefmNoCZQ2o+dGCHvlfDaSdfr41vvysYaAWCUpWCuJAFXy/JpAalfz0iuoYrbxZHfKtUASLLda/XZhEg/Hc50mcchwn+JE7YBHPCOKZ/ABLxRrF+pB4rkCTcw+rTpU3HQJ+a4KdmU5zonYDk88kqiAELweMczV5rucWsen6vc7aaOtepdNUYoJ4Jc5ShCz/0RxsbX2eQiml/tSCZxZUtUlsXC5a18VOybO4606g09z/wl0zgBF3KoTnHCvxrYd8FEUaPd0jfrpL30JfIfPA+jD1lJmneJn7K1Z+0Iql1QfmfEzuPEnpZc3OaHfo+TduvFg9uoBXtXyeJHXKjQvkuHYqaG5BKRXy8xPyGHQdhODcCuCCgs9i66VtukOA1tqYzwO3yqX4b21+6FR+zahi8mP/AhGW+hPGgwn/H3xyAsIYIHF+AAAAAElFTkSuQmCC;" vertex="1" parent="1">
          <mxGeometry x="620" y="155.46" width="113.41" height="84.54" as="geometry" />
        </mxCell>
        <mxCell id="0G1YjZtWjZHLyLZfflZ1-134" value="&lt;h2&gt;&lt;font color=&quot;#333333&quot; style=&quot;font-size: 22px;&quot;&gt;Presentation Layer&lt;/font&gt;&lt;/h2&gt;" style="rounded=0;whiteSpace=wrap;html=1;strokeColor=#2D7600;strokeWidth=3;fillColor=#99FFCC;gradientDirection=west;fontColor=#ffffff;" vertex="1" parent="1">
          <mxGeometry x="340" y="160" width="270" height="70" as="geometry" />
        </mxCell>
        <mxCell id="0G1YjZtWjZHLyLZfflZ1-135" value="" style="shape=image;verticalLabelPosition=bottom;labelBackgroundColor=default;verticalAlign=top;aspect=fixed;imageAspect=0;image=data:image/png,iVBORw0KGgoAAAANSUhEUgAAAKAAAAB8CAYAAADuM7t5AAAgAElEQVR4nOy92a8sSX7f9/lFRGbWdvZz7rn7vb3enu5ZyeFwSNEUBRHWyKBhwwZs6MGA3/yi/8X/g+EnAYYMmpYsUBIprkNxOGv39PR6977L2ZdaMjMifn7IzKqsOud29+1pqsnhBFCVWVm5xPKN3x6/lONYqpuUqCqpiXgcVkuMMcQ0YkuLqvI8xeOe6/y/q8WY52s3PO/5n/B8VQpjf447SL3VhUOL9Tyv3nLOsWedL61DMn/8zL4gRAStPnv5SJdjwBiDqiIiGC1BFdwEYo/4CwKo5y1RPku7Pz8QOjzgP6e7fQLoZOG3fhwAF67RGbjmtovHpfnS6cd1g9T/VVsjBpWUGCOmVHAJRj5FZVolkDzX+X9Xi/xcYPo8gJiC/jwUsFXmAPas/fb5069zyiJ46y8V5kAoi8Bs9msAiuI6TqEsUTVAzT4FokS8cRgMRszHN+5M3Z/v/L+75fNlqc/9dDWfkQqfLfJM0C3sC1PKpTSAOod6Smu/AZ4IgqDaELVnVmb6nwshYAExQiCpWDEVeEXAGHNOBf5hlOedeJ93idVIfIYrz46XzgGpLRu27i+LO9L6LMqR7TI7T5md/izJUlsio2uOBkkwYhCpABeNQxWsfNZO+Ptf9DNPvM9nwqoxPKf+V5fF8WoBT7RFwFrgmtMjFtkpc+ed/7zz5L15QtlsGtFQBZzajBgFJ4EoBqVSRJxGlIiqQZ5TBvxFKSrxC31+/Dwmf01yRNogpAXsRaQ0P86TgGXhvLp+UmsQ5yguc49p6SyNGuKMMUjD82st+HnNLr+45Yvuh8UB/+y3mWfBtBSE+oTnem6b2lUg1Pbhj7tMZwCMaMu+olqznIiqYmKBxoi6DiLPp4mpfrGU43Mr5otth6F4jinwcWcaqtE39Udbn2ffq/3v+dhqjsaFezZXnqPsLIicrjAlVnzNZksQwRURYsSEHJwjPqdWa7V8rvP/rpbweZlAPmMRKYDwnFedp4A4KnG/JehJRWzmFRGpuKHEShSbgqltRIaZyaXel1jXs/k09TgP4LNjBnC2tDgc0aSUtsSVjkiJimKMfiYOEOQXww74xbNgi/DzTIKm/ha0pn41nlS1Bk6kAp5pXaIIYe7/5iNIfa9qW5ld6t9i6/PrG0kLhM9QiSWGqN57rLUo4DE4Yn3jWFHGf5g6yM+hBX8+RaYU5+crM3terXyIglTUSsXX4DPTLfjqf/Eooa5FBbLpOWprAFrOV1hmxubpz/l/UJFn+9hUdaqU/MMtX3zbPyeDDtRMtWpSBI21SUZmp0CFUGmomgMxLcNyDTRtJkajSrTthefUe+6HzB3/h+nk/bTli+bAnxv+G1q+oCxoI9U1ZpSGPwtggcYO2ejQjUgmrfs2LNrQPrPdebO9sw36RAD+0iTzxRVtXFKfS2nkuXM007lDM9ueahWzIjRKSURFa1u2tqigYUoJ1YA0gH+GO2T6yI9hwb8s8ItDAhuNN1ayXePl0LZiMXtiBSTbomO2co4QEJ1pyDMQRnRqKWmBj2dRv9n+LwH4d7z8vAxIgHYkTAMw0ZY2O2WsbZA0lJCazc7MLDK9pg3k5qoZ1Zt3jLTNObP9X7LgjylftP5VmUrO+2Ph98fUs1F6Kyxp6/QGgGZ2rHapVV6NRnEBodaGJaD4SgPGIJj6Hk196ydO67NYsbOuxV9SwL/r5Zz5f8Y8dNbJ0CpSa7s69bBpm/pFU000aQGTQIyxomAGkIiRiKpHtayB7Kb3aHA3rZlOH3R2Frd9wvwSgJ9QvmgzjJ4FW3X4/LPPGevzTpaGbaqZXtQmWqoQY6hjYRUjsVZAPGhZXaKmhp7MywlTqn1O30lTH6lZteBijFitA1LP4Tn/kA3RXzQLnrnO9PzDs5+tH0KMsYpoN1IvtajOio3SoYJga3h7KtnOo1pti3BKHk45On2Po+Oc8bBgPCzopstc2r7OxuolLIbEOBLb9i2fW6OPLU5VUZPWFFNxrRCkxgg9Lwc2NFSqATrL1n9hyn95+fc8AlAdX8ShLAz4LPq98mAF7xHnEFOZUqJqTdmqIGMjhqi+crtqjjL7PNp7n0e773MSvsvxieDHKX6cYXUdjUKvs0ZCikkhsWaqEYMuTNqzHpLGntj855pOXvR4zFTssx0yx9p/QcEHP78G+hmeOPerPSZnudrMtVZFr9esVKqJE0LA2kq+i1rJfSEKMUhlMrEQUAIFNvEkNrJ39JQP77zJk73b5HGfk/ge1q7R624Tg2G51yUvJ4gIWdrH2rTRWGby5TPb1dKxWye6pqFVQ4RSDY4wpWxtKqDo9Pc/ZO34b7NIa5RijM9whS4QC43E2GitkSRxdLIlSu/J86Iyo0jllzVJRMSgIkSGeD0hsxlPT57y1z/6c54e3MG6Ept40p5DVLFW2Njc4sbF19DJBvnE0E86aLTzGrNEqgCGJo5GptxZ5oIUGi/3giH6i3a+/7K0qe6il+KsHLj4o2LTBo1S+yUEZ+voJkLl348RbBVoMMi65Iz58Z0/5N6Tv6FM9+lvH7Czdw8/PqZvDf2sQ1EUXLu2zfrqSyx1N3BxBRsdaMD7iNgIJiK1aaYC5dmJM+WqtalQ5RO04F9SuS++NEShbeqdbhq+rLOtIrWsp4gYrBOiekIMxOa4CWAMkYKd0UN+/NbblFrQW+2yc/gRp8PI1tYWzllUAnlZsLm5jdUNRCwiFmMgeiWEHFMvNDcmmQUv18qwyjSEYVrt9px6pgz4y/LFlWYspixYdYa3BUPvvNxVxftp7au1RsAI1qbs7N6jLAK97jK95T55kfPX7/4lP3n3L/nWb73G2+//Ffsntzmc3GFzu8vqphIKIeSGwWCVNF2ia1YJfoipgxSMAStS2QptQHBneagu6qk6PQYLFHDO8v5siXK+sz5JC/l7jOv/0hzgPCIwG5K27ghVz0/JzOyDEDWCgqlvVxZDvv/9/0wn6XPr1pfpLXeZ5EOGk0PWtwf84M0/5zi/x9HoNqvbsLoJByd3SLlAarcZdFdIkyW6bpmTkwkGwQo4KzhrUOMr+U+1MnK3miGLONL53SkAz7h9ft6+/3sMvC+iLIJPRLDWEkKzOnhmwFACSCCqIUaDSCWHWSucnByTmARnE4IKGoTj0wNy7jApLU9OC7oXX+Q0HHOUv010++ztvsXR+AFbl/psXegTipzUrpCEdZzfou+uY/wFvEYcKzhJMLVrTyTUHpEExTKfgUHO4KgdOyiAc/gzqTRU9ZMp27m9+PyX/LJUZTH4V1VxzhFCpT02Yh4IUQIqBV4tIRqMLbGmxGIYFo/opn1M0q/YZITj0wMmepdJmfNkeMgFUU7DEUf52/S6E7x5wGBtwurmMqfjA0aHOVsrl3B+Axe26LlrmHKL0nsSybAVZ8fU60oqo7aDM2uHFo3E1fLQhtbpohYM4Aizxs6Ry3NcOr/gcuPn1b5Py8rb50nt0ah/UcXYVduiVCZlpNvvUPqSYjyhLIa47JSxf4iYZYxdJrVdEtdlUhzhZUQec4bliCd7u9y9/xFvfPnL/Jv/8H9is5KN9QExWtAunWQAYQktM5Z6a6wtbeIkxYm0wBcQKSuzizpEUypTzKfwTNTYknkALoiK+tkWJP2ynC2fZa11Y0yeingw5Wg59znR95gEw4Od+9y/e5t79z7EiMVgeOPVb/DGq1/H2Q2cS5mUxwQZMYk5w3LMJJR4hb/63veY5GO21pcYLA8I0SKa0kmXwC8Ry4zl9TXWljdINMWaKlOGiEekRMRTxRkaRG0VrCqeOSxNFY6WBw1BqwDDCoAftyB9euwcNH5aVv23aV+ce37T5ucY7I8Dx+dJ4c93a358UVV8CBgjSJ0+T4GT45Ine2OGxREfPXmAYtjcvEmvM6DbHbCzm/P77/4ZX7r1Iq+/9iI/eOuvePlXbvD+nYc83f2IpeUVxuMJhwd7XNq+RLdnEW+wmiKaUk5GZFlkY/0Gm+vXSV2PVNJKyYgRqX0oFSs1qJpa827a1/bRNu2dD1RtZtS5dsCPBeJCp37RxmudlxOe//qPBcQn3PBT5ND7uP6pDMfzdr45hVEV70ustdjaW6XA6fg2j4/+I+PikMIe4mNBiCUfPRpyeDjk8vaLXL7xIodFwffe/Igbr1zm3qN/hxroDzLy4pTReMTh/h63XrtF0Akx5Kh2MNplfNzDLN1kY/PLbK1fI3FdUmMIQQnarJQLTCOnGwBOA2Nm4Kuonc63brpRXKl26t9FoFRbJ0acdcKzKMGnp4CffGRWFu+nC/8uuuHPXv55UcDzYfFxxz++zAbnnP+Yb4tqZdBzzmKtw1qHD0oM4OM++WRIlBLnBDSgcUJ/1ZD0B+TFER/cf4tBd4N+d4N+MSa6kiiwf3RIlmWoRlaWB0SvxAghCmWh+MKz0rvMxY2bbK1dx9BHo8MraAw0Yf0qHo0JovWqOaVaQyJNDzVGo4YHL1DAuszJgKrgxJ8ZkEV/cFN+Hgp43phL46c5c3JzwlmKcp7h8/nq8WkpYKsS0yn8aSffs6fgeU2eDVUDQIsxlhAVjVDGfSb5CJOWuAxUPZGcQb+LTTocH5QcHYw4ziMn+THx6R4hfZ9ud4WDw0NWl1dAE5aXB2hQoofghV6yQtbbZHv1JS6s3eTC2jViMYDg8HiEgEiVtKoK4XJovT5YK/vQlChN2y3zbHiunVqbYby6KZV7FgU8Lzz886aATdzaM8+t/2836W+fAj7DivppLfXtK3Xu13Rv1obZPbXmtxUbriiPtSnjcsRy9io3LwWGkxNG+Qnj0T0k7VdRMRaWl3ssDyxlGfBFYHf3Lrfff8xS33P1yit03UUcfVJdRgoI44JO1uPiyqtc3HqVjeVrrA+ukbHEWANCB9TWGm8FKlVHlbmhJkItoM1PrtlkOm+R+oIhWnD4FopbnVFf+HwU8Cyr+mRsLMSUnUPi2oTnTNanRWryCa7GT0cBF7f1Mz81BXzW3oK4rmefF6MQoydGZWmQ4v2Y6xd/jVvXvsa7D9/jnffew58WJIM+YseQTNBYEEJO1rEMliyDNfD5axzu5VxYfZHMrtGxa2Syji9O8MOc1fQSF1d+jdcufxvIUJ9SRLDTtcJVbVWUaumlrdgvVCYihWrBe8uSMt1tA29hypWjE21yuShVit6GAp6lRecoIj8HBWyPfTsM6eOubsh7e+AWTvgcteCFOkwzCbQ/n1QWmLDOH5v3C1R93Phypz1eX5ylKePxmDKOKOMYk51gshMe7f+UR/tvczC6z+H4HnkxotdLyceGYmK4eGmJTvwmtz94xM2rt7h65RLB56SJkiYRXyqD3jKr3ddZ6bxB8AmhsHWcYXstsQcpZ61Wy1zeGWIrp2I98Ztf7TwxrVY7qLKxN69WOI8CznfnPEU5nwI+P7VZDEOaUqxnyUfT589fN0cMn6G5f1Kd5hWvFlVaPPdT4HxRYn3WJZWZuaE0s7ZEBSOCESF4TydLSUKPECxFOaacjLmx8RIdd4vw4AfsHH2f8eiIgV0jkyGuM2R84ikLhw1rrC1d59bV3+b4KIAWQEHadSTOkdlVbHSE0hILMA6MU6rQ1WZhO0yTEWFaWm44t0OmU22KvRbZ0JoFf5b3ekwH6Vz8nQ/KGbV89kC0qc55WqMgC5K7LGyfDfRZ4G27IcxRzbP2uhb1+5Rs92xptXeBAjZ1PzOdtPXc2gWHGEQseZ6TJD2cSRARuka4uvYqRcwJGvD6hMFKzsHBiIPDE7RYQwu4uHmF9aVtQoBO0kc1QWOCtVWfhCjkGgnRo3WmK2Hmi1aaRUyzPq9q2c6i9axUfuezYbdIETwOJ/7TydfPoE7nsWVpfT3LHCHTk3RKbNoscgr4c3lv+z7NNfPy4VSUbUC4iDHmJ5S2Jkw1cZ9P8Vg0Q5z9t/m0GzRjXRGmFKP6rgBY5AVZ2kWsw6kjLyZomrDSu8wLVw3GBIxE4tE7HBz/DEwXBC5dvsr68gVCLnSSPjEmxOhoMmGFCCFGply0nnQzi15lr5v2y5QQRBAP6s4KuK1ydkSaeMDp/VpXfIq+btjGGdPIMwX/uik1kM7SwcX4NubuM6d1tyjXmefoJ2m3tMKcWuyvVQudA0VD+D7ZPbnIcmdPqIA4pR1nZN42PaxO0Khg6hQYNTuWoKSpAwo0ChoBo0hIWepeot/dRMg5OnnCev8ag1dWsSbBmoQLGzfZWrlEWWT43GBMhjMJakqQEpUMTIJEEFWM6KwntJkqpiERs06UajVdHRh4tvnS7on57jlDARMJ51Kfz1LOgkOnx595jlCP9jPkt0XOO/fAmWZ+tt7nAey8W8zA2N5rt2Dx2Oy/8ys1pYKq0zXbVeLwZ99xqmTVWe2ry5UQIcsSoEC1MiJLdEhIid5RasZKZ5WJlKz3la0by9XyTGsoc8fpUY7GBIIlzSzOGqKUqMlRMlSraGejAaOAVqH22sh8aiqfb82aqzRvdc6ZqRbcbolOnRznlWpZZk2VFMXrTAt+lgH6k0v1tHnwSWtwm7ReTQXb8qSgMRJixJjmtRFNXVr1idqijFVW1saIPqurtqjxrF5tm/x5Umk18FWna31xGyLzkFn8Z/acmmO1nlBRMqnD1KVGoy5c13wnpornq6Bdv19NAmp3UbtLx25h2MKHSF54JBpsTPAkpPmLWHODpLCYZIKxp+R5TmZ7RJJKuVFTcc+pbBdmIoHqOeOvNOl7aX/qFAo6Bd85WDkrZQAtALZG6blKOxnNtMgMfHNGbG2GYdY4q2X1Qpj6HoGEGOt1rUmyIO/NWuCo5NR2OuB5+VXPUNqmPs3vatI9o12q1XqGqQymMzl2kY+cUYTaWVha66ybM9p4a0QJmMp7Tf1T6/B5YJrRtLk4doAtxoUS4mOELqIdJFhcdIRQkLiCXteQJAYxBnSVmB/QG/TxKgSts24EQC0YgxBQKVvstq6xNgiJtDtgNnHqjKlnOmehd7W9W7V1KgNOl1syo4ifqpwZweq6iYNO7VBp7tVo25YSEcHEgoRAWVMFjwNVYq0lJElCEQ2lWrzzODwdX9XVakmQZAokj61iGWtKubh8dDHYc1G8OC8iGWny4zV90+zPM8v5LmgGDqbpL1ogbPfS1KzYxh3NZBUIHhsEFQOmDmESQY2ChooyG8Goq/Lfm4BQAtV/JoKWFdJEILN9JCRV/9tqpVxUh0scp3kg7fUYFTkWmYaX2jmO0h7w1lYFxD5TdFq8psUUKgBGjfUruVqX6LMF7vME/8bE0S5Bklqm1Bp8inceW1b3cFQWfiuRQELpSjwJUaoV/B2bcFI/xjvoeAd4rJZYLafvtVs0I30S+Nrb88p0MtSa31QDfGbntinfTLedUkBtS5Wc+2LK6ZKOKXVU1EdscPUbk2y1FaHJUiViQSxGBRfBmoihmD5JVVHPVPTJbA9C9RpasTkxVIvVbbLKeBhxxnCqCZlAKkqisTW99MxUa/UYs5cqPlvgO+/qZy9K4nygtQewrTnOxw1Wx62WxPqwpazPq/LQNKA01lDUKb6SYMiMIUQleBBfsBSrHCb4ykguSJVWgnRat0QCYfrWsZpKnEflOKtYNb/nWqnVPUuSKfiabj2rMiyy3+mTZsAVQ6WuypTASS0PzlI013RmqoRBMAZ11RuTVKrspGqqDKTTxOJSBQLEVuWiNFJjtW80IhR1bQRkjFJgjMUYR5wMyXxOX6EscxJnSVydoFK1BcFZOz+eP36M1tE+BT3rCz733LZD+Vll4dKsXBTrq+K8JWr1MpxgEtQYjEIRDJlRrDHYGLHeE4Y5naQHSMWCfc3C1eFd5SFoJoGrEydWyoxh7hUBMP2vEgtmcuBZlgJBHN55BD+nbFQZ4ecF8Bm7bd2p1RcRKnKuAWJAnKBOiFKxVi0D0XusOKyz1X3qG3kFsVJTx1gBS0K1AmPq/qr8sREqgNYArMAnFQAJGOL0gxYQC6xJMWLw+Qmd4BGfs1zmWJOBcYSgFDqzA1YdOS9+PLN8DJ7mlBCoZnvDxtoyofDx4Jtqta3ntI3AWi8PbGRKR/VCnFylzt5UCa4mzegAZRE4PTqg4yBLFKudaoW/CElIpo0vEoPq/EIqI2b6gpyZnbFhvzNqPZmj+c/qwEp4NRqYsVJTE/cWABsSpvUAtUFY315VUY1oDGgImNSgqcFTfTSWaO7pOEtiLM2ciArBVGyvooCzrQSt8/rN3nwU67ZGIBolNECUquYWg60rF2JKFEuBA7UMVtah5ymDEjt98uDxJ0OMNVhn2i2ioeKVAr9A6RYh0uCg6Wpt+m92zTmLkvyniFhZfE4FknlZK05DihrNVOv7OwwFFRsOknA6gVEJK6lhbW0dLUdoOeb09JTe8nqrdc0z2s+qU1Dgz8w4oVoj25hyppLYOealRShWEzDQZIunGWxVqB30TYb4mpvU/T0vNSFVijSMBSvk6pkUJYXpUhhHXyyDTgeIlEVZKRxSsW1vDGIiESVKrKlgwEXbYsEVq28M5SpU4DMQDARRHLV8rtV7Ab1YShKCmvotWML+8ZhiknP54haJzegB3gfKfNx0Jo1G3NKYziq+Z9HRdOjcz2Z/xoJrhARJ5uIBP6mcpzEbMZUsEiubUXPPGCOlLxHXIU0zxppxf99z/+AJaW+ZKysWazsYr0iR4wY9StuiajW1nZfrhKihZfZp2w1nFKi5h9RvBD0TdMsMvzMTUUMBm0ygrQzwMq/RVQPckpcajlUDUOq6nYaS47zg0fGYR8eR1zY3Wdvs4YtAkU8Q6xBrwYLTau2FaKyz+VXAlxjxVRdXWqpW6FcDaqppFgOYqFgBqwarlbJi1BBQco10ehlPgLf3hzzeO+L04BD34DFdCbz2wjW+trqByiwYoknxNifjPQN8H0/DZte7RCMBixEliBBNIKhUgqtSN7zq0EhDemczYCqCt+x+NgpWDV5NZWIxnmgMhBz1OZL2MZ2MR7vKH/3off7T978LK12+863X+We/9jrG59g4YmNphXJcVqBSQ2mF0tbUTJUkQBoiTgNOAxGH4ohYwBGNrwR2qaJ5S2PxxlWsrAZalMq5JDp9FxBWIzYq+MrCLzXCpAnIVJ2y4qj1Cwpqwqham4Kcg8QhoZL9rDMY61DN2Dk+4vf//Ed8cArfefk6N775FZx6Umuo3A8RoiKiRPVI/UyJDdAqADoFp0odU090BjW1+aWeFBXXsxi1iDqMVpRxYpRd4A/+5mf85IMPOfGROBkTJ2P6Mef3upZvrGzUJpyKhUPEa2RmEfgEReOTMAi46DokXokohSg2htltZf5VeVIP1JSnN/fRhpUJHUkwieHocMhgpU9eTDienLKSJqx2e+QxIT8aQzogZAVP9pRDH9gfPuL48Ap5Hli2FptaJjGHtFryhyoGi+LJHXSKKsmTjREXKneQYYLXlKgp4sDahBhKNFQaYFeglIg3QmnAG8Foi7sAJgZMVEysqU3dQJGIaH2sBuSsLxUTwQSIIVYZqExF8TQGtPQYm+JM5azfPS74kzff50Fng5v9lMnoJoPUkqVN1tJQK81aKUKxombNNk+EYMBFxaggMSA+EI0lYtGoxKB1JlRBNMyIhbo6ZYfw3v0T/uLHH/Dhk8eEboeNzGCLMSE/JWhkPM7RJLbe7zvTBz4uDvQ8bWFuO6eE1NOkskHpjMKde+OG7J3zf81zvIKL8GR4yrDf5dHRHqM45pX+NtE6MpQiheP8hKTv2ElyRs4xyVKKbodELLmBXtcyjCMSdSSxivqwVJEa+05Y8o2GGZDgq9GXgKhBNKUoS/q9hNFkQmJLnBpstLUBXDBGcHVbBZlSP9HagKFK8zorIWKoPAU0gG2UD6nkLBMrQMQQUR/I1dPrpRS+pByO6WQZZVkSkwTpr0G2ys7SCnFwhfW1LqYs0bJo+E3Fsq2AeGwUTKgmHAFKC95EMq2C4utFHdhYBy2EiHjFqqncbU2yASpNWaIFa9g5GvHoxHOoKZ3+KjdvXeNiFjl9cJvrN65VAbBhPJ2cM9HjjMR8zrFPKtU1VTBCW7XWNtLPUWxgbvZXsk31JUBBySg6Opcv8P379/j97/0510cpp//8m/zO+iaSCkmZYSVWHbc+oNMdMDz8CDMZoqJsaMY47dETR5wEyrwSB4xa6Fm2cWjH40PJuKgyA3T6Ga43wGmC1K8nnXiQpEfpC4w4rM2whiptbfDEEGqKI4hzWJdAqFhdaaAUpfQ53hd0ReiKqalKvVXDiMAIT9cmdF2CScAqiFUO/AQvnpAosRjTSzskUhnUC9sFXUZdjrcCocqrYqnkOguM8wLtpIgoRiCzhsRYMAFRT4yCD4IRhzhLXn/SNCG1KXFcEsYekYCYog4rVYLrgO1w+4O38ZNjNlPl+maf/+arr/GllZTdW5e5srJOCZjT5mWEMgVf2zPeVrmmqGjw+EnKrCqu7VhejOc77/rz7luJRNVRT6QgUDrL7tDz9kf7vCsZL5eGSEKRGFZLQ+48EkucSxn5Eun0KFyXqA5bRMZpl6gWJ0pmI6kX0gDDMpDbABhUUpb6jjDJkTSlyAuiE6K1FFQLrKxRnEvx0SA+ImIRY+kkPTpdIYw8w9EI6yqXFLGo1lQklnsDQ1879MouIQTy4HGquKj1rDNk/Q5pUlG302GJU7ARSit4YyAxWCzROgpRsrKRpStNN5rKSmckVj7YSqhEjdDtDjhoFA9RrElIJEHMBFGPxkpMNWIxzjJxhlNriIUnDnP66uhLgnEBa0u8lnhKvFUwlg8/fJuQR7ZWB7y+OeD1lZRL5YRXOn0Go2OiGkRcS/05O/DP9Jfp4vkL6m/t9nENgObvsyDoLTxjCsJmp5aTVCForAZfYG/kiU8jg/UVLrCBkjJxlRyZJ4oZe1ySMfYeuj1K20EVTJGwPDIcZxUAUweZL5HgkdJT4NGkgyYpK6khd/tIljA6GlbmEucYa2Qinq5VrE3xeeXacmJxYmfr2TEAACAASURBVImTAFHwPiDeYhKH9Q40J2rO8ihlJcmwaQdJDSFGNJ9A8BjxU9Y9KT0TPCE3BG9JqllNUEs0Dusc1lZLGXMC3ZwmnSOIJYqZxqBYqMAXIGI4Cp4spqSk9HoCOyNGcshIxpBmFGmKMZYkOIK1ZNEi40Ch0HcdetZR+LzKJUNJaYeY3iodlnmqFnVd8s4Acae8dOkCBsgFun7C2BuSEtRGtM4ziGmg0AbEvDXg2VSvll0WIqrdnBlBZtibo4ELOd9gQQxUpQnSSQLsdYRDC/nqOk8313m8tcH7m32+lMDpqGAYUibR0CMjmqeUaijEMTEZZQb7p7CfOk4NrHihCIFlI4TRCd1sQNmJBEmIYjiJAaxh7D0mTcnFUnjITUphLCF6xqGgnznKckg0yvJqQhmgLGEXyx6WJedYsmBjF6eBjizzEwtu4tmyhn409LF0Oo4wPMZgETHkBoZWCZ2MkBj2fInvJ/SArkISFedLMqNkpg4qbWZvnas5UJk50CrgIFohZgllonyYJOSlkAHZdo9BSOmHFBMrSltgq/D5LOGoUO5IydGgg/iSNedYTTJWkoxu2kPLJ4zVUkrJ7mlJZ30T9hNyzTHpcuUs9Qkur+yeZSUkVyZQaXPHZ8h8et7ueQdn5NHNSNh8DPD8IxYeKMx+16w3aiXqZgFGiXDnpOTdwxMOc8uW2eBeHvjJwR7JcU5v/RKTaOmpI5oxhVoKEnJJ2cnh9u27vJVOSJdXeanT46Vul42VlK7dwJQl7z26j9cBQQdc7ihXusIkeLI0xQfL0As7wyG7w5LlXspKP8X0Uk7khMcnB3RSxzCPjPLIMB8znEzYNB02pMPFZcfGSofJEG7v7HC4u8/KYIVXNnq8vNHDOkeplWZoxVCYyKlR9kdj9k9gZ+8p/aUukYhK4EIn40InYwmp0mtMB2LGgmPtTqtWPFaGb99JKQ18cHLMybsnTPIJly5e4spWwtWlJVwsYVSgWAIOm8L+RHj/0S77mTB+eszF/jrLWcpyJ+XW1SU6SY9JEE685/2HOzw5OuVossRKN+F4HHnv9gnOKZecocwEnzI1TzUYnPd+fZKgd85/C+zWNbaiRrloxMwzl08DFRobYPWvqT0gqrF6HUDa4YO9Hf7wP/yQH0/gwDo6o8if/MW7HD39G1ZjyvJv/9cMtlYpgWJUcGocrK6wGxL+9MMDdj58l/eLEyS33Fnf5PDlV1h5eRtvDbYo+PHTu7zz5j695Dq//eplrr9ymYAyQhn1urz10Q7f/+5d9g/us70y4Du/81skZHz37j53HzxibXPE3ZMD7p0coPuHrERlAmRrq3z7m7/Gpd4W7999zL99+6dM9iJd+xavbQ749Zeu8a0Xr3PB9Oou8HTSAWUJ3/vpm9w5OOH4I8X4Y0bJiJEb8eXr1/mtr3y1ykYwOpm62KJ68BMoUqAg+EARlSXb5ZEGDvdK3jk+4N88fIfd20/xk0D/vWVuXFrlH3/763yj67Fph1gKGpTjPeEP3/kJb777LidFzsSmZBvbdEm4tLpFMd7htReusWIDjw9y3nnbszsacJL0eKpd/vU7d9gaHvKajvmfv/YqL9y4iqjHSJ2Gt7F/0l7nMg+0Z0HxfM9adY/zkxNN7V8LMmALeC0LdBWdEqnMF6nlwweH/PWf/A3D17+CbmxyfBr4yVtPkYN36JeWb3/jN/kqq+y7BoCWsTq+9+EDPrw74vjBe7zf9ZTaYevhI+48POZ693ex1xM2lrsc9+AHd+5xob/BVy+C0z4FBYXkDHG8dXLEX779EJnc5qkTfvcf/RoJfb57b58/u30b5yecHB9yenzEycEjNlZSjk5z1vUSo+Hr5Eeeu/cecm/vFLO/hC0+YveJEosJ20trrG1fIJATyDHAu+/u8O//4vvcLceclC9zmh7iwgEuHLA3HGF7A65981foxcpX6yUSYwlljpQ5UpTEUokxkjrYi5a3PnjE//OjH/Lv8jukRtCJIe4e8t07H7BjMy6/sczN7ZeIAVQjB7vH/OGbb/KTx3c46QhRBsSDE2ye8NJFWD094fKVF7nRSxgd5LzzM89u2Sff6PHU93jwdIfLpzvcffohX7u2xrVXXiCdlFipXmpTEZiGVH0aFbcNzXOO1V9upv2ex4K1dUVj6pt3wSh1ACmV4fVw7wSZFFz+yg0+Wk+Ij0aE1Q7ry30Sf4kLztBhzPHE4zvC6uAimytH7AtwfAp5yY1wjY3NJW7rQ9yx5fRowl/fvst3LrzCynLGrWyV/y8b8P3RmBt7O/yP2iHYPkU6oATKh55dPaXT6fKrF7cZ9FIChhCWOfAJ/vYOHZ9zc9Cn95UXKGyPBz94gD8Z8OGPH7Lz9ICheK6lA166ucn7T7scP73LB7ueHz1IefWlb3NJ+5yUysEY7tzb4cMnuyRZh9+8YrEXfpWDg7vc/vBH7N/f573VB3ywvMHm+gpFD/xeSTdLSIzijGBdpYgEI0xSGN0b8qN33uOju7d59Zrj5rVvkJhlHt7f58O3f8iD//wWfzR8mX/xmzdY2nSErmHvaUAP4dLSVS5c6HORjDt7HzE+hmyv5KOi5On9IY+uBR5mI6680eF7D0eQZkgyZjVdIhlGrm32YONljnLDtgKx0oFVI+eB79PBkBmaWkRMp0rIVOnVmtPOC5jzGs48ua1YeKwpobA2WOJ3fuWrXNt+kQ/uPIIf3iFLPf/i917hn/12l8mJcnHjIseaU6qA73J6sENRJHCacmPT8j/86iusXV3i//63h/yxdviLziE/ffxjegcX+c3lJW5lq2xcuMoPi23en2wjJ1fY9EKnNPylhb8pPW/1h7wau7x49Sb9foqPEOIKOtiiMxzxlUtX+b1vfYNbr1oef+j51z/8Y/70RIjHjhVZ4mtXRvzLl9a4evkW//uPT/lXf5FzZ7LCwVs5r98ccGXD0e0Lf5NH/mDylMdbff7XW7/B//ZKwpXVy7w5uswfbF/i3//lf+K99x/ywWCFb33tDfI1KH1BN3OkXkmsYI0lpJbgDD8U+Ff33+SPH77HplH+p5sZ//3XLzO6eJn/9513+T/Glp9OhuwelrziJvx6PmD7yQFv6CH/8uUO2UsX6Ly4zeXsOv/Xhx/yB399n7d2SnaLgl6xzwvJGt9Yu8CNl8f87P738UdLvLjk+e++9jpf/cc9bh0ecvnWAMlHVbg+kdi4xBsypbKIjCnI2pspbKa4aYl29Zc5n0HrDFxTAXH2j7b2VJtPNUtcKOgCl9c6DJKATfYp1XO5u8QLF25w/dJFes7QiYF0nFOYKhDMap/NzQ7/6LXXeP2117g4uMobb7zIxkqfnrOc5Al2UkX7vnjlGq/euEZXAqXdx686DnXCw/2P+ODhLo92T+j4gHEbXLl6AatJtdLLRlRzBj3Lt164xOUNpQNsbjre+MYtdi91eMwjUoT/6taX+M5Xv8HrGyk3tld56dolltbXicBpBN+B02D5yU+/z713HvDljZt8/fU3uHRxGZMdczEVLq6ssS6X6E0SxhPHsLOOsTBO+njJkGjJZYUMJUcwGO4dDnn88AA9Egrpc2nzRS5ll0jUsXFhlSuXXsLZnB1/xNOdJ3gLOsjYvHGNX/+n/5QvXX+dy+UK2JSrN1/m5Vcu0O8/Jh8/5advvc94VJBllvULSfV2JfGIzdneHnDtUo/lK6ukjUmopkwyR3HaY98QoJkauxjoMQ+v+fB+pXZ9T43ROoPWGdBNwdgArjnWgK/auljQjSOu9Bz9JGCTA0o83bwKhlzudug7QxYCyTgnl1D7LXpsbnZ5ffsivUzITOSN119ifbVP31lOc4fNCw4osGVga3mJrgSenn7AB4cHHOoEu5yyNxzyaPeULFQAvHz1AjZWrnRxSow5/Z7lWzcvcWVdyYCtZcc/eeVVLtguevoRiUC23mVojziNJTe2V9lY6jA6PmLv8KgCYAZDL9z/6ANMkfDlzRusdi0ny1f46coldrd77Nxa48HFy3y4kvLjk1N++viYo9Mx46SHlwwTagCqUiBYhXuHRzx+uM9ksMblF77Mxtd+hZ31hAMD6+trXL1cAfAgHPH06ROCBQYZJ+qZGMNJr8ve2irvaMSLY2P1JXq8QMduMxqWZGmPLIX1zbSKkyUgdkKaeYI/RfuQqakXJLRxMcNHiwq16dU8CWuidBb/bDBUH3fTG0sjA840nbPvuJmvA7Wy0mjQAuRGyEoosgmlGiZlxHV6WFVMOUR8gviETCN9ERIEVUM3TXjx+hZXtwckeFLzlFXdZP1qn+7tJTquyyQEuuOAiZHrS0tc5CFHJye8+dETfuNXXmMsJY+G+0xQVjtbfPOVa2xmwkYGJaDiMQrOO25cGLAigifgYyDte4rxCctunSxxrJsOuS8IDl5Y3+T68iZL/pSuZAzHnsfA+73A3WCYpMpkeMKdgz3eTcY8FcsFWafUhPFVx5M78N3xI760+yEXbt4E02WSe2AZtFr5N5QJifb40f4T/ioMiRcv8tWtS/zg4SFPpIMWE54kEw6fruHyr9I1Q3YfH5L7IadFH9+13H56xE8OHvMgFuwePcKX6xyNLlCcbDI62mFXDhmeQrYCfgypi5jcE4sCp0rXpSQBKKVeLdconNLCUVs7aFOps7biOdS1lNoZMdXZm5J0ekhmadwWqCCtC+f2tSKlokruDKmHIjuljJaJj6x2u1hVZDTEaIaokqL0WgDMR0NsWGKQgWNEEhOCpMig5OmjXfILl5mESGccsRL4yrXr/MYLI/7jW/d569FTbslr3N055GcfPSJXZaWzyTdfvY4d7XJ8NMKs9VETEK2WBSwnnvxoRGodXZsw6JcUkxO63XXSNGHDdsiLEXv+EHzCijqWSkvXpIzGnjCOpGXB+NgyTiOPHj7g0D/iZ90h7mSEc2u4ZJ398RHbh5AmY66MIhdchlqqdbymSxUPIpyOx3Rdj8lxwXa6yams8cGw4MmfvcXgaIWLE2VnWdk52SRxQ/rlLnuPlpj4U4ZFnyOBP3rrA9597x65N3yk75Bu/SpRCoq4i82G9FfXSW0H4phylJE5xUw8oSiwCl1SUiKUtVuwhsyMpS5Yic/xnmkD2FaRBfC2i5uBaIHZt/O8sVjamlBFLacrRuuw8R59ontCQcHE56hLGHkhwZBoFUZuUYwqVpqcw4E0gSL3DFzKMJTkI+HgZAdWV4CIFUtmOlwcwG+89iJ/9eaf8+d3b3Pz6a/ih8r94yFKyTdv3uTlq5bsOGGYH5EEV2dxjxgJZCqk0WLUYKJy7KoghXGRowOwAilCxzh6LqWbZXQ7Xfo+MEoiQwMnGhmPS/r0kI0u+/4JK4djVo7HjFPLOIlsr2/xwq1XWJWHbF1xaCdhTUespo7DIiB6jBQDupJhJ7A0qt9K7kccnJ6wOXBQPmDfeI7yi3SXT7m53GX7dJ3XbEJqehwtw59+cJvv/eD73PNwcdvxje1XWLp2ndPQ4/h0xN7TU7B9RprTdY4gprJeKJjpsgLI8kDA4+vXHbbHv1m1NyVWer7SMaOczfkyA2IrkFeRWTjWFHy6EOk//TEDnUCrcrOHKbOEOt2iS3AFJQWTkKNJwnAkdKnshhAxWkd+SJguNUwcjE88o2GO9BO62Rprm30Oew6IOHEkpksnwuWOoafCXQO3SxgOI/ePTolGeGWtjwtjMklZubTOOOnUja+yvKcRXHDVuomgjPsgxjDJJ8T6HWgZQtdYcpvSTTt0ul16pxNGqTI0kVONjCclA+3wnW//Nl8aKDbkuDBBygx8xs6656IPpI8Dt5wgIWFNC9Yyy51JAD2C8irdToaZeAbDEoklMYz4+m98lf/2y9ss7T2hw/t0h1tVzufuBpv39nlU7JGaPn+9f4c/e/BT9g72ufLi1/hffu0Cb1x6ldtrCU8mKT+7fZ+DPYskPcZ6RHCbRIEQawDW0T2KkuWBsSvQJgKmJipTIM6BcBEji0Bs7TRAXACXa2svZ65taz7ngnB2PLbItKipg0UiYhVjhQOJWNdHJcVLQq6BPHoKKwQrjMMOIpfqxdCWtcEyT8uMTueA5ZUNxr3qlVDqBYKQOriaGrY3V/nx8SE/vPM+1luG4yH9Xo+NpEuvNNgi4PNITOqFPTbgXYEXh9qCTgFHCRSilKJ4UTwRATIqD0AZPfvDY+7tPmEYPa87SJyjbyyby5sc7CiHHaF7OWXrKEVLIXFLpA42+tAVWOlfY1UiO2XJ091dxqNTrPSqF0enjl5UglHWN9Zw9x8gYcKKMaxaWF52XNcbdDc2K89HmbO52cX0L3PkAh1jKA9HjLt9fvcrL/HGrSskposLnpOTE44nR6gzeCxeqF7eKpXhu5N1WF/p0Eu6VSR1iHhTAo5mFWA7S5jODf6ijCZtxjktbRZcrVeegXCWXXp6+5ZefW6poxmmi5BqXUnqtalIFf4NiInVGxWtcGhi9foo16F0KYW1jK1QOiE4yMMOIqbOr2SQUjBemORH7B+eMil2q2cFIRZCMglczQzbWysMTeCHdz7g9t4eSZrw5ZvXeenCNn1vcQWEvHqhswoE4/EupxQorZJ4JRelEPAGvGj9AgIlQUAjRfSos9h+l73EExNwktA3HbaWN4kF3MmPeOID/RjZWurSTyJE6IxziuIYsQHKgsKX9AdLpKnD4hELMYFeFLCGjfU1EqOIH3Nw7x5EZa3juBhXSGOgR8myyUlcQZkWHJ/u0xFDcThm3O3zyvVNBmmHIUriLafHxxxPjtHE4MXijeCJVWygKuPxhOPDI4rxBONBY6DUslo6S718lGZp6PlaRtsMM8PTnLba2p+eidYwp01XtYXsufD79o3av+sHSs3KQ6g+ZQckWnqdAcakuE5CZhLyQhnnOaWBaIWsk7G2tEyen+B8pJyAkZTToYcsI4mBXlCKCGmsooKCq7R2GyNba5u4B485OhwyGhn60XN1pctmBwYihMziTBU5k9Qsn1hROCswygQ10C0hiNDpOJyOQT2lQt8bXGpw1mCNod8fkJkEF0vWki5vrKzxE3fAg7sPeLLaYTLuYA4nrC0NIEaCs3jbYRTKavJZR27gKB+SS4YrPYXAUaY8TQN2KWHVK/tF4PGjE568s8frVwesBk+/6NTytpKnkZBFLI6uetR0GapnpzQcIUQH3sJHO3vVIpAYgRInSgfLcSZkKKtZh4srPZaTDs4rE1st46ye00opMtURWkBaJFJzwRbVTptYzjk46nXDro2mNsuWBTCeB75GIW9IrADeV0GSYwMmWrqdJaJJGU7gcT6qV25R5b2zwjifcLy7h+0FnI/4EViTYtPKPJFopBuUSYRMq3fURlvNDquBrfUtOq7PqUxIllZYMyXXVrpsdarVYKFj6aiiVAA0dai90QrMwwzA0PWVN6eTVQBU9RQIPS+4vsE5izOWpe6AjnW4cswg6fHGyhorzvDmj9/kYvS89urX2bw2wDgY58r+yQn7RyeUacmllauUpgpMPc6HTNLBFIBZEdgsSl5f3eLrV29y/OCYx49O+clHe1y/scGVpcBRbtk5OeXp6QEb68usyzIujXRjBOky1IJ3d45ZW+rSGyQ82dvlp+++X5H2GBCKGoCGgxQ6gE4mjA9L4nBCkqRMXBUkWuU81blhf6ZZpA2qBazMe9YafWP2201tM1png5req6WczKnRC8+cA2Hl2zTGEAW2lxPWlzN+tveEH/7F97iy5HBWePnFF1kdZBAmuEmJHo+wpiSJilGIsUCtoQSWvNIV4TQEVrs91tYM1qf4vCSMSwZpoK9LeJugY+Vyd5lXewOMLUlHFtUqQtuXEIoC70t8tAQBZ0C8Ij4QRhNcIfRMZJDkuKiEkGA4Ifg18qJknOd0RcgnOT0jdH3OC5vLvHZtnbcfvcfP7r/FH3TXSXNhORXC8IjdvQN8UG5cXOV31lNyEYoY6ThLlud0S0/P12FPAhd6jhfWB/zw7lMeHJzw5uMuF39qOO0bkBXev3+b9+/f4fVr2/zz3/o2HTtCjy1rvVsshz1+8Djg1+4jPxOO3j3k6G5JoKSfpmynGYMIEstKxNFAJtATSxxPkEGCmko+1GkathkEpkaS89b4TlHaBscMaJU5p2blLU3ESfvqZt2nzh48R2nPYcWiTTqeCoT/f3tn8iTHcZ3x38uq6r2nexYMAIIARUEEJVKUKFMyJdsRtmUfvYQj7Iv/QZ98VYR980UXh+wIawmJDlEUF3HBMlvP9FKV+XzIWrKqq2cGwEAkZSRiGrVkZuXy5Xsvty+NMYiJcFiub3XYHnd58LtP+Y8f/TernYSbuzvcvn2HXjKGdMleb8hLO/scdg7oqGCcxZqUg5MZ6XTKOHUMRDh9+JCjTz/j+M4Op7NP6NNhQIdRxzFkhIs6zOYrbk23eGU4JooO6aQ7ZOpYkuFWSpZ6AKYuoWAlI1VMqtjjBf2lMIwtI2dJrAeg6AlZOmGVegAuRFgsFgxMj8Fixfa1Ma/e2YHfzfjl+79h/nCCnv2WOE2JsxWrRcoLN24x+N4rLF4RlkDqHP04pnO6opdaD0DnGUl7A3h5Z0TvRo/pUvnZJx9y/O47uJVDlw4Xew2wPF3y5996i8nWDHPSY2c6ZKv7E37+00/R944wixQzz5h2p1wzexzMDlh8/DH2UR/pjDDOEGHpAAMTYedLjB2hKDbKO6X5NoG2Tm4hcGqCSJv0ReUATCmoiuGS4lTN2Kkfiyu23tUAGV6tpaDeSS7QaUSJjDI6Tbl31uWvdl7gZKQcHFoeHB2zt7tFqimHRwcki1OyDx5gH33M6EbMSJQEZTDZYjJyfLpIkeUp2dEDXn1pwq39bYa9CKMx4mBpU/qDLr0kIssSLIa7L+9x58UJk+wRZ26BE2/qpkeHvHHq+MQMue46DA4cMlDi+JjtnRdwD1MmZu45UhYp5vAAO5oy1BH3Foa3tMt73SFjY7n38IT4w884Bm7JHf7s2jZ/vbXLL2aHRIOY3tYOp0dHRKZP53TOQs9IdcnBwREJMa/riK/3JsyPz+hbw4PPjshWp2SrU27fe4V/evUek5t3+Zd//wn/ufyIJDPejIuhL2M63SM64z5TEzGUHSbXBnx7NuP9wR4P04fYkyWRhf3JDjf277A4cyQovc4MmSt7wyG/+fAXLB89JImncJbSj2B70kWjGOKE+SJjvrQliEQbS1T8oO8aWtb7KdKmOEsXV/O6WvqVJt5awFcBM5ecQQIiA8eashx3efXt1/ju/g73/zdilJ5xfXtCqilIxN7eNn92d8rtOwMe9Re8vnODjigHh484O53Rm17jzW+8QrR3g2zguLW3zWpxzPH9D+kNx/QHY/rjHr1OjF0ZLI7d7cSv3jg8IVVFSMAknI7g5W/e5rVU2IkjooFfhXxy8luizpgXJjv83Q/f5qasuGlS7k4nWLPiYDhEIuH6vX2+Nx7QdUtuvLTLePIxg5WCWTG5s8vbnbfYWn6VXx/t0//oXXqTAdduXufOzi53dnbY2+8zYcA8tWhnxHfeepOvzft8f3/EqD/0zThdwmLJp3aJHcV89x//mMN3fk3vgxMy56nU7ky/yUu3jjmb/45pFJMeZaTZjG/vjZi99haDxftck4j05JRbu3u88dpdHnx2xnu/OUIHv4S5Mjt4xPWp8s9//7d8pLfZnX3Ijd0JR4enaDRHozOQBJGkBr5WjbjRSf1SG8/wmIvrCwsoRWYFsAaAWz5amooC6jJ/CIo6xhrxlUGPH969TXZjm3ES04lgf7pN3y4xqxW3diP2t+5ymB2zLcJc/M6yydYQh3J7d5ve9j5H5oxpFrHTj7l26yV6w22WqfDJuz/j0XvvMosnfOPOLjenU1yaIXpGZAb5ZpqI3miP773UZ9sMiToxURey01OGZkziFsS9MT/4+le5Zpdcc0uSxLBiQWwtcWb5/vQa3x1f49ACYxBzH104MkmZpmf85dYN/iR6kYeTLeKt60jk2N6Z0DdCT4T+POP66ZIJcFPhzrUE17XYUcY7Q8uNYYe+A5PN6KnjW1GPr3fhzbu7jG936Pd6LOcLehi68ZR35icM4jMWq1N6vYRb3SF/2tvmXjpnmxlzB92JsDdecDLNuPviHvHoB9x7sMC6OdPONm/cHbIbTdg96rAz7JGkS5wR/5fXrAef1gBU6wyfBwwakrFFEsbq/JRKOXrTHG4Jo16ThAX9bsWI5ZxFnCNR6BHBYsHdxGDHQzIMSSKgKZJZJFWG0QlJMmA/GWE0ZeFSelZI3YrEdBlHILFhNBwwnSlmMSdyiulEHN8/5dN332eC5Qjl7s2EG9MJOr+P6Blx5FADLopYZHBT5/Q7PWa9mNniEb3slIEZk9glM3vCC6Mx2ythulK/KT6yxNbSyyxWT8k0ZigGnQnH8YyuG5GZlOnpjGjQY9brsTeM0ekO1mbY7IwoZ7WKUmURKWkcEceGrfEuSxOTqcMuU/rDDqu+QDajZwyZi5jbiBsRmM6Qa5MJp3KAxMdInLDdtQyjOak7YNjbAh7xYn/AzniHebLDvoO+KumiQ+R69Lopc7ek45akdkl21mUrccw6M7biBJOtSGKDFYM1Ag5s2dnIJWBgo51HYFADkAYsCi3ey15weR5KDsIaGNsgL5WHNtLKYt5QnKOTqqeoUME4g3EGyTKstQySGGNTjGZEaonVYVTL6TrRzHdujhbcP57T3+rT39ri4xj+J0n48XHKanXGt27s8c29ETuRoxvDaXeLlVNUMpyuiJeOlbO4zIPBWMDFOZOCQSPHbpoxtJYe5HPEMZqT+Yg4EmP9ZiNAGKPGYFXAKqwssab+OovBLVGblaRaxuV0aepQqxgckaSeYtcYbJqSdHp+e5J4UqGuUyRnKc3mc4z1tB3OGSauw1Ihivu4zM9Z9ApeGqfY+YKjxZyks0Wns0VkMnpWwAgdG/kZJQO7S6Urflw0Uy/51PnjCJ2OaQAADjFJREFUt5qqt8BANSfcIq1qrhgHrPS2Bn81ABbKXYLrCu4t3yg6NIX9lwcpFm5rDkJxSsc5xHpeO3V+IM/kTPiDTozaFZHzBENCQYeRtx5NMVi2MXQnI+x4wGlk+K8M/vWjj/jRBw94cZXx7b3IA9A4uhGcdsZoplhncboiWTqW1qGZEokHoJDkjAsCkWMvXRGrJVF8OolBBYtDjJBIfmiVgLgxmAVOBbWAWqIsxViLsSufbpeikcFF4ok9xKDOeYZ/lBjFJQnGJNiVo9vpgbOoWiKErs0H+FGyszminndGTcZEuyzISKI+NnU+Tzg/3pf5raoMB/kZMvO8cwiIoWMNGIOxSpwqqTiMkNNx+tVJqsWqqByCWhcs65hrH5MJDwyqsXrkeImrDkcItgrutWib/XENwJb7rFbFVKPiJpcgxuRTMNYH9ILTehtDvHQpbE7PweR5rjrOEUcGYyI0W3B4fMKPf/WIf/vVIzonwuvTMW++8AJ7nQ6sLNnKIE4wTonV79gzApERL12tI3ICLsGKsooczlgiFv6gqVy9iIvxHIaKI8Xmg6ii+U5A6fplS2qI8EyviIMI35AUTyieE0emvhoQCgqOQiJmQMFGmvO7YKsjXxSKzZEGnzd/dkeM9SfV5OWfonm8XpiYfDzXQ8tZP9+tceS5A9Wf+2vEz9FaitMKopKHc02uVSMp5/Zuay+DJX/1FdRUMyGtArRNwq6pYf+wiFCouuIOQcT5tYCimMgrMHWS74X1IPOnMOYkjJhy/jFSH7ariiHxAEyXHH/4AQ9+/lM6n53w9njC37z2Bn/x+tcwbgXLFVkaEauXCOUYpXhCIlWIsmKTQ4w1zo8JiiX265LzCvB/SoYVi1OLE+tVs/i9uyqd0uSIVXI161DjSrrcooHnx7jkdJc5C73id5tZh1PxVHYoIgWtruIJ8io63nJiPyeotOKwxVltOWNDpP4QQcHn12FRl0NUII2jvGPhzQkjDhVDln/J511zNrAQGfWehEoTgRt6qIH+DdUvhOxYOTyLnnD5f6i8m/FXqr2yE6ol0hQraTX3kR+1EsC9uQonWE0hhTr3DzzNrGDTjNv7+/zDd/6IN2fKV7a3efPll9jvwtlRBtYh1leuKVurBoslqiZcmBt+DFTySi2f4o8fLXLnZ0jJD3XRYvgpT76fN5AyR5VZUhVa0NUrrxxFQ68XcHMtXlh1bc+AfCBYavVW/gbYqTReY662mH/VsF4qFRrG1y4BzxGJG17FhVgsZWPpublAqxFJTRVr9UiFakl1Hov6t5q36SKqevxSe15Ujn/j/0ViOLz/gG5HuPXiDt3BkP3MkCyOmS9ggLc5C0NUnN8EXlDWVlPrjRM/yh6Tt3XKIi/YUCkO6suPlSx0kATklFCrzKBEGrmrIFizl2vvi5jqakeDHASFn/8nZc+0wnOjDms91yB+LRoHBRiqeAO/JSzbhNEG1w7UMjmeGaEOvmBQOQhYqJOaRNz0SQ2uw+yU7PXNFkpep/VW78pkKmodVlN2tvcYjQaMF5brJxkaObLIkVlH6jzLvokM6gqmeHJ2Vy3XoVX5kEDUFwZ4I59lekw933kHLPQjEuSqMNqLmpK6mRMqt7AMqvgKqKzvy2lKtOq1oWoyVfqqRhS6wpCrzqzTEojaIpXrH2uuOzjfbUJrviK6xF8IRBoyUNsLqnrUniINMlpXb6FOKI++C+L3K1j8raefsFmGiRLmC0sqiusLqt4+y9SSZRaSDibuYkXLI5SbanEtDx49lTApUi5FQQulFCwrqCm3GvEV6S6Ct5RrW4nVlIyYAOTN/4M8hKe4l2VXpK9F4tWUcPVTr8O2VF5S7K25NpGZ286Vn/U2X5LRSBWgliZpPmi2jPXarsYWAzGvtfqvASEcnyw6FKAYZ4lxngU/h6rmq3DKBZdSr4pmQUiYvpYyqoYQwrysrx7f5Gr5aSmriwKvf0fX77SR7Eupx0Klnvd+c7incQ2dUdGz+WehCAjM0Nac5i380rK4pQU3XouEy7/9hyVfJSESAtBh1BE5P4RQnJFRjCJY9Ys2XZiH2vfbuB/aQVi+X9uAszkfG59ftu5a42hRgZUJ17CgL/uRNj1+2XCPG6o9XLkrrlJRQUVVGrL6dinmuQB82riWOghqwjGQhGi19Dsoz0IJqipYz+IoasvnRoBcAlIwdRVSNShrL8zzHV1BeVRGuDTKqV5RzePMNma57eVFdXdZ4djSlosKLouzqbWovTjng5dJxOOB8DxJG9e9NQFSFHpVKVJIg43fb//cmt1XVnhYoXkhFs077/RJvlDW22QFUU4BQJO3ifxESaSUfGvHS60BLjANwufN/JXtpSXNa/OVF5TJprp7XPBt+E6ZTg0ExzNxlwPhuklWDxNfLt91IV+ujpCLWlNeJCGZjWzyu/5Mcv8FmApuZb94wuTvAgNcTS2LxaeC0a4L7aV6BUpjW0LQgBRqwwSPo8paojvP88VWTjsYakkPnrYtIrisXdvyhQvc+VI43hhJWDjNEzNDL5eyAUODpSnxqJqJhDHXPxvKTT/NZwK/xZ/f8C5lVKHcaqvt86V5OyNAGLY93KXdBeEvb18Xka11tzf4fKwW8JTufEkZF17KBBVcwKUIX1dT5f1jF1B4ua4WQy/SeFAMEtTHCqPAd2ENCpRzqgXHTe4/WJSm4ZXm1tOFZsXvo8Kexj1u2j6vvJR6tJ0hdRMR9dUUfyOGUiKuz0dX3ZbiqpjGy+8F0Oo838J+LCSgKcOEK3bEU3Q0UqIbVNO5aX/uLuna7W0IZkKKZVUSzoTUJBDl0ydLwMXp0za/NU3XkJo5qnxwoZhG0lwCar7XJYy1mBrUlqw0JXrzEMbn7vFdVaRh2VbNv+KGyX3XuxtBsMbFlciCcGhto71S/EpLWtp81tOna7+BzwLPFxzU/dxdhWuIs/wm9te5tNBQ2W0G2ZVVSzhXWRsiaXxHa3ct4wt52svplGpkszlg29aAnku+Z+faJGCoTSsJWKhi8vG2hk1W9SSfOkkXPG6fIqo92zT2phXwakArRR01QG5M4XPJd+WuxE9QAYoSt25XCius7Xkt0qd0a53Puvytj081gbeeHinCaDNs4L3x7rnEe7ZO6z+lE2pL8mve/dVFwuoqnF4mvqYP3SjFquVUm8K2hXku8Z6dO79xB6thKOuqGput91yeXTVdJuZ6F2I9yObxytDHJTTwc3elbkOJ52PMcTHmVwOc0jJWFlR8WZNXVZWXnEetma9hZ6I2bVPzFV41IPwciL831wBhcBmHXkJXbKHz022s16C02FhfOHd++q469c0ZxicJfF7Qp4r/Cr5/YfBNWumcll5MqLb7CdTyJnv+83PS+H/9zab7Z+qetGAuG+5ZFfznVKElAL+c+uhLmej/p659cM3U61Bar7+M1bxZPj53z8Q9oQSNnfNcLM6p38VP2PnYPJjx+Ujsx//q7z2dT/nBC4M/4ww9cfRPA0CXz4AUO73aYPfFAOBFX/6CLJd60k7IpcZEnzD+q/x+m2sJWNbG2khM9SB2qp62wVR7QS8EYDGj8rm5to9/QcAHT5WMzw2ATxv1BQFrAykBIGN1+QYeXQeg5OOBbd/4glR14L5AKXoOwFZxoC3PYqfOE9io4vK3VsA49SxLa+NDOUCfW/d111IBTxy8OWXTHId9gvgv/e2r+EAJEC3jqthapPYqVnW4kjwRXL7PNlE8z0pzQcKmBD93j+Xal1N8CV2Aj7qpF+SswmFOw1P5yjsh/iAdK55GzOJXRkvIhSNr8T13T+w22bBfLlcIsoLEaW3zY5v/xgsvAVU8CNUzgKbiqc0i1y7z68X35Su4q3DVirYNq6lbw5zXdC83Q61rd1dX/peJKZwODGnvagBsm43XdQCqQCzW4axWXHyiGAdiQd1lZd362pk/NNeyBrv2ds1MaanNdbjmAFozADe7tkq+EhCeU3lh7GFfoDTlglH/EIg1Ot/CSyEd1ZdaLM6RWVtyiZY7bp2iBc9ekJD1nvCmzP8hScYm3MLn1YR7vWzWrTyhfYirOQNVYUxaF32UdzXa+maaH6/8m3UbLi7QDTVdpkuqMijKoaDFaybLaH6iVh5/bBdLljbDJjFKVAJQCgAGea0VcGMKb70B/WEBsCYFysGs/F5CSDaf1ccPNuoKbeMDrOLQ4JGuxbHJ4noM17C21uS7tjwrfBf4ExCVxgKDMLXNlCtxFjuMPcG6HjbreQAG44EV8PLfoMFVIrYqIKOVmA2p1TbNM290CquoTS/US8qz3PsYTa2ENkmGKppSfpwjxIt8Fi26mfyibLR2v/7ZtYmAlue1axHU1VVciPsnHwrbICpEqutGxDV2+1o0un7bzFCw61I0J54yOWhFiOPBgNXyGGMdscsot/UYT+XvtUDVdqX4q/WSWzvf6yK4sYC1xUSo2eJJ2K2qhaoeh2+cCX01VWNjWKCGTwkDruVGgKiNHbf0JY342gDY3hKaDbRm4uXMDjXQ5Z4a9f8Yrh21G9PRdLp2UafIaWvRQaEolITpihIngz7LAzDOIS7zwzACmgjFhqXwzEPRQupIXeLkrqTElYIUfENGpTUvtbQnWcvDhgu/1exh1SEecidTe9781YCjxpT5zc8aPqfD1ex4tAmO8O0m7SCtvnStvJ4Ify2uFXLSKKZNThspDiq4KP2Qt14L7kb1f7HrdnDdxFPzuwh1DuecP9agxg7kgagBsFoLNwCWBjvu6rJM18K0uVVysafqWxsS0/CtEr7T4Cqk7w6kpwKas8S2EBm1m+eViqzg2pTmzWpvU8ahiju3BC/pztfZa2/bFNCahVpxEq4BOaS9LRuNqfWS/w/SHxrNR5VEzwAAAABJRU5ErkJggg==;" vertex="1" parent="1">
          <mxGeometry x="750" y="155.46" width="109.08" height="84.54" as="geometry" />
        </mxCell>
        <mxCell id="0G1YjZtWjZHLyLZfflZ1-136" value="" style="rounded=0;whiteSpace=wrap;html=1;strokeColor=#BD7000;strokeWidth=3;fillColor=#f0a30a;gradientDirection=north;fontColor=#000000;gradientColor=#FFCE9F;" vertex="1" parent="1">
          <mxGeometry x="290" y="270" width="580" height="140" as="geometry" />
        </mxCell>
        <mxCell id="0G1YjZtWjZHLyLZfflZ1-137" value="&lt;h2 style=&quot;border-color: var(--border-color); line-height: 18px;&quot;&gt;&lt;br&gt;&lt;/h2&gt;" style="text;html=1;strokeColor=none;fillColor=none;align=center;verticalAlign=middle;whiteSpace=wrap;rounded=0;rotation=-90;fontColor=#FFFFFF;" vertex="1" parent="1">
          <mxGeometry x="270" y="310" width="90" height="30" as="geometry" />
        </mxCell>
        <mxCell id="0G1YjZtWjZHLyLZfflZ1-138" value="" style="group" vertex="1" connectable="0" parent="1">
          <mxGeometry x="180" y="70" width="50" height="180" as="geometry" />
        </mxCell>
        <mxCell id="0G1YjZtWjZHLyLZfflZ1-129" value="&lt;h2 style=&quot;line-height: 100%;&quot;&gt;&lt;br&gt;&lt;/h2&gt;" style="rounded=0;whiteSpace=wrap;html=1;strokeColor=#006EAF;strokeWidth=3;fillColor=#1ba1e2;gradientDirection=west;fontColor=#ffffff;" vertex="1" parent="0G1YjZtWjZHLyLZfflZ1-138">
          <mxGeometry width="50" height="180" as="geometry" />
        </mxCell>
        <mxCell id="0G1YjZtWjZHLyLZfflZ1-130" value="&lt;h2 style=&quot;border-color: var(--border-color); line-height: 18px;&quot;&gt;USER&lt;/h2&gt;" style="text;html=1;strokeColor=none;fillColor=none;align=center;verticalAlign=middle;whiteSpace=wrap;rounded=0;rotation=-90;fontColor=#FFFFFF;" vertex="1" parent="0G1YjZtWjZHLyLZfflZ1-138">
          <mxGeometry x="-5" y="65.45454545454545" width="60" height="49.09090909090909" as="geometry" />
        </mxCell>
        <mxCell id="0G1YjZtWjZHLyLZfflZ1-139" value="" style="shape=image;verticalLabelPosition=bottom;verticalAlign=top;imageAspect=0;aspect=fixed;image=data:image/png,iVBORw0KGgoAAAANSUhEUgAAAfQAAAH0CAMAAAD8CC+4AAABwlBMVEUAAAAAAAAAAAAAAAAAAAAAAAAAAAAAAAAAAAAAAAAAAAAAAAAAAAAAAAAAAAAAAAAAAAAAAAAAAAAAAAAAAAAAAAAAAAAAAAAAAAAAAAAAAAAAAAAAAAAAAAAAAADxs5PD3IMAAAAAAABKyPMAAAD90UkAAADC23n1rI7523m/23eu0UkQtfGYxx/4gU/61VxnzfIAAAAAAAAwxP/9iGEAAACkzz7/h1f9z0sStvGiyzCz1Vw/xPKqz0H512f1qIeVxRT+xBAat/H3bzX3czoAAAD4gVEAAABy0fL/wgaNwgYAAAD8zj/8z0H+xBP+xRQAAAAvwPIAAAAAAAAAAAAAAAAAAAAAAAAAAAAAAAAAAAAAAAAAAAAAAAAAAAAAAAAAAAAAAAAAAAAAAAAAAAAAAAAAAAAAAADr1ov8zjr+wxD43YX+wxb9xh8ovvI0wfKmzTj3iVr70Ud10vL1tZqV3PPP4Zj4YyQQsPH3Zyj3bDH2eUO41WlWyfL52HD2lm5dzPJ71PK41mL52W0AAAAAtPH/wwCRwwD4aCz/wQD4aS0AsfGOwgD4Xx/4ZSeKwACRwwoJtfEAs/H4ZyuQwwD4WBUMrDwtAAAAhHRSTlMA+wgbyxgMD+i0BN8CEuP466An76S/IbhoXbvZ1ZvQAwWFNxZTGHNkXxwbFPHjqpeAbkIrKiooJxT3p5SOiIJx9PLo5+HcppZ2/Pvzj4n288OsWR6w8ZBOMi6LfEl39ag8rIFjxz5gRgyR+kzx67SqmZeHdD89N/3z8uzNiYV9Zl5YWEpy1IhuAAAT+klEQVR42uzBgQAAAACAoP2pF6kCAAAAAAAAAAAAAAAAAAAAAAAAAAAAAAAAAAAAAAAAAAAAAAAAAAAAAAAAAAAAAAAAAAAAAAAAAAAAAGD24EAAAAAAAMj/tRFUVVVVVVVVVVVVVVVVVVVVVVVVVVVVVVVVVVVVVVXYObNX94koAJ+kzdI0abqm/XXTlhI3FFosPogoaCnYl5Lu2+12bX1UEEH0cUARtwf9f72ZM+mWdHHDa833IHozyb3km3Nm5sxEHx8fHx8fHx8fHx8fHx8fHx8fH59/HrG+bmajhHCRYKGiwb/OSy+/9MfBG/8EL8H/kUC1+MARhAuV4V/mpdde/RN88SnAy1++8if48lP4/zGKJcie9BD+bV79+sOP/jCfvwPwxntv/gm+eR3+dyyWOjmgGYB/m/e/+u3HP8hvP7719pP0z375+Y/z7qn0QQEpXUp65T426g/Awcg0m9U6/AcwYhxBEpGwTIipwL/N+x/++P0f5KfvqfT3Pvjh2z/IDx+7pPcJowRnUUqEMQZGPSYTEo2N4PkzY7m9vcpY1mayrMG/ji39uz/GXvqvf136mDDSnfOx0nVCZQKIhrdxMQmeO8YjocyZbEOAf51nI71hwTk2DYK0xoCMcoQSefahzptR2j3bxvGPhfrCgFu5M+lKkzB6fQW8UQrEIQRIWSeU6ECF540Q4mjvnB4ZH67HwUYGbuXOpHeWxCEogDflR5f0UZhF+r++5r3GKIKDlwR7akE5oZPE/1Z6nA7XtHIhv+DBC9WUCeEejqQLTZwRd59BdesiSqVHnpBNFfa8IDby/1a6YUe6npLtYS/pbZC3E6Tc1qlkQJT6nDyRXTz37C5NWuSJfA0O2PzPpZez9vysGSRP5OKegV5r2G+tRBc+qQ4wRmazbz775A5aiaao4Aj8SN8xCNJJecEO9Z6lgBt+bMdKu2K3IMUF7NBEeP4EsDLTFnzpe6a29Idx5tHO8rEAuBHaNPXjhCj4/GP7mHob53HgS9+zpbbH29C5ubhak+kLMuT/pPR4ypfund71cYBWY7m1O79rfd1O60MjwtL7VRSeFyVNEnle8b5uX+UPf2C31zRR5FXwBltIEq94tVAVXtLwAXCKgdJDcIiF0tfwB7gn6aZsS1/xGVq3ihnuUCnaF5aK0MaynQqXkRabVSGWyqeShVJmKrkN1c15Mf+4AQdtWh2Hivl8PpQsDTqeyuuZ/jyYzxfThcxAcA/bFbOfLT5d7sZmNcGP9OvSJz17TM+otSB9D1s4gV/bgR6dgda1Z0ThtcpUJbNPhMyT2FpMQsVwVLebcnovkk81tzzAMLZrG18FZY4QbuJImaVyco9QuESu3dzCKcN+MNLCsoAeyaUnQ+XoaqndkB/YA6L51LgMjFHh6be2E1g5zB6Sx4fls4wlXOO+pNMtqNZGFZLEZnIamp0CHcq3oC2p9A2T3mkRm6V0IiBKTigpAAP65rsiQK3LJJiYfM306Q3B0ggO0TIpnRySiMVhx2iVQuE7Htozli5qMrkVuMZ9SafL2NZagQlW2EZwTI3urCQFEFC6M+oHIrjLJsIO0QoRNyu7M9DQSonwCSZbJl2pxRLEBReq8LCDn+zUubcDxUpXJy56yRrtmZ/kyY0k4Br3JT1GmPQKtdionO5R0esmMOnR1VnpQqaxf4uNXE7Wdw+UirQqJmpdwmjNABSrvWsfzuUaCcLIb0RgKJkoC2C7hUxvnQBDMndao42nyy3CaE8Vu7+GyY3ocJW7kr50pGNdlYx5OGTUZdkdBDqm6wX+jHRhEmaRGg7OSxvLMpvzYIQs6wDAB+nMP2DKqFiWG1WACuskei5kt7dW2ZzOrL9QmfNP8KG9Yn/91MKMFSOkuAWEr0ZZaOeXkxeWtem3w451u025HZXlKJsMyIf08A/tyUg0B9e4R+kbhcU0yZaP57m7Sb2wvCidn0UIRU4OAoqiAqiKIlhpU9xLrxXtW+RUqVqd1aAcZDcUFrgSU/hFzNZBmwJFSFJn0XGHtlAVw0r1NWcrJcw6WWmEaz1FmqbZCB8aAXRemNVMqYHdqJqp7lgnMdvM2c9mGbjK/UlPLABgSv2G1x7npDIqgBbTL0hXXzRYjFU09eB+QYSd9EgpYr/pqSDyvMjHQ8zvQIIdQpXl+GzgYF+01d83UQwBkE8eWdOFCA6qMdaxJxR4UPknRm1sxB+yxt5W5R3gKvckPd6m0uv2C87i21JhT5lOvB7t6BcnCVqO9ZYex7Dl0p7bbiidi3JE73eAIs045vzoBpGl7ESVtw1vsHA+AjedJqGkj1OTwKw3Kn5x5pz0cnAnXRhzzPCeKk23fWE/gj6KXtIlvJdL4c0e0pGW4xzKOAcLZ1Q4Qir16JOKo/2fFFPBjSWzTuN99pVLC35x5oz00eNOujKg42F0cmCAzu11S9mfNctLXtLLEVQ4gMvSu3FARBPnV03hTN2Uy/AARoEKbIIbDQO9NxPhhEUOlQ4UX7q39AXV0avT1x3kqBgeHGiZjgvG4Yp0lqt7ffWy9ISlHq0KcCZ+QlWmT54bO+lzEVzUgiizDqeI4wdMKqIv3Vt6hWbZSJxtrVCtQ3CYRGlhnnoWZ+el1/HNPg7hsvRQHBgWpgacoXmGemRhp3ecelfAxSTq5AMX5QaW9gxfuqd0NulOdXANJGOxTAFEDNH/rqE4jMCc4SF9iwb6cFm6PnMcqyUsqVjgAfY9slZBtTgWzyocoyxxulYGN+KSw7/bl+4t3WrQwicukITU0WFHFasnj3hRnYbpsL1VXdJ5Ew1srkhvTYHRmV/4lNDCQbmk7Y7Xc6mKpHrMRbhYB9woJlbuMrwv/Xykc130yq8S1OuIqRr36EctPFC2VHpk4JYeaOISfXFFeqIOjEXqwqeENVxaFwx7Ls+KLZF5RYIDKjkndbhhnfWhpPnSvaQrVLMT6SrurvTYQCk8cphBj6RP3dLjSTY1vyK93TnxOhEvfEQVGgKo8TZBuEZoVj/NBg8bFRCPdShXCPjSPaU3aZktKQBFwvrMMkCvTWWaBRwx07ORXs5i3IoXpWNCQVj9buPdGhNHsEZ/a544RNOlBSAqzuN63rlFyqLouC/dU3rfTp+9kgTIuEXFDrFM0sI9UMaQBlc0w7ukMzEruCI9FDj5kHQAnrA5+xYTeUgnDlx2MnI6KxsvPAlhYqn70j2l04VwYlfhGFB93NoW20lxR8swrUiwrUv6gM28bpeOa35SAU/6h9Jh1MyRPd0pv+usJDG6JD3lS/eUzocckYjQRZWGPcC36MCoAENE6ebfI/16pOe2gGjWPNwiDkWLt6X7kf7npQePpQMWu4tlAG3FHS/DxLORPs3/rZGu9p3tVYaqTfuNHmE8Dq5FupLGnTV/TD8nHcfp4wodZwHg1md2eCK9t5Jc0hc4xY5pN0t/gbnBVMADAwsv84MwVqV4ps0Rsiu9Ynmw5d1rhvTX6X3Bl35eeqSiAkOLOYWRhUz/hd9LT2NNXHBJry/Zku1m6VvcCx9r4AL3c93Hsfn6OkUovYnzv0nQqzy4YcON7q/TvaXH86cf7Js69VdXqnRcPQglHvcsQ27pHbbGmt4sfZg+CWb3fgAZC65vbUKEkuJhWqRPxDYnKFU8elEVfele0muN/dobwbcZ3mLIFwKHy+cHuth2S+cnLAJvls4OXOc8u0kJh+8X7txfo+Uiko9DvO3M1dwoSR0X8X7t/ZL0GuwIFKifzahNN7HgULp+JtLB4ljR/lbp6gpPOpgquBDSqKTsoTODdeIK8HOs5g/AhRrP4URQ8KV7St9S6Y047MlQHSV69Dhfc0sPdtzSnWMw61ulgxXGUqtHpGZw13VpgJthGA+3KU55pyC4f9mqh/M46az0zf/5uJSCh93zmuvrhlSWFlYNV52eRONu6cKYUNLGrdLZgeuHlSuHa2m8UpXAjZZj0p0Vg/zClSvqeYKz02snZ6L/z0hne+R5CfYYmN85+x8VFfaom/A56TDFYThR0m6Urq517yNuzsnIYhw8EJh0HpQSh7miDOB5MrIrwVnp+JkVV4LbuSPpZtQV6cqGODzW3duw3tIDc1QQRevXpUN8yY7PnizM1hGCNSAe3CgDmQ5HUwD4pM1O2WnHzieY98MbOC+9hslgrsGt3JN0jPS0BAeUaUDjQvdYOkb6yEO6WosQtN43TkV5S1cslKPPy0fOw0ffqwl1OESK6bQzanZTdoY60Y8fOZfxsQXpgvRRCBcPFtzIPUnH88ZobkcgpjOBNRXc6b03UN3SQZn0CKXX3Rh7s2VzE/CWDlrf2Tl7oe1krHIEdbAjWlbXXBzcYsoY3DgOzQmltRzwwFg0ZUJJjeCCdKPA0kwdbuKupGtJ/FTpSLpSecBX0hbgEHWQZ9+9eUgHoflAkEhyVqmN4vVFZV1Kt0JDt3TESBOk0cx8Eq/XhwOz22KP+J29O/9dEowDOP4BRU1EUJTywJLM1rFKy661tbUVNTssLC1N07T7PtbW1mr11Grd9Q+HPNoXsLXoNJ7n9Rvz6Id3gF/geZ4VYAnoSM52SpoSDoWVdkmPOy7KnysgrHAmo5lfoJU6aQZZ8i34XvRQGVl6gxWtbjdzYQzf56/ofcZRDlPy336kvD2yomfc0bEaHoeGowUHqUEjLuKxj/PRsXNZBmHMKNXvL9uPpvhyyP4vRtLqcDhUl80Gy5UBY0sFNFXPJvr95fGlO3Gx70XHY6cxPpev8x34m3D0l5+9effyN0XHEw30dBbswjoeZNyeu4+B93TWHR1LnoqjeWLFEd1ZvS+heb1GZnbOOI/mSZ3w0u+67Ek0T17WjcL3o4fLMlqyvwx/2d6Hb9959ODdNPr7Nx65JvnnGviXchTsopm4lSgEThresYaCFR33StneJGTSdeTGFCfR8SezBjgZZwsichIlvR0DjCvOfZ8YcTwLWTvDM8ipxw8V+ztG+BwPToJuqx4fggf/ZpJ/8/B+AEf/4JVrTzf2MybePaeUkQimR825hw7bI8ZUL3JWdJ4x9RxnhqhSydYZe3Fmf6obA2CtT4rNALiEtFM5xwcktSrYvm/F8p7j5Yg+DoFduJuIO97BFzXHO5JZZmIZuAidOJo5OYC/7N7tTQc82nTg8U6AS09v7fZu7SVYwp4bmzQOXJTTtZoSnivUHpvOKVHro5q1kYw535JsdfqNfGSy++Qb+jCjGZMEsfZ4osbCHE5boWfzdet51+X6imoA7Nhkd6guz1kDbfhGoqxx4GaMK2rD+p8j5punzmsCOLCnxxOnwU2oFrNx68jQUM/DX3Zpx7Ydnu1cCbByw/afsH4V/FnhpFbtZjInulXNEOAHxIx2tZQxP3GxbURhjmC+3DJfLl3UlBB8C6to1heUqqcD4IHQ7k6/d/GXp6Ao6j+0avXPANOlnWu8u0TmEowL5v6jPd49WW02f3bn8mGPLh++egm8i4UEzlBMAU5gF31a///B3X27vLu5FWDnnetXjnp05drmdWDHhiZY15ZT1Gh11OX7I5FIfNTXy12Odv9VBze+9uzjDTP6mstXXnnnjM6mCqbgKQ4mhGXWVjEENjFtGORlEWFMT+KD6gkDqF+Kvu/1c48+fTw+2dOPHHv1wqNXh1zRc8i2SEdAtj9+gCnFoIxcxP1ngfp/ozsuinO8tZWyRb/YPInm9TpA+TV6rDtCM+JJWUZT6f9tfYdFs8jRq9PmIj8anBkOO3oznZfMbf1/WLJnkS1w9EATWaTEhSRgXHeYjUsVoHwaPVqWps+xOKZ7DbU654DyaXSjgJtnWPelGhYof0Znz8vIJJ+h96CAmOiCOntqigJSohv4ucXl9FhuIiV6Em+pUaCAlOi1k8jUO0Wjm4iJLiOTSPf0CVKi48M7CnJAASnRjfR0BDjd1QFIiS7gOUOZrAIUKdGjLQlNiGfoAR5IiQ6B6RhQWafXZ4iJHs1EELasRA/xhEQHVhURJqVKBr0yR0R0a2E7jJGzFZqdiOigqOgrqXBqTLMTEB2UYRx9Vc+nWjS7/6ODUGoyaEkh0aXXanwfHeB0Z7mMlgTLdKSD/6MDtDvNnIhmJD0JlO+jA3An9HwEzai0OgnRAdhaZSSjqQS9VkNEdABWuRBEmHiG/ognIzoA204grHARKDKiAyh4QXok6kCREh04FVmC9KxOTnRo5xm8bgKdjYKc6CE8dad0lv6UIyc6VPGiZ6foYCeConM5vBCjABQx0cM4+oBGJyi6YEUXEzQ6QdHxGAh5SGcgISd6NCMhU/w8va1OTnShLyJT7hz9O92P0WMszIuWJDSxjJ7SfRk9XKpy4MJO1zaPVOiO7svoRjbSvxhyxBVW5JGlSR+Z8mf0czJi9meLpRpMnT4/iKDZepWUH6OHKiIyncyn+3qnXD5bTDV4hEXO0jO6P6MrfQbN1CVJXtriz9JhrD6Nnmyib2usoPdaftWWja+9w5P8H3rl3Xfne5ds872HTwxyMnITcyqdI/QLe/fvQkAYx3EcdX6EUmfx49SV0eAvUDYlpaQkixmZlEn5z/XQGW67uvH12p75Mz3f5V1GzuM5K+weRt/cloVdc6OfR0ESVYJoGB7jY5Y6PaXbdm9f/Q++bk6Sk79aCR6reXHvEO65vBbF5cI9jW7Q+C3Z6X7VK5ladBik/dYojuPepJWk052LOwAAAAAAAAAAAAAAAAAAAAAAAAAAAAAAAAAAAAB82IMDAQAAAAAg/9dGUFVVVVVVVVVVVVVVVVVVVVVVVVVVVVVVVVVVVVVVVVVVVVVVVVVVVVVVVVVVVVVVVVVVVVVVVVVVVVWV9uCABAAAAEDQ/9f9CBUAAAAAAHgKUsHLfbmYEjAAAAAASUVORK5CYII=;spacing=0;" vertex="1" parent="1">
          <mxGeometry x="650" y="27.5" width="180" height="180" as="geometry" />
        </mxCell>
        <mxCell id="0G1YjZtWjZHLyLZfflZ1-140" value="&lt;h2 style=&quot;border-color: var(--border-color); line-height: 18px;&quot;&gt;Service Layer&lt;/h2&gt;" style="text;html=1;strokeColor=none;fillColor=none;align=center;verticalAlign=middle;whiteSpace=wrap;rounded=0;rotation=-90;fontColor=#FFFFFF;" vertex="1" parent="1">
          <mxGeometry x="245" y="325" width="140" height="30" as="geometry" />
        </mxCell>
      </root>
    </mxGraphModel>
  </diagram>
</mxfile>
